<svg width="139" height="43" viewBox="0 0 139 43" fill="none" xmlns="http://www.w3.org/2000/svg">
<mask id="mask0_1108_33137" style="mask-type:luminance" maskUnits="userSpaceOnUse" x="3" y="0" width="13" height="38">
<path d="M3.22656 -6.10352e-05H15.0193V37.035H3.22656V-6.10352e-05Z" fill="white"/>
</mask>
<g mask="url(#mask0_1108_33137)">
<path d="M9.65114 14.4391C14.4674 5.74701 14.3355 0.00152588 14.3355 0.00152588C13.1823 4.45082 10.8266 7.99628 8.65835 11.4353C5.62438 16.2468 3.1019 20.8295 3.70234 26.0381C4.39967 32.0917 9.00623 36.2329 14.6961 36.9318C5.71969 31.5818 4.83333 23.1312 9.65114 14.4391Z" fill="#3871C1"/>
</g>
<mask id="mask1_1108_33137" style="mask-type:luminance" maskUnits="userSpaceOnUse" x="12" y="0" width="17" height="43">
<path d="M12.1719 -6.10352e-05H28.6681V42.3929H12.1719V-6.10352e-05Z" fill="white"/>
</mask>
<g mask="url(#mask1_1108_33137)">
<path d="M14.3339 0.00152588C14.6945 6.13618 16.1606 9.88179 18.3496 13.675C20.1398 16.7773 22.1523 19.7827 24.3063 21.7635C24.3889 21.395 24.4493 20.9423 24.5128 20.3768C24.8067 23.0089 25.0449 23.2503 27.6564 23.5474C26.3554 23.6951 25.6422 23.8301 25.2197 24.2526C25.4166 26.2891 25.1196 27.7949 24.9242 29.79C24.2205 37.0334 19.3868 40.706 12.2832 42.2611C12.9519 42.3485 13.6366 42.3929 14.3339 42.3929C22.2492 42.3929 28.6682 36.6729 28.6682 28.694C28.6682 18.5246 17.5236 12.3074 14.3339 0.00152588Z" fill="#3871C1"/>
</g>
<mask id="mask2_1108_33137" style="mask-type:luminance" maskUnits="userSpaceOnUse" x="0" y="0" width="26" height="43">
<path d="M0 0H25.9984V42.3215H0V0Z" fill="white"/>
</mask>
<g mask="url(#mask2_1108_33137)">
<path d="M18.9536 36.4902C18.5215 32.6223 18.1705 32.2696 14.3343 31.8328C18.1705 31.3976 18.5215 31.0433 18.9536 27.1754C19.3872 31.0433 19.7383 31.3976 23.5744 31.8328C19.7383 32.2696 19.3872 32.6223 18.9536 36.4902ZM17.3572 16.4199C17.5478 18.1196 17.7019 18.2752 19.3872 18.4674C17.7019 18.6581 17.5478 18.8137 17.3572 20.5134C17.1666 18.8137 17.0125 18.6581 15.3255 18.4674C17.0125 18.2752 17.1666 18.1196 17.3572 16.4199ZM24.5132 26.7179C24.2178 24.0843 23.9795 23.8444 21.3681 23.5474C23.4203 23.3139 24.0065 23.1153 24.3067 21.7635C21.4872 15.2317 15.7481 8.95889 14.3343 0.00152588C14.3343 0.00152588 13.7625 5.24346 8.94624 13.9356C4.12842 22.6276 4.05218 33.3021 14.6949 36.9318C14.2025 37.0001 13.7005 37.0414 13.1922 37.0557C6.85423 36.2408 1.98082 31.315 1.98082 24.672C1.98082 22.7214 2.43035 20.9296 3.1674 19.2108C1.31366 22.1765 0 25.2025 0 28.694C0 35.9723 5.33883 41.3684 12.2836 42.2611C19.2808 42.0562 25.1168 37.2098 25.8205 29.9664C26.0159 27.9728 25.7633 26.0889 25.2201 24.2526C24.7944 24.6784 24.6609 25.3979 24.5132 26.7179Z" fill="#00ADEF"/>
</g>
<path d="M48.2176 30.9537C48.2947 31.1451 48.3346 31.3233 48.3346 31.4855C48.3346 31.8683 48.2069 32.1821 47.9517 32.4214C47.7017 32.6634 47.4199 32.783 47.1008 32.783C46.8296 32.783 46.5903 32.7032 46.3776 32.549C46.1649 32.3868 45.9974 32.1635 45.8778 31.879L44.7291 29.2095H38.1564L37.0078 31.9003C36.9014 32.1848 36.7419 32.4054 36.5292 32.5597C36.3165 32.7086 36.0851 32.783 35.8379 32.783C35.455 32.783 35.1625 32.6793 34.9658 32.4746C34.7663 32.2698 34.668 31.9907 34.668 31.6344C34.668 31.5067 34.6892 31.3685 34.7318 31.2196L40.2303 18.021C40.35 17.7232 40.5281 17.4945 40.7621 17.3297C40.9961 17.1675 41.2566 17.101 41.5491 17.1276C41.8177 17.1276 42.0649 17.2073 42.2936 17.3616C42.5196 17.5184 42.6871 17.7391 42.7935 18.021L48.2176 30.9537ZM39.2306 26.6676H43.6549L41.4215 21.5094L39.2306 26.6676Z" fill="#022179"/>
<path d="M65.2627 33.2936C65.5738 33.2936 65.861 33.4239 66.1242 33.6871C66.3848 33.9557 66.5177 34.2535 66.5177 34.5805C66.5177 35.0059 66.2678 35.4127 65.7733 35.8036C65.284 36.1918 64.6805 36.5055 63.9652 36.7395C63.2553 36.9735 62.6198 37.0905 62.0615 37.0905C61.1176 37.0905 60.3704 36.9974 59.8174 36.814C59.2643 36.6278 58.706 36.3779 58.1476 36.0588C57.786 35.8302 57.4829 35.6706 57.2436 35.5802C57.0096 35.4872 56.7278 35.442 56.4034 35.442C56.2332 35.442 56.087 35.4632 55.9673 35.5058C55.845 35.5483 55.6908 35.6121 55.4994 35.6972C55.3079 35.8036 55.1298 35.8807 54.9676 35.9312C54.8107 35.9791 54.606 36.0057 54.3507 36.0057C54.0024 36.0057 53.6967 35.8701 53.4361 35.6015C53.1808 35.3303 53.0532 35.0272 53.0532 34.6869C53.0532 34.1125 53.3111 33.7297 53.8296 33.5382L56.0099 32.7193C54.8613 32.472 53.8429 31.9748 52.9575 31.2303C52.0774 30.4858 51.3941 29.5712 50.9049 28.4864C50.4209 27.3962 50.1816 26.2157 50.1816 24.9448C50.1816 23.493 50.5007 22.1583 51.1388 20.9458C51.7823 19.7281 52.673 18.7656 53.8083 18.0636C54.949 17.3563 56.2359 17.0001 57.669 17.0001C59.0942 17.0001 60.3757 17.3563 61.5191 18.0636C62.6597 18.7656 63.5531 19.7281 64.1992 20.9458C64.8506 22.1583 65.1777 23.493 65.1777 24.9448C65.1777 26.2157 64.9277 27.3962 64.4332 28.4864C63.9439 29.5712 63.2526 30.4858 62.3593 31.2303C61.4659 31.9748 60.4449 32.472 59.2962 32.7193L57.9562 33.2298C58.2965 33.2723 58.6076 33.3494 58.8921 33.4638C59.1819 33.5834 59.509 33.7456 59.8706 33.953C60.3305 34.2083 60.7267 34.3917 61.0617 34.5061C61.4021 34.6257 61.7849 34.6869 62.2104 34.6869C62.5773 34.6869 62.8937 34.6284 63.1569 34.5167C63.4255 34.4103 63.6834 34.2535 63.9333 34.0487C64.0237 33.969 64.1593 33.86 64.3375 33.719C64.5129 33.5834 64.6725 33.4771 64.8161 33.4C64.965 33.3282 65.1139 33.2936 65.2627 33.2936ZM53.0532 24.9448C53.0532 25.9312 53.2473 26.8326 53.6382 27.6462C54.0264 28.4545 54.5688 29.0926 55.2654 29.5606C55.9673 30.0232 56.7677 30.2519 57.669 30.2519C58.5464 30.2519 59.3414 30.0179 60.0514 29.5499C60.7586 29.0766 61.3117 28.4385 61.7105 27.6355C62.1067 26.8272 62.3061 25.9312 62.3061 24.9448C62.3061 23.961 62.1067 23.0676 61.7105 22.2646C61.3117 21.4643 60.7586 20.8288 60.0514 20.3609C59.3414 19.8876 58.5464 19.6483 57.669 19.6483C56.7677 19.6483 55.9673 19.8823 55.2654 20.3502C54.5688 20.8129 54.0264 21.4457 53.6382 22.254C53.2473 23.0623 53.0532 23.961 53.0532 24.9448Z" fill="#022179"/>
<path d="M79.3382 17.2021C79.7211 17.2021 80.0295 17.3271 80.2635 17.5743C80.5028 17.8243 80.6251 18.146 80.6251 18.5422V26.54C80.6251 27.7605 80.3645 28.8426 79.8487 29.7839C79.3382 30.7278 78.6177 31.4643 77.6897 31.996C76.7591 32.5225 75.7009 32.7831 74.5097 32.7831C73.3185 32.7831 72.255 32.5225 71.3191 31.996C70.3832 31.4643 69.6546 30.7278 69.1388 29.7839C68.6283 28.8426 68.373 27.7605 68.373 26.54V18.5422C68.373 18.1593 68.5033 17.8402 68.7666 17.585C69.0271 17.3297 69.3675 17.2021 69.7876 17.2021C70.1332 17.2021 70.439 17.3297 70.7022 17.585C70.9708 17.8402 71.1064 18.1593 71.1064 18.5422V26.54C71.1064 27.25 71.2579 27.8801 71.5637 28.4332C71.8748 28.9809 72.2922 29.401 72.8187 29.6988C73.3425 29.9912 73.9062 30.1348 74.5097 30.1348C75.1399 30.1348 75.7328 29.9912 76.2858 29.6988C76.8389 29.401 77.2776 28.9809 77.6046 28.4332C77.937 27.8801 78.1045 27.25 78.1045 26.54V18.5422C78.1045 18.146 78.2135 17.8243 78.4342 17.5743C78.6522 17.3271 78.9553 17.2021 79.3382 17.2021Z" fill="#022179"/>
<path d="M96.7976 30.9537C96.8748 31.1451 96.9146 31.3233 96.9146 31.4855C96.9146 31.8683 96.787 32.1821 96.5318 32.4214C96.2818 32.6634 96 32.783 95.6809 32.783C95.4097 32.783 95.1704 32.7032 94.9577 32.549C94.745 32.3868 94.5775 32.1635 94.4578 31.879L93.3092 29.2095H86.7365L85.5879 31.9003C85.4815 32.1848 85.322 32.4054 85.1093 32.5597C84.8965 32.7086 84.6652 32.783 84.4179 32.783C84.0351 32.783 83.7426 32.6793 83.5458 32.4746C83.3464 32.2698 83.248 31.9907 83.248 31.6344C83.248 31.5067 83.2693 31.3685 83.3119 31.2196L88.8104 18.021C88.9301 17.7232 89.1082 17.4945 89.3422 17.3297C89.5762 17.1675 89.8367 17.101 90.1292 17.1276C90.3977 17.1276 90.645 17.2073 90.8737 17.3616C91.0997 17.5184 91.2672 17.7391 91.3736 18.021L96.7976 30.9537ZM87.8107 26.6676H92.235L90.0016 21.5094L87.8107 26.6676Z" fill="#022179"/>
<path d="M109.696 17.2234C110.092 17.2234 110.414 17.3404 110.664 17.5744C110.911 17.8083 111.036 18.1168 111.036 18.4996C111.036 18.8825 110.911 19.191 110.664 19.4249C110.414 19.6536 110.092 19.7653 109.696 19.7653H106.229V31.326C106.229 31.7089 106.085 32.0333 105.803 32.2939C105.527 32.5491 105.181 32.6767 104.771 32.6767C104.359 32.6767 104.019 32.5491 103.75 32.2939C103.487 32.0333 103.357 31.7089 103.357 31.326V19.7653H99.8898C99.4909 19.7653 99.1666 19.6483 98.9113 19.4143C98.6614 19.175 98.5391 18.8613 98.5391 18.4784C98.5391 18.1115 98.6667 17.8083 98.9219 17.5744C99.1825 17.3404 99.5069 17.2234 99.8898 17.2234H109.696Z" fill="#022179"/>
<path d="M122.848 30.1349C123.231 30.1349 123.55 30.2678 123.805 30.5284C124.06 30.7836 124.188 31.0814 124.188 31.4218C124.188 31.7913 124.06 32.0918 123.805 32.3258C123.55 32.5597 123.231 32.6767 122.848 32.6767H115.446C115.063 32.6767 114.744 32.5491 114.488 32.2939C114.233 32.0333 114.105 31.7089 114.105 31.326V18.5635C114.105 18.1806 114.233 17.8615 114.488 17.6063C114.744 17.351 115.063 17.2234 115.446 17.2234H122.848C123.231 17.2234 123.55 17.3457 123.805 17.585C124.06 17.827 124.188 18.138 124.188 18.5209C124.188 18.8905 124.063 19.191 123.816 19.4249C123.566 19.6536 123.244 19.7653 122.848 19.7653H116.86V23.509H121.848C122.231 23.509 122.55 23.6339 122.805 23.8812C123.066 24.1232 123.199 24.4342 123.199 24.8171C123.199 25.1867 123.071 25.4845 122.816 25.7105C122.566 25.9392 122.244 26.0508 121.848 26.0508H116.86V30.1349H122.848Z" fill="#022179"/>
<path d="M138.298 17.9678C138.75 18.2098 138.978 18.5847 138.978 19.0952C138.978 19.4089 138.867 19.7094 138.649 19.9992C138.415 20.3129 138.112 20.4671 137.745 20.4671C137.495 20.4671 137.245 20.4007 136.99 20.2651C136.272 19.9327 135.493 19.7652 134.65 19.7652C133.621 19.7652 132.725 19.9832 131.959 20.414C131.193 20.8474 130.603 21.4562 130.194 22.2433C129.781 23.0303 129.577 23.9316 129.577 24.9447C129.577 26.6836 130.045 28.0024 130.981 28.9011C131.916 29.8024 133.14 30.2518 134.65 30.2518C135.548 30.2518 136.33 30.0816 136.99 29.7413C137.258 29.6216 137.495 29.5605 137.702 29.5605C138.085 29.5605 138.407 29.7253 138.67 30.0497C138.888 30.3262 139 30.6293 139 30.9537C139 31.1877 138.939 31.4004 138.819 31.5918C138.705 31.7833 138.537 31.9322 138.319 32.0385C137.17 32.6128 135.947 32.9 134.65 32.9C133.209 32.9 131.885 32.5969 130.672 31.9854C129.465 31.3685 128.502 30.4645 127.779 29.2733C127.061 28.0821 126.705 26.641 126.705 24.9447C126.705 23.4504 127.045 22.105 127.726 20.9138C128.412 19.7173 129.359 18.7841 130.566 18.1167C131.778 17.444 133.14 17.1063 134.65 17.1063C135.961 17.1063 137.176 17.3935 138.298 17.9678Z" fill="#022179"/>
</svg>
