<svg width="64" height="94" viewBox="0 0 64 94" fill="none" xmlns="http://www.w3.org/2000/svg">
<mask id="mask0_688_40561" style="mask-type:luminance" maskUnits="userSpaceOnUse" x="7" y="0" width="27" height="82">
<path d="M7.09375 0H33.0265V81.4416H7.09375V0Z" fill="white"/>
</mask>
<g mask="url(#mask0_688_40561)">
<path d="M21.2208 31.7522C31.8119 12.638 31.522 0.003479 31.522 0.003479C28.986 9.78764 23.8057 17.5842 19.0377 25.1468C12.3658 35.7274 6.81881 45.805 8.1392 57.2588C9.67267 70.571 19.8026 79.6775 32.3149 81.2145C12.5754 69.4497 10.6263 50.8665 21.2208 31.7522Z" fill="#3871C1"/>
</g>
<mask id="mask1_688_40561" style="mask-type:luminance" maskUnits="userSpaceOnUse" x="26" y="0" width="38" height="94">
<path d="M26.7676 0H63.0434V93.2238H26.7676V0Z" fill="white"/>
</mask>
<g mask="url(#mask1_688_40561)">
<path d="M31.5213 0.003479C32.3142 13.4938 35.5384 21.7305 40.3519 30.0721C44.2886 36.8941 48.7143 43.503 53.451 47.8589C53.6326 47.0485 53.7653 46.053 53.9051 44.8094C54.5513 50.5975 55.0753 51.1284 60.8179 51.7817C57.9571 52.1065 56.3887 52.4034 55.4595 53.3326C55.8926 57.8107 55.2394 61.1222 54.8098 65.5095C53.2623 81.438 42.6328 89.5141 27.0117 92.9338C28.4823 93.126 29.9878 93.2238 31.5213 93.2238C48.9274 93.2238 63.043 80.6451 63.043 63.0993C63.043 40.7365 38.5354 27.0645 31.5213 0.003479Z" fill="#3871C1"/>
</g>
<mask id="mask2_688_40561" style="mask-type:luminance" maskUnits="userSpaceOnUse" x="0" y="0" width="58" height="94">
<path d="M0 0H57.1715V93.0666H0V0Z" fill="white"/>
</mask>
<g mask="url(#mask2_688_40561)">
<path d="M41.6796 80.2434C40.7295 71.7377 39.9575 70.9622 31.5217 70.0016C39.9575 69.0445 40.7295 68.2656 41.6796 59.7599C42.6333 68.2656 43.4052 69.0445 51.8411 70.0016C43.4052 70.9622 42.6333 71.7377 41.6796 80.2434ZM38.1691 36.1081C38.5882 39.8457 38.9271 40.1881 42.6333 40.6107C38.9271 41.0299 38.5882 41.3722 38.1691 45.1098C37.7499 41.3722 37.4111 41.0299 33.7014 40.6107C37.4111 40.1881 37.7499 39.8457 38.1691 36.1081ZM53.9055 58.7539C53.2558 52.9623 52.7318 52.4349 46.9891 51.7817C51.5022 51.2682 52.7912 50.8315 53.4514 47.8589C47.2511 33.4953 34.6306 19.7011 31.5217 0.003479C31.5217 0.003479 30.2642 11.5307 19.6731 30.6449C9.07856 49.7592 8.91089 73.2328 32.3146 81.2145C31.2318 81.3647 30.128 81.4555 29.0102 81.487C15.0727 79.695 4.35589 68.8629 4.35589 54.2548C4.35589 49.9652 5.34444 46.025 6.96524 42.2455C2.88879 48.7671 0 55.4215 0 63.0993C0 79.1047 11.7403 90.9707 27.0121 92.9338C42.3992 92.4832 55.2329 81.8258 56.7803 65.8973C57.2099 61.5134 56.6545 57.3706 55.4599 53.3326C54.5238 54.2687 54.2303 55.8511 53.9055 58.7539Z" fill="#00ADEF"/>
</g>
</svg>
