<svg width="50" height="50" viewBox="0 0 50 50" fill="none" xmlns="http://www.w3.org/2000/svg">
<rect width="50" height="50" rx="8" fill="#F6F6F6"/>
<path d="M21.9336 11.638V9.22607H17.0801V11.6381C14.1043 13.135 12.2266 16.1815 12.2266 19.5126V41.992C12.2266 43.3296 13.3109 44.4139 14.6484 44.4139H24.3652C25.7027 44.4139 26.787 43.3296 26.787 41.992V19.5125C26.7871 16.1815 24.9094 13.135 21.9336 11.638Z" fill="#D2F7FF"/>
<path d="M14.5703 41.992V19.5125C14.5703 16.2889 16.3289 13.3317 19.1394 11.7876C19.3145 11.6915 19.4238 11.5083 19.4238 11.3085V9.22607H17.0801V11.6381C14.1043 13.135 12.2266 16.1815 12.2266 19.5126V41.9921C12.2266 43.3297 13.3109 44.414 14.6484 44.414H16.9922C15.6546 44.4139 14.5703 43.3296 14.5703 41.992Z" fill="#99E6FC"/>
<path d="M15.8652 5.58594H23.1455V9.22609H15.8652V5.58594Z" fill="#01C1FF"/>
<path d="M15.8652 5.58594H18.209V9.22609H15.8652V5.58594Z" fill="#01A3EC"/>
<path d="M12.2266 20.1465H26.787V31.0669H12.2266V20.1465Z" fill="#01C1FF"/>
<path d="M12.2266 20.1465H14.5703V31.0669H12.2266V20.1465Z" fill="#01A3EC"/>
<path d="M21.5191 26.5982C21.5191 27.7097 20.6181 28.6107 19.5066 28.6107C18.3952 28.6107 17.4941 27.7097 17.4941 26.5982C17.4941 25.4868 19.5066 22.5732 19.5066 22.5732C19.5066 22.5732 21.5191 25.4868 21.5191 26.5982Z" fill="#D2F7FF"/>
<path d="M32.8535 15.2782V12.8662H28V15.2782C25.0242 16.7751 23.1465 19.8217 23.1465 23.1527V23.6434C23.1465 24.5355 23.3542 25.4154 23.7532 26.2134C24.1522 27.0114 24.3599 27.8912 24.3599 28.7834V33.3504C24.3599 34.2425 24.1522 35.1225 23.7532 35.9204C23.3542 36.7184 23.1465 37.5982 23.1465 38.4904V41.9922C23.1465 43.3298 24.2308 44.4141 25.5684 44.4141H35.2851C36.6227 44.4141 37.707 43.3298 37.707 41.9922V38.4977C37.707 37.6103 37.5014 36.7349 37.1065 35.9402L37.0941 35.9153C36.6991 35.1206 36.4936 34.2452 36.4936 33.3578V28.7834C36.4936 27.8913 36.7013 27.0114 37.1003 26.2134C37.4993 25.4154 37.707 24.5356 37.707 23.6434V23.1527C37.707 19.8217 35.8292 16.7751 32.8535 15.2782Z" fill="#D2F7FF"/>
<path d="M37.5445 37.1484L37.5459 37.1452C37.4452 36.7298 37.2983 36.3255 37.1068 35.9402L37.0944 35.9152C36.6995 35.1205 36.4939 34.2452 36.4939 33.3577V28.7834C36.4939 27.8913 36.7016 27.0113 37.1006 26.2134C37.2944 25.8258 37.443 25.4189 37.5447 25.0006L37.5445 25H23.3097L23.3094 25.0004C23.411 25.4188 23.5597 25.8257 23.7535 26.2134C24.1525 27.0113 24.3602 27.8912 24.3602 28.7834V33.3504C24.3602 34.2425 24.1525 35.1224 23.7535 35.9204C23.558 36.3116 23.4084 36.7224 23.3066 37.1448L23.3097 37.1484H37.5445Z" fill="#01C1FF"/>
<path d="M25.6527 25C25.5452 24.5573 25.4902 24.102 25.4902 23.6434V23.1527C25.4902 19.9291 27.2488 16.9719 30.0593 15.4279C30.2344 15.3317 30.3438 15.1485 30.3438 14.9487V12.8662H28V15.2782C25.0242 16.7751 23.1465 19.8217 23.1465 23.1527V23.6434C23.1465 24.1021 23.2014 24.5576 23.309 25.0004L23.3093 25H25.6527Z" fill="#99E6FC"/>
<path d="M25.6491 37.1485H23.3094L23.3063 37.1449V37.1448C23.2005 37.584 23.1465 38.0356 23.1465 38.4904V41.9922C23.1465 43.3298 24.2308 44.4141 25.5684 44.4141H27.9121C26.5745 44.4141 25.4902 43.3298 25.4902 41.9922V38.4904C25.4902 38.0368 25.544 37.5865 25.6491 37.1485Z" fill="#99E6FC"/>
<path d="M23.3097 37.1485H25.6495C25.7512 36.7248 25.9011 36.3127 26.0973 35.9204C26.4962 35.1224 26.704 34.2426 26.704 33.3504V28.7834C26.704 27.8913 26.4962 27.0113 26.0973 26.2134C25.9034 25.8256 25.7547 25.4184 25.653 25H23.3097L23.3094 25.0004C23.411 25.4188 23.5597 25.8257 23.7535 26.2134C24.1525 27.0113 24.3602 27.8912 24.3602 28.7834V33.3504C24.3602 34.2425 24.1525 35.1224 23.7535 35.9204C23.558 36.3116 23.4084 36.7224 23.3066 37.1447V37.1448L23.3097 37.1485Z" fill="#01A3EC"/>
<path d="M26.7871 9.22607H34.0673V12.8662H26.7871V9.22607Z" fill="#01C1FF"/>
<path d="M26.7871 9.22607H29.1309V12.8662H26.7871V9.22607Z" fill="#01A3EC"/>
<path d="M32.441 31.6939C32.441 32.8054 31.54 33.7064 30.4285 33.7064C29.317 33.7064 28.416 32.8054 28.416 31.6939C28.416 30.5825 30.4285 27.6689 30.4285 27.6689C30.4285 27.6689 32.441 30.5825 32.441 31.6939Z" fill="#D2F7FF"/>
<path d="M22.1052 26.5982C22.1052 25.3664 20.3422 22.7518 19.9887 22.2402C19.8794 22.0818 19.6991 21.9873 19.5066 21.9873C19.3141 21.9873 19.1339 22.0818 19.0245 22.2402C18.6712 22.7518 16.9082 25.3665 16.9082 26.5982C16.9082 28.0311 18.0738 29.1967 19.5066 29.1967C20.9395 29.1967 22.1052 28.0311 22.1052 26.5982ZM18.0802 26.5982C18.0802 26.0814 18.8088 24.7388 19.5067 23.6368C20.2047 24.7388 20.9334 26.0814 20.9334 26.5982C20.9334 27.3848 20.2934 28.0248 19.5067 28.0248C18.7201 28.0248 18.0802 27.3848 18.0802 26.5982Z" fill="black"/>
<path d="M35.9079 28.7836V29.7898C35.9079 30.1135 36.1702 30.3758 36.4938 30.3758C36.8175 30.3758 37.0798 30.1135 37.0798 29.7898C36.9873 28.6783 37.1232 27.478 37.6252 26.4748C39.6649 22.3867 37.205 17.0052 33.4399 14.9248V13.4521H34.0672C34.3909 13.4521 34.6531 13.1898 34.6531 12.8662V9.22609C34.6531 8.90242 34.3909 8.64016 34.0672 8.64016H26.7869C26.4632 8.64016 26.2009 8.90242 26.2009 9.22609V12.8663C26.2009 13.1899 26.4632 13.4522 26.7869 13.4522H27.414V14.9248C27.0905 15.1035 26.7789 15.3007 26.4804 15.5149C25.6404 13.722 24.2612 12.2462 22.5195 11.2848V9.81203H23.1467C23.4704 9.81203 23.7327 9.54977 23.7327 9.22609V5.58594C23.7327 5.26227 23.4704 5 23.1467 5H15.8666C15.5429 5 15.2806 5.26227 15.2806 5.58594V9.22609C15.2806 9.54977 15.5429 9.81203 15.8666 9.81203H16.4938V11.285C13.5477 12.9125 11.6406 16.144 11.6406 19.5125V24.3148C11.6406 24.6385 11.9029 24.9008 12.2266 24.9008C12.5502 24.9008 12.8125 24.6385 12.8125 24.3148V20.7328H22.8777C22.3921 22.5552 22.3691 24.7537 23.2289 26.4749C23.5898 27.2022 23.7716 27.9718 23.7742 28.7837V30.4813H12.8125V26.8688C12.8125 26.5451 12.5502 26.2828 12.2266 26.2828C11.9029 26.2828 11.6406 26.5451 11.6406 26.8688V41.9922C11.6406 43.6507 12.9899 45 14.6484 45H35.2852C36.9438 45 38.293 43.6507 38.293 41.9922V38.4977C38.3612 36.1719 37.0798 35.166 37.0798 33.3578V32.3438C37.0798 32.0201 36.8175 31.7578 36.4938 31.7578C36.1702 31.7578 35.9079 32.0201 35.9079 32.3438C35.8052 33.8399 36.1936 35.1939 36.7447 36.5626H24.1062C24.5599 35.4338 24.9461 34.5933 24.9461 33.3501V28.7837C24.9668 26.8201 24.5448 26.6536 24.1123 25.5859H36.7417C36.3091 26.652 35.9079 27.5903 35.9079 28.7836ZM27.3729 9.81203H33.4813V12.2803H27.3729V9.81203ZM16.4525 6.17188H22.5609V8.64016H16.4525V6.17188ZM12.8125 19.5609C12.7993 16.4761 14.5823 13.5501 17.3429 12.1616C17.5408 12.0622 17.6656 11.8597 17.6656 11.6382V9.81242H21.3477V11.6382C21.3477 11.8597 21.4725 12.0622 21.6704 12.1616C23.4179 13.0405 24.7803 14.4956 25.5414 16.2854C24.5784 17.1859 23.7777 18.3438 23.2742 19.5609H12.8125ZM23.7742 31.653V33.35C23.7742 33.6079 23.7545 33.8659 23.7157 34.121H12.8125V31.653H23.7742ZM12.8125 41.9922V38.9328H17.0165C17.3402 38.9328 17.6024 38.6705 17.6024 38.3469C17.6024 38.0232 17.3402 37.7609 17.0165 37.7609H12.8125V35.2929H23.3942C23.0679 36.0977 22.7048 36.8888 22.6034 37.7609H19.5703C19.2466 37.7609 18.9844 38.0232 18.9844 38.3469C18.9844 38.6705 19.2466 38.9328 19.5703 38.9328H22.5609V41.9922C22.5609 42.6828 22.795 43.3198 23.1878 43.8281H14.6484C13.6361 43.8281 12.8125 43.0045 12.8125 41.9922ZM37.1212 38.4977V41.9922C37.1212 43.0045 36.2976 43.8281 35.2852 43.8281C35.2852 43.8281 25.1085 43.7695 25.0998 43.7674C24.3139 43.5597 23.7328 42.8425 23.7328 41.9922C23.7328 41.9922 23.7351 38.3416 23.7351 38.3389C23.7411 38.137 23.7591 37.935 23.7888 37.7344H37.0638C37.1018 37.9871 37.1212 38.2425 37.1212 38.4977ZM23.7328 23.6437C23.6541 20.3947 25.3046 17.2895 28.2633 15.8015C28.4611 15.702 28.5859 15.4995 28.5859 15.278V13.4523H32.268V15.278C32.268 15.4995 32.3929 15.702 32.5907 15.8015C35.6952 17.3631 37.5843 20.9651 37.0634 24.414H23.7913C23.7526 24.159 23.7328 23.9013 23.7328 23.6437Z" fill="black"/>
<path d="M30.4266 27.083C30.2341 27.083 30.0539 27.1775 29.9445 27.3359C29.5912 27.8475 27.8281 30.4622 27.8281 31.6939C27.8281 33.1268 28.9938 34.2925 30.4266 34.2925C31.8595 34.2925 33.0251 33.1268 33.0251 31.6939C33.0251 30.4621 31.2622 27.8475 30.9088 27.3359C30.7993 27.1775 30.6191 27.083 30.4266 27.083ZM31.8531 31.694C31.8531 32.4807 31.2132 33.1207 30.4266 33.1207C29.6399 33.1207 28.9999 32.4807 28.9999 31.694C28.9999 31.1771 29.7286 29.8346 30.4266 28.7326C31.1245 29.8346 31.8531 31.1771 31.8531 31.694Z" fill="black"/>
</svg>
