<svg width="168" height="50" viewBox="0 0 168 50" fill="none" xmlns="http://www.w3.org/2000/svg">
<path d="M161.206 49.8792H6.34485C2.9379 49.8792 0.150391 47.0802 0.150391 43.6594V6.34065C0.150391 2.91977 2.9379 0.120869 6.34485 0.120869H161.206C164.613 0.120869 167.401 2.91977 167.401 6.34065V43.6594C167.401 47.0802 164.613 49.8792 161.206 49.8792Z" fill="black"/>
<path d="M161.206 0.120869H6.34485C2.9379 0.120869 0.150391 2.91977 0.150391 6.34065V43.6594C0.150391 47.0802 2.9379 49.8792 6.34485 49.8792H161.206C164.613 49.8792 167.401 47.0802 167.401 43.6594V6.34065C167.401 2.91977 164.613 0.120869 161.206 0.120869ZM161.206 1.11603C164.076 1.11603 166.41 3.46015 166.41 6.34065V43.6594C166.41 46.5404 164.076 48.8845 161.206 48.8845H6.34485C3.47607 48.8845 1.1415 46.5404 1.1415 43.6594V6.34065C1.1415 3.46015 3.47607 1.11603 6.34485 1.11603H161.206Z" fill="#A6A6A6"/>
<path d="M58.8965 12.8632C58.8965 13.9054 58.5891 14.7354 57.9735 15.3545C57.2743 16.0906 56.3629 16.459 55.2426 16.459C54.1697 16.459 53.2575 16.0858 52.5074 15.3384C51.7559 14.5916 51.3809 13.6654 51.3809 12.5604C51.3809 11.4549 51.7559 10.5293 52.5074 9.78192C53.2575 9.03505 54.1697 8.66137 55.2426 8.66137C55.775 8.66137 56.2846 8.76586 56.7685 8.97435C57.2525 9.18333 57.6406 9.46073 57.931 9.80817L57.2776 10.4646C56.7855 9.87423 56.108 9.57928 55.2426 9.57928C54.4601 9.57928 53.7836 9.85532 53.2126 10.4078C52.6414 10.9608 52.356 11.678 52.356 12.5604C52.356 13.4429 52.6414 14.16 53.2126 14.7131C53.7836 15.2655 54.4601 15.5416 55.2426 15.5416C56.0727 15.5416 56.7647 15.264 57.3187 14.7082C57.6784 14.3461 57.8864 13.8428 57.942 13.1965H55.2426V12.2999H58.8447C58.8795 12.4949 58.8965 12.682 58.8965 12.8632Z" fill="white"/>
<path d="M58.8973 12.8632H58.7734C58.7724 13.8816 58.4762 14.6727 57.8867 15.2665L57.8854 15.2675L57.8849 15.2685C57.2078 15.9793 56.3376 16.3331 55.2434 16.3346C54.1992 16.3331 53.3251 15.9755 52.5953 15.2505C51.8671 14.524 51.507 13.6372 51.5056 12.5604C51.507 11.4831 51.8671 10.5968 52.5953 9.87085C53.3251 9.14538 54.1992 8.78724 55.2434 8.78575C55.7598 8.78575 56.2515 8.88688 56.7205 9.08853C57.1899 9.29167 57.5607 9.55787 57.8369 9.88839L57.9318 9.80816L57.8443 9.72021L57.1909 10.3771L57.2785 10.4646L57.3739 10.385C56.8588 9.76536 56.1359 9.45301 55.2434 9.45487C54.432 9.45388 53.7181 9.74496 53.1277 10.3184C52.5315 10.8938 52.232 11.6512 52.2329 12.5604C52.232 13.4696 52.5315 14.2271 53.1277 14.8024C53.7181 15.3759 54.432 15.6669 55.2434 15.666C56.101 15.6674 56.8318 15.3754 57.4072 14.7962C57.7915 14.4093 58.0093 13.8734 58.0664 13.2071L58.0779 13.0721H55.3673V12.4243H58.8455V12.2999L58.7235 12.3218C58.7574 12.5104 58.7734 12.6897 58.7734 12.8632H58.8973H59.0212C59.0212 12.6741 59.0037 12.4798 58.9674 12.2777L58.9491 12.1755H55.1196V13.1964V13.3208H57.9429V13.1964L57.8195 13.1858C57.7648 13.8117 57.5664 14.283 57.232 14.6203C56.6996 15.1528 56.0464 15.4157 55.2434 15.4172C54.49 15.4162 53.8507 15.1557 53.2995 14.6236C52.7537 14.0935 52.4821 13.4166 52.4807 12.5604C52.4821 11.7042 52.7537 11.0274 53.2995 10.4972C53.8507 9.96514 54.49 9.70466 55.2434 9.70366C56.0812 9.70565 56.7138 9.98355 57.1837 10.5448L57.2708 10.6488L58.0194 9.8961L58.0997 9.81549L58.0266 9.72842C57.7222 9.36406 57.3167 9.07484 56.8182 8.86014C56.3188 8.64481 55.7918 8.53696 55.2434 8.53696C54.1421 8.53596 53.1916 8.9247 52.4206 9.69396C51.6468 10.4617 51.2568 11.4268 51.2578 12.5604C51.2568 13.6935 51.6468 14.6591 52.4211 15.4274C53.1916 16.1961 54.1421 16.5844 55.2434 16.5834C56.3904 16.5844 57.3419 16.2019 58.0639 15.4404L57.9743 15.3545L58.0619 15.4424C58.7037 14.7985 59.0221 13.9288 59.0212 12.8632H58.8973Z" fill="white"/>
<path d="M64.607 9.74547H61.2219V12.112H64.2746V13.0089H61.2219V15.3754H64.607V16.2923H60.2676V8.82855H64.607V9.74547Z" fill="white"/>
<path d="M64.6079 9.74547V9.62107H61.0989V12.2364H64.1516V12.8841L61.0989 12.8845V15.4998H64.484V16.1679H60.3923V8.95294H64.484V9.74547H64.6079V9.62107V9.74547H64.7318V8.82854V8.70415H60.1445V16.4167H64.7318V15.3754V15.251H61.3466V13.1333H64.3994V12.112V11.9876H61.3466V9.86986H64.7318V9.74547H64.6079Z" fill="white"/>
<path d="M68.6355 16.2923H67.6797V9.74547H65.6035V8.82855H70.7116V9.74547H68.6355V16.2923Z" fill="white"/>
<path d="M68.6344 16.2923V16.1679H67.8024V9.62107H65.7263V8.95294H70.5866V9.62107H68.5105V16.2923H68.6344V16.1679V16.2923H68.7582V9.86986H70.8344V8.82854V8.70415H65.4785V9.74547V9.86986H67.5547V16.4167H68.6344H68.7582V16.2923H68.6344Z" fill="white"/>
<path d="M74.4062 16.2923V8.82855H75.3611V16.2923H74.4062Z" fill="white"/>
<path d="M74.4071 16.2923H74.531V8.95294H75.238V16.1679H74.4071V16.2923H74.531H74.4071V16.4167H75.3619H75.4858V8.70415H74.4071H74.2832V16.4167H74.4071V16.2923Z" fill="white"/>
<path d="M79.5982 16.2923H78.6424V9.74547H76.5664V8.82855H81.6743V9.74547H79.5982V16.2923Z" fill="white"/>
<path d="M79.5991 16.2923V16.1679H78.7672V9.62107H76.6911V8.95294H81.5513V9.62107H79.4752V16.2923H79.5991V16.1679V16.2923H79.723V9.86986H81.7991V8.82854V8.70415H76.4434V9.74547V9.86986H78.5194V16.4167H79.5991H79.723V16.2923H79.5991Z" fill="white"/>
<path d="M86.5991 14.7029C87.1493 15.2622 87.8225 15.5416 88.6186 15.5416C89.4147 15.5416 90.0883 15.2622 90.6376 14.7029C91.1883 14.1436 91.4642 13.4287 91.4642 12.5604C91.4642 11.6921 91.1883 10.9772 90.6376 10.418C90.0883 9.85868 89.4147 9.57928 88.6186 9.57928C87.8225 9.57928 87.1493 9.85868 86.5991 10.418C86.0497 10.9772 85.774 11.6921 85.774 12.5604C85.774 13.4287 86.0497 14.1436 86.5991 14.7029ZM91.3441 15.3277C90.6133 16.0823 89.7045 16.459 88.6186 16.459C87.5316 16.459 86.6232 16.0823 85.894 15.3277C85.1627 14.574 84.7988 13.6514 84.7988 12.5604C84.7988 11.4695 85.1627 10.5467 85.894 9.79312C86.6232 9.03841 87.5316 8.66137 88.6186 8.66137C89.6988 8.66137 90.6051 9.0404 91.3393 9.79797C92.0725 10.5555 92.4393 11.4763 92.4393 12.5604C92.4393 13.6514 92.0733 14.574 91.3441 15.3277Z" fill="white"/>
<path d="M86.5999 14.7029L86.5118 14.7903C87.0824 15.372 87.7943 15.6674 88.6194 15.666C89.444 15.6674 90.1569 15.372 90.7265 14.7903C91.3009 14.2082 91.5898 13.4549 91.5889 12.5604C91.5898 11.6659 91.3009 10.9127 90.7265 10.3305C90.1569 9.74882 89.444 9.45338 88.6194 9.45488C87.7943 9.45338 87.0824 9.74882 86.5118 10.3305C85.9388 10.9127 85.6494 11.6659 85.6509 12.5604C85.6494 13.4549 85.9388 14.2082 86.5118 14.7903L86.5999 14.7029L86.688 14.6154C86.1625 14.0784 85.8997 13.4029 85.8987 12.5604C85.8997 11.7179 86.1625 11.0424 86.688 10.5054C87.2184 9.96851 87.8518 9.70516 88.6194 9.70367C89.3864 9.70516 90.0214 9.96851 90.5504 10.5054C91.0769 11.0424 91.3397 11.7179 91.3407 12.5604C91.3397 13.4029 91.0769 14.0784 90.5504 14.6154C90.0214 15.1523 89.3864 15.4157 88.6194 15.4172C87.8518 15.4157 87.2184 15.1523 86.688 14.6154L86.5999 14.7029ZM91.345 15.3277L91.2564 15.2413C90.546 15.9721 89.6773 16.3331 88.6194 16.3346C87.561 16.3331 86.6923 15.9721 85.9833 15.2413L85.98 15.2374L85.9833 15.2413C85.2744 14.508 84.9246 13.6236 84.9236 12.5604C84.9246 11.4972 85.2744 10.6129 85.9833 9.87956C86.6923 9.14874 87.561 8.78725 88.6194 8.78575C89.6705 8.78725 90.5372 9.15023 91.2516 9.88491C91.963 10.6216 92.3148 11.5045 92.3163 12.5604C92.3148 13.6236 91.9639 14.508 91.2564 15.2413L91.345 15.3277L91.4341 15.4142C92.1851 14.6397 92.5649 13.679 92.5641 12.5604C92.5649 11.4482 92.1836 10.4895 91.4291 9.7115C90.6743 8.93055 89.7286 8.53559 88.6194 8.53696C87.5044 8.53559 86.5559 8.92868 85.8058 9.70665V9.70615C85.0533 10.4811 84.6748 11.4418 84.6758 12.5604C84.6748 13.679 85.0533 14.6397 85.8058 15.4147L85.8091 15.4182L85.8058 15.4142C86.5559 16.1921 87.5044 16.5844 88.6194 16.5834C89.7339 16.5844 90.6824 16.1921 91.4341 15.4142L91.345 15.3277Z" fill="white"/>
<path d="M93.7793 16.2923V8.82855H94.9418L98.5544 14.6348H98.5955L98.5544 13.1965V8.82855H99.5102V16.2923H98.5132L94.7336 10.2046H94.6925L94.7336 11.6435V16.2923H93.7793Z" fill="white"/>
<path d="M93.7801 16.2923H93.904V8.95294H94.8738L98.4864 14.7592H98.5963H98.7236L98.6791 13.1946V8.95294H99.3871V16.1679H98.5828L94.8032 10.0802H94.6933H94.5661L94.6106 11.6455V16.1679H93.7801V16.2923H93.904H93.7801V16.4167H94.7344H94.8583V11.6415L94.8172 10.2013L94.6933 10.2046V10.329H94.7344V10.2046L94.6294 10.2708L98.4453 16.4167H99.511H99.6349V8.70415H98.5552H98.4313V13.1979L98.4724 14.6382L98.5963 14.6348V14.5104H98.5552V14.6348L98.6603 14.5688L95.0112 8.70415H93.7801H93.6562V16.4167H93.7801V16.2923Z" fill="white"/>
<path d="M132.632 37.4396H134.944V21.8886H132.632V37.4396ZM153.454 27.4904L150.804 34.2325H150.725L147.974 27.4904H145.484L149.608 36.9138L147.257 42.1554H149.669L156.025 27.4904H153.454ZM140.344 35.6733C139.586 35.6733 138.53 35.2933 138.53 34.3526C138.53 33.1523 139.846 32.6921 140.981 32.6921C141.998 32.6921 142.475 32.9122 143.093 33.2126C142.913 34.6529 141.678 35.6733 140.344 35.6733ZM140.623 27.1502C138.949 27.1502 137.216 27.8907 136.498 29.5312L138.55 30.3913C138.989 29.5312 139.805 29.2509 140.662 29.2509C141.858 29.2509 143.073 29.9715 143.093 31.2519V31.4117C142.674 31.1716 141.779 30.8116 140.682 30.8116C138.471 30.8116 136.219 32.0317 136.219 34.3126C136.219 36.3934 138.032 37.734 140.064 37.734C141.619 37.734 142.475 37.0338 143.014 36.2137H143.093V37.4138H145.324V31.4515C145.324 28.6911 143.273 27.1502 140.623 27.1502ZM126.336 29.3835H123.048V24.053H126.336C128.064 24.053 129.045 25.4897 129.045 26.7182C129.045 27.9233 128.064 29.3835 126.336 29.3835ZM126.276 21.8886H120.737V37.4396H123.048V31.5478H126.276C128.838 31.5478 131.357 29.6852 131.357 26.7182C131.357 23.7512 128.838 21.8886 126.276 21.8886ZM96.071 35.6761C94.4739 35.6761 93.1368 34.3335 93.1368 32.4895C93.1368 30.626 94.4739 29.263 96.071 29.263C97.6477 29.263 98.8851 30.626 98.8851 32.4895C98.8851 34.3335 97.6477 35.6761 96.071 35.6761ZM98.7254 28.3612H98.6455C98.1268 27.7401 97.1284 27.1789 95.8711 27.1789C93.2365 27.1789 90.8217 29.5035 90.8217 32.4895C90.8217 35.4556 93.2365 37.7603 95.8711 37.7603C97.1284 37.7603 98.1268 37.199 98.6455 36.5581H98.7254V37.3195C98.7254 39.3439 97.6477 40.4261 95.9113 40.4261C94.4942 40.4261 93.616 39.4037 93.2563 38.5421L91.2408 39.3838C91.8196 40.7866 93.3565 42.5102 95.9113 42.5102C98.6257 42.5102 100.921 40.9066 100.921 36.9988V27.4996H98.7254V28.3612ZM102.518 37.4396H104.833V21.8881H102.518V37.4396ZM108.246 32.3092C108.186 30.2649 109.823 29.2231 111 29.2231C111.919 29.2231 112.697 29.6837 112.956 30.3457L108.246 32.3092ZM115.431 30.5458C114.993 29.3631 113.655 27.1789 110.92 27.1789C108.206 27.1789 105.951 29.3232 105.951 32.4696C105.951 35.4357 108.186 37.7603 111.18 37.7603C113.595 37.7603 114.993 36.2772 115.571 35.4157L113.775 34.213C113.176 35.095 112.357 35.6761 111.18 35.6761C110.002 35.6761 109.164 35.1349 108.625 34.0731L115.67 31.1469L115.431 30.5458ZM59.2991 28.8023V31.0468H64.6481C64.4884 32.3092 64.0693 33.231 63.4305 33.8724C62.6523 34.6542 61.4348 35.5158 59.2991 35.5158C56.0058 35.5158 53.4313 32.8505 53.4313 29.5438C53.4313 26.2371 56.0058 23.5714 59.2991 23.5714C61.0756 23.5714 62.3726 24.273 63.3308 25.1749L64.9075 23.5918C63.5704 22.3089 61.7938 21.327 59.2991 21.327C54.7882 21.327 50.9961 25.0146 50.9961 29.5438C50.9961 34.0731 54.7882 37.7603 59.2991 37.7603C61.7343 37.7603 63.5704 36.959 65.0072 35.4556C66.4842 33.9725 66.9435 31.8884 66.9435 30.2052C66.9435 29.6837 66.9037 29.2032 66.8234 28.8023H59.2991ZM73.0247 35.6761C71.4277 35.6761 70.0504 34.3534 70.0504 32.4696C70.0504 30.5657 71.4277 29.263 73.0247 29.263C74.6212 29.263 75.9984 30.5657 75.9984 32.4696C75.9984 34.3534 74.6212 35.6761 73.0247 35.6761ZM73.0247 27.1789C70.1103 27.1789 67.7351 29.4034 67.7351 32.4696C67.7351 35.5158 70.1103 37.7603 73.0247 37.7603C75.9385 37.7603 78.3137 35.5158 78.3137 32.4696C78.3137 29.4034 75.9385 27.1789 73.0247 27.1789ZM84.5628 35.6761C82.9663 35.6761 81.5889 34.3534 81.5889 32.4696C81.5889 30.5657 82.9663 29.263 84.5628 29.263C86.1593 29.263 87.5366 30.5657 87.5366 32.4696C87.5366 34.3534 86.1593 35.6761 84.5628 35.6761ZM84.5628 27.1789C81.6485 27.1789 79.2738 29.4034 79.2738 32.4696C79.2738 35.5158 81.6485 37.7603 84.5628 37.7603C87.4766 37.7603 89.8518 35.5158 89.8518 32.4696C89.8518 29.4034 87.4766 27.1789 84.5628 27.1789Z" fill="white"/>
<path d="M13.1713 40.412L13.0792 40.3235C12.7187 39.9405 12.5059 39.3458 12.5059 38.5757V38.7569V11.2455C12.5059 11.2431 12.5059 11.2412 12.5059 11.2392C12.5059 11.2416 12.5059 11.2435 12.5059 11.246V11.4278C12.5059 10.5938 12.754 9.96563 13.1698 9.58896L28.5194 25.001L13.1713 40.412ZM12.5059 11.2377C12.5059 11.1692 12.5077 11.1026 12.5112 11.0371C12.5077 11.1021 12.5059 11.1692 12.5059 11.2377ZM12.5112 11.0341C12.5112 11.0332 12.5112 11.0322 12.5116 11.0312C12.5112 11.0322 12.5112 11.0332 12.5112 11.0341ZM12.5116 11.0254C12.5116 11.0249 12.5116 11.0244 12.5116 11.0239C12.5116 11.0244 12.5116 11.0249 12.5116 11.0254Z" fill="url(#paint0_linear_688_42100)"/>
<path d="M33.6353 30.3222L33.752 30.2557L39.8138 26.7973C40.3917 26.4674 40.7769 26.0675 40.969 25.6443C40.7774 26.0675 40.3921 26.4679 39.8138 26.7978L33.752 30.2561L33.6353 30.3222ZM33.6368 30.14L28.5195 25.0009L33.6363 19.8628L39.8138 23.3866C40.5982 23.8342 41.0387 24.411 41.1123 25.0004C41.1123 25.0009 41.1123 25.0019 41.1123 25.0028C41.0387 25.5908 40.5982 26.1681 39.8138 26.6156L33.6368 30.14Z" fill="url(#paint1_linear_688_42100)"/>
<path d="M14.2644 40.9989C13.8356 40.9989 13.4614 40.859 13.1697 40.5946L13.1702 40.5941C13.4619 40.8585 13.8366 40.9989 14.2654 40.9989C14.3025 40.9989 14.3403 40.9979 14.3786 40.996C14.3398 40.9979 14.3015 40.9989 14.2644 40.9989ZM14.2649 40.8167C13.8361 40.8172 13.4619 40.6767 13.1702 40.4124V40.412L28.5183 25.001L33.6356 30.14L15.6528 40.3993C15.1553 40.6826 14.6839 40.8167 14.2649 40.8167ZM13.1658 40.5913C13.1387 40.5665 13.1121 40.5403 13.0859 40.513L13.1658 40.5913Z" fill="url(#paint2_linear_688_42100)"/>
<path d="M28.5196 25.001L13.1699 9.58903C13.4617 9.32519 13.8353 9.18524 14.2636 9.18524C14.6837 9.18524 15.1555 9.31984 15.654 9.60359L33.6363 19.8629L28.5196 25.001ZM33.752 19.7468L15.654 9.42197C15.1555 9.1381 14.6837 9.0035 14.2636 9.0035C14.2616 9.0035 14.2603 9.0035 14.2583 9.0035C14.2608 9.0035 14.2626 9.0035 14.2656 9.0035C14.6847 9.0035 15.156 9.1376 15.654 9.42147L33.752 19.7468Z" fill="url(#paint3_linear_688_42100)"/>
<path d="M14.3786 40.996C14.7681 40.9736 15.1994 40.839 15.6528 40.581L33.6341 30.3223L15.6528 40.581C15.1997 40.8395 14.7681 40.9736 14.3786 40.996ZM13.1697 40.5946L13.1658 40.5912C13.1672 40.5922 13.1687 40.5936 13.1697 40.5946ZM13.0859 40.513L13.0781 40.5053V40.5048C13.0811 40.5077 13.0835 40.5105 13.0859 40.513Z" fill="black"/>
<path d="M33.6348 30.3222L33.7515 30.2556L33.6348 30.3222Z" fill="url(#paint4_linear_688_42100)"/>
<path d="M14.2654 40.9989C13.8366 40.9989 13.4619 40.8585 13.1702 40.5941L13.1697 40.5946C13.1687 40.5936 13.1672 40.5923 13.1658 40.5913L13.0859 40.513C13.0835 40.5105 13.0811 40.5077 13.0781 40.5048L13.1702 40.4124C13.4619 40.6767 13.8361 40.8172 14.2649 40.8167C14.6839 40.8167 15.1553 40.6826 15.6528 40.3993L33.6356 30.14L33.7508 30.2557L33.6341 30.3223L15.6528 40.5811C15.1994 40.8391 14.7681 40.9736 14.3786 40.996C14.3403 40.9979 14.3025 40.9989 14.2654 40.9989Z" fill="url(#paint5_linear_688_42100)"/>
<path d="M13.0792 40.5053C12.7187 40.1223 12.5059 39.5276 12.5059 38.7574V38.7569C12.5059 39.5276 12.7187 40.1218 13.0792 40.5048V40.5053Z" fill="black"/>
<path d="M13.0792 40.5048C12.7187 40.1218 12.5059 39.5276 12.5059 38.7569V38.5757C12.5059 39.3458 12.7187 39.9406 13.0792 40.3236L13.1713 40.412L13.0792 40.5048Z" fill="url(#paint6_linear_688_42100)"/>
<path d="M13.0781 40.5048L13.1702 40.412V40.4124L13.0781 40.5048Z" fill="url(#paint7_linear_688_42100)"/>
<path d="M40.9688 25.6443C41.064 25.4344 41.112 25.2187 41.112 25.0028C41.112 25.0025 41.112 25.002 41.112 25.002C41.112 25.2182 41.064 25.4339 40.9688 25.6443Z" fill="black"/>
<path d="M33.7519 30.2557L33.6367 30.1401L39.8137 26.6157C40.5982 26.1682 41.0386 25.5909 41.1122 25.0029C41.1122 25.2187 41.0642 25.4344 40.969 25.6444C40.7768 26.0676 40.3917 26.4675 39.8137 26.7974L33.7519 30.2557Z" fill="url(#paint8_linear_688_42100)"/>
<path d="M41.1127 25.001V25.0005C41.1122 24.3498 40.6791 23.6992 39.8142 23.2055L33.7524 19.7472H33.752L33.7524 19.7468L39.8142 23.205C40.6801 23.6987 41.1137 24.3503 41.1127 25.001Z" fill="#404040"/>
<path d="M41.1127 25.0005C41.0391 24.4111 40.5987 23.8343 39.8142 23.3867L33.6367 19.8628L33.7519 19.7471H33.7524L39.8142 23.2055C40.6791 23.6992 41.1122 24.3498 41.1127 25.0005Z" fill="url(#paint9_linear_688_42100)"/>
<path d="M12.5059 11.2392C12.5059 11.2387 12.5059 11.2382 12.5059 11.2377C12.5059 11.2382 12.5059 11.2387 12.5059 11.2392ZM12.5112 11.0371C12.5112 11.0361 12.5112 11.0351 12.5112 11.0341C12.5112 11.0351 12.5112 11.0361 12.5112 11.0371ZM12.5116 11.0312C12.5116 11.0292 12.5116 11.0274 12.5116 11.0254C12.5116 11.0274 12.5116 11.0292 12.5116 11.0312ZM12.5116 11.0239C12.5833 9.74595 13.2753 9.00779 14.2543 9.00343C13.8299 9.00592 13.4602 9.14587 13.1708 9.40772V9.40722L13.1673 9.4107C13.1368 9.43832 13.1078 9.46755 13.0792 9.49766C12.754 9.8431 12.5488 10.3606 12.5116 11.0239Z" fill="#404040"/>
<path d="M12.5059 11.4278V11.2461C12.5059 11.2436 12.5059 11.2416 12.5059 11.2392C12.5059 11.2387 12.5059 11.2382 12.5059 11.2377C12.5059 11.1692 12.5077 11.1021 12.5112 11.0371C12.5112 11.0361 12.5112 11.0351 12.5112 11.0341C12.5112 11.0332 12.5112 11.0322 12.5116 11.0312C12.5116 11.0292 12.5116 11.0274 12.5116 11.0254C12.5116 11.0249 12.5116 11.0244 12.5116 11.0239C12.5488 10.3606 12.754 9.84312 13.0792 9.49767L13.1698 9.58898C12.754 9.96565 12.5059 10.5938 12.5059 11.4278ZM13.1673 9.41072L13.1708 9.40723C13.1698 9.40873 13.1683 9.40972 13.1673 9.41072Z" fill="url(#paint10_linear_688_42100)"/>
<path d="M33.6351 19.8628L15.6528 9.60351C15.1543 9.31976 14.6825 9.18516 14.2624 9.18516C13.8341 9.18516 13.4604 9.32511 13.1687 9.58895L13.0781 9.49764C13.1067 9.46754 13.1357 9.43831 13.1662 9.41069C13.1672 9.40969 13.1687 9.4087 13.1697 9.40771C13.4591 9.14585 13.8288 9.00591 14.2532 9.00342C14.2542 9.00342 14.2556 9.00342 14.2571 9.00342C14.259 9.00342 14.2604 9.00342 14.2624 9.00342C14.6825 9.00342 15.1543 9.13801 15.6528 9.42188L33.7508 19.7467L33.7503 19.7471L33.6351 19.8628Z" fill="url(#paint11_linear_688_42100)"/>
<defs>
<linearGradient id="paint0_linear_688_42100" x1="27.1584" y1="10.9553" x2="6.28182" y2="31.7469" gradientUnits="userSpaceOnUse">
<stop stop-color="#00A0FF"/>
<stop offset="0.00657445" stop-color="#00A1FF"/>
<stop offset="0.2601" stop-color="#00BEFF"/>
<stop offset="0.5122" stop-color="#00D2FF"/>
<stop offset="0.7604" stop-color="#00DFFF"/>
<stop offset="1" stop-color="#00E3FF"/>
</linearGradient>
<linearGradient id="paint1_linear_688_42100" x1="42.0681" y1="25.0017" x2="12.0906" y2="25.0017" gradientUnits="userSpaceOnUse">
<stop stop-color="#FFE000"/>
<stop offset="0.4087" stop-color="#FFBD00"/>
<stop offset="0.7754" stop-color="#FFA500"/>
<stop offset="1" stop-color="#FF9C00"/>
</linearGradient>
<linearGradient id="paint2_linear_688_42100" x1="30.9077" y1="27.8562" x2="2.59752" y2="56.0511" gradientUnits="userSpaceOnUse">
<stop stop-color="#FF3A44"/>
<stop offset="1" stop-color="#C31162"/>
</linearGradient>
<linearGradient id="paint3_linear_688_42100" x1="9.19146" y1="0.340086" x2="21.8331" y2="12.9302" gradientUnits="userSpaceOnUse">
<stop stop-color="#32A071"/>
<stop offset="0.0685" stop-color="#2DA771"/>
<stop offset="0.4762" stop-color="#15CF74"/>
<stop offset="0.8009" stop-color="#06E775"/>
<stop offset="1" stop-color="#00F076"/>
</linearGradient>
<linearGradient id="paint4_linear_688_42100" x1="42.0672" y1="25.0014" x2="12.0909" y2="25.0014" gradientUnits="userSpaceOnUse">
<stop stop-color="#CCB300"/>
<stop offset="0.4087" stop-color="#CC9700"/>
<stop offset="0.7754" stop-color="#CC8400"/>
<stop offset="1" stop-color="#CC7D00"/>
</linearGradient>
<linearGradient id="paint5_linear_688_42100" x1="30.9076" y1="27.8562" x2="2.59751" y2="56.0511" gradientUnits="userSpaceOnUse">
<stop stop-color="#CC2E36"/>
<stop offset="1" stop-color="#9C0E4E"/>
</linearGradient>
<linearGradient id="paint6_linear_688_42100" x1="27.1583" y1="10.9553" x2="6.28179" y2="31.7469" gradientUnits="userSpaceOnUse">
<stop stop-color="#008DE0"/>
<stop offset="0.00657445" stop-color="#008DE0"/>
<stop offset="0.2601" stop-color="#00A7E0"/>
<stop offset="0.5122" stop-color="#00B8E0"/>
<stop offset="0.7604" stop-color="#00C4E0"/>
<stop offset="1" stop-color="#00C7E0"/>
</linearGradient>
<linearGradient id="paint7_linear_688_42100" x1="30.9077" y1="27.8559" x2="2.59678" y2="56.0508" gradientUnits="userSpaceOnUse">
<stop stop-color="#E0333C"/>
<stop offset="1" stop-color="#AB0F56"/>
</linearGradient>
<linearGradient id="paint8_linear_688_42100" x1="42.068" y1="25.0018" x2="12.0905" y2="25.0018" gradientUnits="userSpaceOnUse">
<stop stop-color="#E0C500"/>
<stop offset="0.4087" stop-color="#E0A600"/>
<stop offset="0.7754" stop-color="#E09100"/>
<stop offset="1" stop-color="#E08900"/>
</linearGradient>
<linearGradient id="paint9_linear_688_42100" x1="42.0685" y1="25.0017" x2="12.091" y2="25.0017" gradientUnits="userSpaceOnUse">
<stop stop-color="#FFE840"/>
<stop offset="0.4087" stop-color="#FFCE40"/>
<stop offset="0.7754" stop-color="#FFBC40"/>
<stop offset="1" stop-color="#FFB540"/>
</linearGradient>
<linearGradient id="paint10_linear_688_42100" x1="27.1584" y1="10.9553" x2="6.28181" y2="31.7469" gradientUnits="userSpaceOnUse">
<stop stop-color="#40B8FF"/>
<stop offset="0.00657445" stop-color="#40B9FF"/>
<stop offset="0.2601" stop-color="#40CEFF"/>
<stop offset="0.5122" stop-color="#40DDFF"/>
<stop offset="0.7604" stop-color="#40E7FF"/>
<stop offset="1" stop-color="#40EAFF"/>
</linearGradient>
<linearGradient id="paint11_linear_688_42100" x1="9.19023" y1="0.340004" x2="21.8318" y2="12.9301" gradientUnits="userSpaceOnUse">
<stop stop-color="#65B895"/>
<stop offset="0.0685" stop-color="#62BD95"/>
<stop offset="0.4762" stop-color="#50DB97"/>
<stop offset="0.8009" stop-color="#44ED98"/>
<stop offset="1" stop-color="#40F498"/>
</linearGradient>
</defs>
</svg>
