<svg width="150" height="50" viewBox="0 0 150 50" fill="none" xmlns="http://www.w3.org/2000/svg">
<path d="M137.32 0.000162499H12.4359C11.9807 0.000162499 11.5309 0.0001625 11.0769 0.00266249C10.6969 0.00516248 10.3198 0.012425 9.93613 0.0185374C9.10255 0.0284147 8.27093 0.102257 7.4485 0.239424C6.62723 0.379577 5.83168 0.643805 5.08876 1.02317C4.34676 1.40575 3.66876 1.90287 3.07938 2.49649C2.4869 3.08845 1.99303 3.77267 1.61675 4.52285C1.23942 5.27153 0.977788 6.07382 0.840874 6.90199C0.702659 7.72912 0.628284 8.56579 0.618416 9.40448C0.606896 9.78773 0.60568 10.1723 0.599609 10.5556V39.4483C0.60568 39.8364 0.606896 40.2124 0.618416 40.6007C0.628287 41.4393 0.702662 42.2759 0.840874 43.103C0.97741 43.9317 1.23906 44.7344 1.61675 45.4834C1.99286 46.2311 2.4868 46.9126 3.07938 47.5013C3.66653 48.0975 4.34496 48.595 5.08876 48.9746C5.83167 49.355 6.62714 49.6208 7.4485 49.7631C8.27107 49.8992 9.10261 49.9731 9.93613 49.9841C10.3198 49.9926 10.6969 49.9975 11.0769 49.9975C11.5309 50 11.9807 50 12.4359 50H137.32C137.766 50 138.22 50 138.666 49.9975C139.044 49.9975 139.432 49.9926 139.81 49.9841C140.642 49.9737 141.472 49.8998 142.293 49.7631C143.117 49.6198 143.915 49.3541 144.662 48.9746C145.405 48.5948 146.083 48.0973 146.67 47.5013C147.261 46.9103 147.756 46.2293 148.136 45.4834C148.511 44.7339 148.77 43.9312 148.905 43.103C149.043 42.2758 149.12 41.4394 149.135 40.6007C149.14 40.2124 149.14 39.8364 149.14 39.4483C149.15 38.9942 149.15 38.5425 149.15 38.081V11.9203C149.15 11.4625 149.15 11.0084 149.14 10.5556C149.14 10.1723 149.14 9.78773 149.135 9.40443C149.12 8.56566 149.043 7.72918 148.905 6.90194C148.77 6.07424 148.511 5.27202 148.136 4.5228C147.37 3.01915 146.155 1.79519 144.662 1.02306C143.915 0.64462 143.117 0.380462 142.293 0.239312C141.472 0.101541 140.642 0.0276721 139.81 0.0183624C139.432 0.0122625 139.044 0.00493748 138.666 0.00249999C138.22 0 137.766 0 137.32 0V0.000162499Z" fill="#A6A6A6"/>
<path d="M11.0832 48.9062C10.705 48.9062 10.3359 48.9013 9.96062 48.8928C9.18324 48.8826 8.40767 48.8144 7.64029 48.6889C6.92473 48.5648 6.23156 48.334 5.58362 48.004C4.94162 47.6768 4.35607 47.2478 3.84939 46.7333C3.33538 46.2249 2.90744 45.6352 2.58254 44.9877C2.25405 44.3359 2.02672 43.6373 1.90846 42.9162C1.78075 42.1413 1.71165 41.3578 1.70177 40.5724C1.6939 40.3088 1.68359 39.4311 1.68359 39.4311V10.5555C1.68359 10.5555 1.69457 9.6912 1.70183 9.43728C1.7113 8.65314 1.77999 7.87086 1.90732 7.0972C2.02579 6.37411 2.2533 5.67348 2.58197 5.01959C2.90568 4.37248 3.33124 3.78238 3.84215 3.27215C4.35249 2.75708 4.93992 2.32581 5.58301 1.99407C6.22946 1.66518 6.92133 1.43598 7.63543 1.31415C8.40534 1.18736 9.1836 1.11881 9.96368 1.10907L11.0838 1.09381H138.66L139.794 1.10969C140.567 1.11893 141.338 1.18687 142.101 1.31292C142.822 1.43628 143.521 1.66708 144.175 1.99773C145.463 2.66629 146.511 3.72401 147.173 5.02264C147.496 5.67202 147.72 6.36693 147.837 7.08378C147.966 7.86378 148.038 8.65221 148.053 9.44278C148.057 9.79678 148.057 10.177 148.057 10.5555C148.066 11.0242 148.066 11.4704 148.066 11.9202V38.0809C148.066 38.5351 148.066 38.9782 148.057 39.4249C148.057 39.8314 148.057 40.2038 148.052 40.5871C148.037 41.3635 147.966 42.1379 147.84 42.9039C147.724 43.6302 147.498 44.3343 147.169 44.9914C146.842 45.6319 146.417 46.2165 145.908 46.7235C145.401 47.2408 144.815 47.6723 144.171 48.0017C143.519 48.3342 142.821 48.5658 142.101 48.6889C141.333 48.8151 140.558 48.8833 139.78 48.8928C139.417 48.9013 139.036 48.9062 138.666 48.9062L137.32 48.9087L11.0832 48.9062Z" fill="black"/>
<path d="M31.3478 25.3759C31.3612 24.3326 31.6364 23.3096 32.1479 22.4021C32.6593 21.4947 33.3905 20.7323 34.2732 20.1858C33.7124 19.3794 32.9726 18.7157 32.1126 18.2475C31.2525 17.7793 30.2959 17.5195 29.3186 17.4887C27.234 17.2684 25.2131 18.7448 24.1508 18.7448C23.068 18.7448 21.4325 17.5106 19.6713 17.5471C18.5321 17.5841 17.4218 17.9177 16.4487 18.5153C15.4756 19.1129 14.6728 19.9541 14.1186 20.9569C11.7177 25.1424 13.5086 31.2937 15.8084 34.677C16.959 36.3337 18.3038 38.1842 20.0634 38.1186C21.7853 38.0467 22.4284 37.013 24.5069 37.013C26.566 37.013 27.1694 38.1186 28.9647 38.0769C30.8124 38.0467 31.9765 36.4128 33.0868 34.7404C33.9135 33.56 34.5497 32.2553 34.9717 30.8748C33.8983 30.4177 32.9822 29.6524 32.3378 28.6746C31.6934 27.6967 31.3491 26.5495 31.3478 25.3759Z" fill="white"/>
<path d="M27.956 15.2637C28.9635 14.046 29.4598 12.4807 29.3396 10.9005C27.8005 11.0632 26.3788 11.8039 25.3577 12.975C24.8585 13.547 24.4762 14.2126 24.2325 14.9335C23.9889 15.6545 23.8888 16.4167 23.9379 17.1767C24.7078 17.1847 25.4694 17.0166 26.1654 16.6853C26.8614 16.3539 27.4736 15.8679 27.956 15.2637Z" fill="white"/>
<path d="M53.1139 33.9246H47.2379L45.8267 38.1201H43.3379L48.9036 22.5977H51.4894L57.055 38.1201H54.5238L53.1139 33.9246ZM47.8464 31.9885H52.5041L50.208 25.1795H50.1438L47.8464 31.9885Z" fill="white"/>
<path d="M69.0753 32.4622C69.0753 35.9791 67.206 38.2386 64.3849 38.2386C63.6703 38.2762 62.9596 38.1105 62.3342 37.7603C61.7088 37.4101 61.194 36.8897 60.8487 36.2586H60.7953V41.864H58.4883V26.8031H60.7214V28.6854H60.7638C61.125 28.0573 61.6485 27.5396 62.2787 27.1873C62.9089 26.8349 63.6221 26.6612 64.3425 26.6846C67.195 26.6847 69.0753 28.9551 69.0753 32.4622ZM66.7041 32.4622C66.7041 30.171 65.5281 28.6646 63.7339 28.6646C61.9712 28.6646 60.7856 30.2027 60.7856 32.4622C60.7856 34.7425 61.9712 36.2696 63.7339 36.2696C65.5281 36.2696 66.7041 34.7742 66.7041 32.4622Z" fill="white"/>
<path d="M81.4445 32.4622C81.4445 35.979 79.5751 38.2386 76.7541 38.2386C76.0395 38.2762 75.3288 38.1104 74.7034 37.7603C74.078 37.4101 73.5631 36.8897 73.2178 36.2586H73.1644V41.864H70.8574V26.803H73.0905V28.6854H73.1329C73.4941 28.0573 74.0176 27.5395 74.6478 27.1872C75.278 26.8349 75.9912 26.6612 76.7116 26.6846C79.5642 26.6846 81.4445 28.9551 81.4445 32.4622ZM79.0732 32.4622C79.0732 30.171 77.8973 28.6646 76.1031 28.6646C74.3404 28.6646 73.1548 30.2027 73.1548 32.4622C73.1548 34.7425 74.3404 36.2696 76.1031 36.2696C77.8973 36.2696 79.0732 34.7742 79.0732 32.4622H79.0732Z" fill="white"/>
<path d="M89.6214 33.7952C89.7923 35.3345 91.2774 36.3452 93.3068 36.3452C95.2513 36.3452 96.6503 35.3344 96.6503 33.9465C96.6503 32.7417 95.8065 32.0203 93.8086 31.5259L91.8108 31.0412C88.9801 30.3528 87.6659 29.0198 87.6659 26.8567C87.6659 24.1785 89.9838 22.3389 93.2752 22.3389C96.5327 22.3389 98.7657 24.1785 98.8409 26.8567H96.512C96.3726 25.3076 95.1009 24.3726 93.2425 24.3726C91.384 24.3726 90.1123 25.3186 90.1123 26.6956C90.1123 27.793 90.9246 28.4387 92.9115 28.933L94.6099 29.353C97.7728 30.1061 99.087 31.3855 99.087 33.6559C99.087 36.56 96.7897 38.3788 93.1358 38.3788C89.7171 38.3788 87.4089 36.6027 87.2598 33.7951L89.6214 33.7952Z" fill="white"/>
<path d="M104.065 24.1248V26.803H106.203V28.6426H104.065V34.8816C104.065 35.8508 104.493 36.3025 105.433 36.3025C105.687 36.298 105.94 36.2801 106.192 36.2487V38.0773C105.769 38.1568 105.34 38.1928 104.91 38.1847C102.635 38.1847 101.747 37.3241 101.747 35.1293V28.6426H100.113V26.803H101.747V24.1248H104.065Z" fill="white"/>
<path d="M107.441 32.4622C107.441 28.9014 109.524 26.6639 112.772 26.6639C116.031 26.6639 118.104 28.9014 118.104 32.4622C118.104 36.0327 116.041 38.2605 112.772 38.2605C109.503 38.2605 107.441 36.0327 107.441 32.4622ZM115.753 32.4622C115.753 30.0196 114.641 28.5779 112.772 28.5779C110.903 28.5779 109.792 30.0306 109.792 32.4622C109.792 34.9146 110.903 36.3452 112.772 36.3452C114.641 36.3452 115.753 34.9146 115.753 32.4622H115.753Z" fill="white"/>
<path d="M120.004 26.803H122.204V28.7293H122.258C122.406 28.1276 122.756 27.596 123.249 27.2236C123.741 26.8513 124.346 26.6609 124.961 26.6846C125.227 26.6836 125.492 26.7127 125.751 26.7713V28.9441C125.416 28.8408 125.066 28.7934 124.715 28.8037C124.38 28.79 124.046 28.8495 123.735 28.9781C123.425 29.1068 123.146 29.3014 122.918 29.5488C122.69 29.7961 122.517 30.0903 122.412 30.4112C122.308 30.732 122.273 31.0719 122.311 31.4075V38.1201H120.004L120.004 26.803Z" fill="white"/>
<path d="M136.388 34.7961C136.078 36.8505 134.091 38.2605 131.549 38.2605C128.279 38.2605 126.25 36.0546 126.25 32.5158C126.25 28.9661 128.29 26.6638 131.452 26.6638C134.562 26.6638 136.517 28.8147 136.517 32.2461V33.042H128.579V33.1823C128.542 33.5988 128.594 34.0184 128.731 34.4132C128.868 34.808 129.086 35.169 129.372 35.4722C129.658 35.7754 130.005 36.0138 130.389 36.1717C130.774 36.3296 131.187 36.4033 131.602 36.3879C132.147 36.4393 132.695 36.3122 133.162 36.0254C133.63 35.7386 133.993 35.3075 134.198 34.7961L136.388 34.7961ZM128.59 31.4184H134.209C134.229 31.0439 134.173 30.6692 134.043 30.3177C133.913 29.9662 133.712 29.6455 133.454 29.3758C133.195 29.1061 132.883 28.8932 132.539 28.7504C132.194 28.6076 131.824 28.5381 131.452 28.5461C131.076 28.5439 130.704 28.6166 130.356 28.76C130.009 28.9034 129.693 29.1147 129.426 29.3818C129.16 29.6488 128.949 29.9663 128.806 30.3159C128.662 30.6654 128.589 31.0402 128.59 31.4184V31.4184Z" fill="white"/>
<path d="M47.5564 10.9139C48.0401 10.8789 48.5254 10.9525 48.9774 11.1293C49.4294 11.3061 49.8368 11.5817 50.1702 11.9362C50.5037 12.2907 50.7548 12.7153 50.9055 13.1794C51.0562 13.6435 51.1027 14.1355 51.0418 14.6199C51.0418 17.0027 49.7628 18.3724 47.5564 18.3724H44.8809V10.9139H47.5564ZM46.0313 17.3176H47.4279C47.7735 17.3384 48.1194 17.2813 48.4403 17.1506C48.7613 17.0198 49.0492 16.8186 49.2832 16.5617C49.5172 16.3047 49.6914 15.9984 49.793 15.6652C49.8946 15.3319 49.9211 14.98 49.8707 14.6351C49.9175 14.2916 49.8882 13.9418 49.7851 13.611C49.6819 13.2802 49.5073 12.9764 49.2738 12.7215C49.0404 12.4666 48.7538 12.2668 48.4347 12.1366C48.1155 12.0063 47.7717 11.9487 47.4279 11.9679H46.0313V17.3176Z" fill="white"/>
<path d="M52.3406 15.5555C52.3055 15.1856 52.3475 14.8124 52.464 14.4598C52.5805 14.1073 52.7689 13.7831 53.0171 13.5081C53.2653 13.2331 53.5678 13.0134 53.9053 12.8631C54.2428 12.7127 54.6077 12.6351 54.9767 12.6351C55.3458 12.6351 55.7107 12.7127 56.0482 12.8631C56.3857 13.0134 56.6882 13.2331 56.9364 13.5081C57.1846 13.7831 57.373 14.1073 57.4895 14.4598C57.606 14.8124 57.648 15.1856 57.6129 15.5555C57.6487 15.9258 57.6072 16.2995 57.491 16.6527C57.3748 17.0058 57.1865 17.3306 56.9383 17.6061C56.69 17.8817 56.3872 18.1018 56.0494 18.2525C55.7116 18.4032 55.3462 18.481 54.9767 18.481C54.6073 18.481 54.2419 18.4032 53.9041 18.2525C53.5663 18.1018 53.2635 17.8817 53.0152 17.6061C52.767 17.3306 52.5787 17.0058 52.4625 16.6527C52.3463 16.2995 52.3048 15.9258 52.3406 15.5555ZM56.4782 15.5555C56.4782 14.3355 55.9338 13.622 54.9786 13.622C54.0196 13.622 53.4802 14.3355 53.4802 15.5555C53.4802 16.7854 54.0197 17.4934 54.9786 17.4934C55.9339 17.4934 56.4782 16.7805 56.4782 15.5555H56.4782Z" fill="white"/>
<path d="M64.622 18.3722H63.4776L62.3223 14.2267H62.235L61.0845 18.3722H59.951L58.4102 12.7436H59.5291L60.5305 17.0386H60.6129L61.7622 12.7436H62.8205L63.9698 17.0386H64.0571L65.0536 12.7436H66.1567L64.622 18.3722Z" fill="white"/>
<path d="M67.4531 12.7436H68.5151V13.6377H68.5975C68.7374 13.3166 68.9733 13.0474 69.2723 12.8676C69.5713 12.6879 69.9186 12.6065 70.2657 12.6349C70.5376 12.6143 70.8108 12.6556 71.0647 12.7558C71.3187 12.8559 71.5471 13.0123 71.7329 13.2133C71.9187 13.4144 72.0572 13.6549 72.1382 13.9172C72.2191 14.1795 72.2404 14.4567 72.2005 14.7284V18.3722H71.0973V15.0074C71.0973 14.1028 70.7069 13.653 69.8911 13.653C69.7064 13.6443 69.522 13.676 69.3507 13.7458C69.1793 13.8156 69.0249 13.9218 68.8981 14.0573C68.7714 14.1928 68.6752 14.3543 68.6162 14.5307C68.5572 14.7071 68.5368 14.8943 68.5563 15.0794V18.3722H67.4531L67.4531 12.7436Z" fill="white"/>
<path d="M73.957 10.5463H75.0602V18.3722H73.957V10.5463Z" fill="white"/>
<path d="M76.5945 15.5555C76.5594 15.1856 76.6014 14.8124 76.7179 14.4598C76.8344 14.1072 77.0229 13.783 77.2711 13.508C77.5193 13.233 77.8219 13.0133 78.1594 12.863C78.4969 12.7126 78.8619 12.6349 79.2309 12.6349C79.6 12.6349 79.965 12.7126 80.3024 12.863C80.6399 13.0133 80.9425 13.233 81.1907 13.508C81.439 13.783 81.6274 14.1072 81.7439 14.4598C81.8604 14.8124 81.9025 15.1856 81.8674 15.5555C81.9031 15.9258 81.8616 16.2995 81.7453 16.6527C81.6291 17.0058 81.4408 17.3306 81.1925 17.6061C80.9442 17.8816 80.6414 18.1018 80.3036 18.2524C79.9658 18.4031 79.6004 18.4809 79.2309 18.4809C78.8614 18.4809 78.496 18.4031 78.1582 18.2524C77.8204 18.1018 77.5176 17.8816 77.2693 17.6061C77.021 17.3306 76.8327 17.0058 76.7165 16.6527C76.6003 16.2995 76.5587 15.9258 76.5945 15.5555ZM80.732 15.5555C80.732 14.3354 80.1877 13.6219 79.2324 13.6219C78.2735 13.6219 77.7341 14.3354 77.7341 15.5555C77.7341 16.7854 78.2735 17.4934 79.2324 17.4934C80.1877 17.4934 80.732 16.7805 80.732 15.5555H80.732Z" fill="white"/>
<path d="M83.0293 16.7804C83.0293 15.7673 83.7785 15.1832 85.1084 15.1001L86.6226 15.0123V14.5264C86.6226 13.9319 86.2322 13.5962 85.4781 13.5962C84.8623 13.5962 84.4356 13.8239 84.3131 14.2219H83.2451C83.3578 13.2551 84.261 12.6349 85.5291 12.6349C86.9305 12.6349 87.7209 13.3374 87.7209 14.5264V18.3722H86.6589V17.5812H86.5716C86.3945 17.865 86.1457 18.0963 85.8507 18.2515C85.5557 18.4068 85.2251 18.4804 84.8926 18.465C84.6579 18.4895 84.4208 18.4643 84.1964 18.391C83.972 18.3176 83.7653 18.1977 83.5898 18.039C83.4142 17.8803 83.2736 17.6863 83.1771 17.4695C83.0806 17.2527 83.0302 17.018 83.0293 16.7804ZM86.6226 16.2995V15.8289L85.2575 15.9168C84.4877 15.9687 84.1385 16.2323 84.1385 16.7285C84.1385 17.2351 84.575 17.5299 85.1751 17.5299C85.3509 17.5479 85.5286 17.53 85.6974 17.4774C85.8662 17.4248 86.0228 17.3385 86.1579 17.2237C86.2929 17.1089 86.4037 16.9679 86.4835 16.8091C86.5633 16.6503 86.6106 16.477 86.6226 16.2995Z" fill="white"/>
<path d="M89.1699 15.5555C89.1699 13.7769 90.0779 12.6502 91.4903 12.6502C91.8396 12.634 92.1863 12.7183 92.4899 12.8931C92.7934 13.068 93.0413 13.3263 93.2045 13.6377H93.2869V10.5463H94.3901V18.3722H93.333V17.4829H93.2457C93.0699 17.7923 92.8134 18.0473 92.504 18.2204C92.1946 18.3935 91.844 18.4781 91.4903 18.465C90.0682 18.465 89.1699 17.3383 89.1699 15.5555ZM90.3095 15.5555C90.3095 16.7493 90.8684 17.4677 91.8031 17.4677C92.7329 17.4677 93.3075 16.739 93.3075 15.5604C93.3075 14.3873 92.7269 13.6481 91.8031 13.6481C90.8744 13.6481 90.3095 14.3714 90.3095 15.5555H90.3095Z" fill="white"/>
<path d="M98.9539 15.5555C98.9187 15.1856 98.9608 14.8124 99.0772 14.4598C99.1937 14.1073 99.3821 13.7831 99.6303 13.5081C99.8785 13.2331 100.181 13.0134 100.519 12.8631C100.856 12.7127 101.221 12.6351 101.59 12.6351C101.959 12.6351 102.324 12.7127 102.661 12.8631C102.999 13.0134 103.301 13.2331 103.55 13.5081C103.798 13.7831 103.986 14.1073 104.103 14.4598C104.219 14.8124 104.261 15.1856 104.226 15.5555C104.262 15.9258 104.22 16.2995 104.104 16.6527C103.988 17.0058 103.8 17.3306 103.552 17.6061C103.303 17.8817 103 18.1018 102.663 18.2525C102.325 18.4032 101.959 18.481 101.59 18.481C101.221 18.481 100.855 18.4032 100.517 18.2525C100.18 18.1018 99.8768 17.8817 99.6285 17.6061C99.3802 17.3306 99.192 17.0058 99.0758 16.6527C98.9596 16.2995 98.9181 15.9258 98.9539 15.5555ZM103.091 15.5555C103.091 14.3355 102.547 13.622 101.592 13.622C100.633 13.622 100.093 14.3355 100.093 15.5555C100.093 16.7854 100.633 17.4934 101.592 17.4934C102.547 17.4934 103.091 16.7805 103.091 15.5555Z" fill="white"/>
<path d="M105.707 12.7436H106.769V13.6377H106.851C106.991 13.3166 107.227 13.0474 107.526 12.8676C107.825 12.6879 108.172 12.6065 108.52 12.6349C108.792 12.6143 109.065 12.6556 109.319 12.7558C109.573 12.8559 109.801 13.0123 109.987 13.2133C110.173 13.4144 110.311 13.6549 110.392 13.9172C110.473 14.1795 110.494 14.4567 110.454 14.7284V18.3722H109.351V15.0074C109.351 14.1028 108.961 13.653 108.145 13.653C107.96 13.6443 107.776 13.676 107.605 13.7458C107.433 13.8156 107.279 13.9218 107.152 14.0573C107.025 14.1928 106.929 14.3543 106.87 14.5307C106.811 14.7071 106.791 14.8943 106.81 15.0794V18.3722H105.707V12.7436Z" fill="white"/>
<path d="M116.689 11.3422V12.7692H117.9V13.7049H116.689V16.5992C116.689 17.1888 116.93 17.4469 117.479 17.4469C117.62 17.4465 117.761 17.4379 117.9 17.4213V18.3466C117.702 18.3823 117.501 18.4013 117.3 18.4033C116.073 18.4033 115.585 17.9688 115.585 16.8836V13.7048H114.697V12.7692H115.585V11.3422H116.689Z" fill="white"/>
<path d="M119.406 10.5463H120.5V13.6481H120.587C120.734 13.324 120.976 13.0532 121.281 12.8728C121.586 12.6924 121.939 12.611 122.291 12.6398C122.562 12.625 122.833 12.6705 123.084 12.773C123.335 12.8756 123.56 13.0327 123.744 13.2331C123.928 13.4335 124.066 13.6723 124.147 13.9325C124.229 14.1927 124.253 14.4678 124.217 14.7382V18.3722H123.112V15.0122C123.112 14.1132 122.696 13.6579 121.917 13.6579C121.727 13.6422 121.537 13.6685 121.358 13.7348C121.18 13.8011 121.018 13.9059 120.884 14.0418C120.75 14.1777 120.647 14.3415 120.582 14.5217C120.517 14.7018 120.493 14.8941 120.509 15.0849V18.3722H119.406L119.406 10.5463Z" fill="white"/>
<path d="M130.649 16.8524C130.499 17.3669 130.175 17.8118 129.732 18.1095C129.289 18.4072 128.756 18.5386 128.227 18.4808C127.859 18.4906 127.493 18.4196 127.155 18.2727C126.816 18.1258 126.514 17.9065 126.268 17.6301C126.022 17.3537 125.839 17.0267 125.732 16.6719C125.624 16.3172 125.595 15.9431 125.645 15.5756C125.596 15.207 125.626 14.8321 125.733 14.4762C125.841 14.1204 126.023 13.7919 126.267 13.5131C126.512 13.2342 126.813 13.0115 127.15 12.86C127.487 12.7085 127.853 12.6317 128.222 12.6349C129.778 12.6349 130.716 13.7049 130.716 15.4724V15.86H126.769V15.9223C126.751 16.1288 126.777 16.3367 126.844 16.5327C126.912 16.7286 127.019 16.9083 127.159 17.0601C127.299 17.2119 127.469 17.3325 127.658 17.4143C127.848 17.496 128.052 17.5371 128.257 17.5348C128.521 17.5667 128.789 17.5188 129.025 17.3973C129.262 17.2758 129.458 17.0861 129.587 16.8524L130.649 16.8524ZM126.769 15.0385H129.592C129.606 14.8496 129.581 14.6598 129.517 14.4814C129.454 14.303 129.354 14.1399 129.225 14.0026C129.095 13.8653 128.939 13.7568 128.765 13.6841C128.591 13.6113 128.404 13.576 128.216 13.5804C128.025 13.5779 127.836 13.614 127.659 13.6864C127.483 13.7589 127.322 13.8662 127.187 14.0021C127.052 14.138 126.946 14.2997 126.874 14.4777C126.802 14.6557 126.766 14.8464 126.769 15.0385H126.769Z" fill="white"/>
</svg>
