<svg width="576" height="558" viewBox="0 0 576 558" fill="none" xmlns="http://www.w3.org/2000/svg">
<g clip-path="url(#clip0_1113_33698)">
<rect width="576" height="558" fill="#F8FAFD"/>
<g opacity="0.08">
<path d="M127.806 -140.02C98.4583 -216.377 -46.7326 -254.084 -22.773 -102.049C-18.8445 -77.1208 -18.4493 -34.196 -22.773 18.0522C-26.7338 65.9146 -104.272 92.1036 -128.073 153.947C-165.401 250.936 -25.8351 318.538 -48.045 369.523C-77.1345 436.3 -166.205 465.274 -215.472 501.808C-261.852 536.201 -291.395 591.386 -302.738 648.122C-322.638 747.659 -286.524 851.969 -187.041 857.159C-137.241 859.757 -71.5601 837.516 10.9228 777.402C47.8012 750.525 80.32 728.375 109.221 710.465C183.607 664.367 163.608 773.406 252.06 777.402C302.46 779.679 355.099 685.545 394.948 735.756C423.282 771.46 455.797 814.78 502.232 859.318C583.779 937.533 685.736 949.049 700.157 837.42C706.964 784.725 694.265 704.588 650.705 591.073C622.829 518.429 692.167 520.99 700.157 427.9C708.146 334.811 642.817 291.881 690.109 253.353L691.055 252.581C727.102 223.218 765.547 191.901 786.542 131.749C804.628 79.9352 802.9 28.6166 786.542 -10.8165C769.036 -53.0187 734.773 -81.6077 690.109 -82.6218C645.293 -83.6393 590.005 -56.8956 530.663 11.713C491.538 56.9477 465.042 -48.3067 394.948 -37.5471C324.854 -26.7876 315.111 74.7697 273.12 45.314C200.179 -5.85275 162.177 -50.5915 127.806 -140.02Z" stroke="#3871C1" stroke-width="1.13997"/>
<path d="M269.388 276.493C264.922 264.771 244.107 267.848 243.054 280.552C241.854 295.017 249.166 313.866 248.321 328.365C246.689 356.36 236.799 364.328 217.107 379.083C210.048 384.363 205.552 392.835 203.826 401.545C200.798 416.825 206.294 432.839 221.434 433.636C229.013 434.034 239.008 430.62 251.561 421.392C257.173 417.265 262.122 413.865 266.52 411.116C285.667 398.188 303.487 408.318 310.004 414.998C314.316 420.479 319.264 427.13 326.331 433.967C338.741 445.974 357.535 444.401 356.452 430.605C354.923 411.116 321.648 338.366 356.452 325.681C372.619 319.788 372.088 306.44 369.599 300.387C366.935 293.908 361.72 289.519 354.923 289.364C348.103 289.207 336.804 300.387 330.658 303.846C307.967 316.613 287.721 323.213 269.388 276.493Z" stroke="#3871C1" stroke-width="1.13997"/>
<path d="M1.50385 -68.786C-19.7603 -207.19 112.92 -172.689 139.826 -102.689C172.767 -17.1096 209.185 22.999 277.617 68.3994C316.103 95.0426 325.364 2.31371 389.545 -7.76494C453.727 -17.8436 478.247 77.6701 514.156 36.5218C568.768 -25.8855 619.547 -49.8214 660.566 -48.3111C701.319 -47.1153 732.563 -20.6669 748.348 18.1653C763.088 54.4781 764.304 101.603 747.113 149.01C724.677 205.361 692.277 240.436 659.371 269.115C616.39 304.791 675.429 344.196 667.603 428.946C659.778 513.696 595.98 511.131 620.779 576.682C659.77 679.343 670.875 751.653 664.288 799.102C650.871 900.362 557.55 889.505 482.655 818.186C439.708 777.507 409.283 738.156 382.631 706.256C345.974 660.82 297.628 746.772 251.26 745.073C170.209 741.854 187.893 642.933 119.755 685.051C93.0024 701.522 63.0146 721.743 29.1152 746.178C-47.311 800.799 -107.572 819.589 -152.609 815.847C-243.048 810.732 -275.766 715.441 -257.457 624.531C-246.934 572.563 -219.791 522.044 -177.27 490.515C-130.651 455.944 -48.7089 428.865 -22.0927 365.583C-1.84601 318.541 -128.981 256.284 -95.1599 167.29C-73.6466 110.272 -3.23575 85.6929 0.422638 41.4943C4.4046 -6.61533 4.54227 -46.025 1.50385 -68.786Z" stroke="#3871C1" stroke-width="1.13997"/>
<path d="M26.8676 -34.1216C8.33018 -158.442 128.306 -127.259 152.731 -63.8468C184.194 17.5939 218.976 52.9421 282.798 92.4296C317.723 116.173 326.489 32.5776 384.664 23.2135C442.839 13.8493 465.347 99.3097 497.988 62.3826C547.79 6.38123 593.987 -14.6693 631.149 -12.6722C667.93 -11.2992 696.109 12.921 710.15 48.255C723.25 81.3276 723.954 124.103 707.683 166.947C684.021 218.784 658.205 257.469 628.759 285.14C590.153 317.846 642.815 353.596 635.165 429.729C627.515 505.862 569.349 503.301 591.035 561.545C625.4 653.018 634.894 717.265 628.538 759.312C616.143 849.873 531.594 839.712 463.461 775.522C424.065 738.835 395.774 703.583 370.844 675.589C337.431 635.078 293.45 712.565 251.182 711.449C177.65 709.016 192.993 620.538 131.202 658.536C106.637 673.515 79.2241 691.739 48.3531 713.652C-21.905 762.601 -76.6584 777.882 -116.866 773.011C-198.128 767.989 -227.401 682.03 -210.711 600.047C-201.023 553.017 -176.32 507.331 -137.72 478.769C-93.8182 446.278 -19.1232 421.182 4.98088 361.609C23.2348 318.667 -91.2825 261.959 -61.0186 181.253C-41.8249 129.249 21.3558 106.362 24.7065 65.9737C28.3409 22.1617 29.0114 -13.6031 26.8676 -34.1216Z" stroke="#3871C1" stroke-width="1.13997"/>
<path d="M51.1374 -0.85688C35.2984 -111.547 142.755 -83.5697 164.737 -26.5146C194.771 51.0752 227.972 81.7934 287.284 115.515C318.701 136.446 326.986 61.6792 379.244 52.996C431.502 44.3129 452.034 120.033 481.456 87.1919C526.526 37.3919 568.212 19.1491 601.575 21.6388C634.44 23.1933 659.598 45.2728 671.916 77.2365C683.397 107.189 683.588 145.77 668.211 184.207C643.287 231.716 624.016 274.136 597.986 300.897C563.695 330.751 610.06 362.976 602.573 430.77C595.086 498.563 542.463 495.998 561.069 547.149C590.861 627.768 598.758 684.188 592.623 720.988C581.232 801.181 505.324 791.679 443.848 734.385C407.941 701.557 381.74 670.275 358.493 646.084C328.273 610.349 288.589 679.654 250.355 679.114C184.228 677.458 197.253 599.099 141.715 633.116C119.299 646.656 94.4186 662.951 66.5285 682.422C2.32947 725.878 -47.001 737.709 -82.4402 731.693C-154.65 726.747 -180.525 649.807 -165.427 576.452C-156.56 534.19 -134.257 493.171 -99.519 467.472C-58.2656 436.945 9.29736 413.744 30.9264 357.668C47.2156 318.67 -54.8608 267.306 -28.1071 194.596C-11.2035 147.417 44.8443 126.141 47.8923 89.4165C51.1848 49.7435 52.3894 17.494 51.1374 -0.85688Z" stroke="#3871C1" stroke-width="1.13997"/>
<path d="M76.4912 32.4067C63.379 -64.6481 158.126 -39.8775 177.624 10.8189C206.178 84.5647 237.738 110.65 292.435 138.602C320.29 156.719 328.08 90.7832 374.328 82.7808C420.576 74.7783 439.095 140.754 465.247 112.001C505.504 68.4042 542.604 52.9708 572.109 55.9543C601.001 57.6909 623.092 77.6298 633.665 106.223C643.507 133.054 643.186 167.441 628.73 201.47C602.585 244.651 589.896 290.822 567.327 316.675C537.412 343.676 577.399 372.376 570.088 431.828C562.777 491.279 515.79 488.709 531.282 532.764C556.448 602.524 562.734 651.114 556.831 682.665C546.464 752.485 479.332 743.643 424.621 693.246C392.267 664.277 368.203 636.966 346.679 616.581C319.707 585.624 284.389 646.744 250.257 646.783C191.654 645.905 202.337 577.667 153.149 607.703C132.923 619.805 110.619 634.169 85.7592 651.198C27.733 689.159 -16.0869 697.536 -46.695 690.373C-109.725 685.501 -132.154 617.583 -118.675 552.858C-110.644 515.365 -90.7828 479.014 -59.9676 456.179C-21.4351 427.613 38.876 406.305 57.9917 353.723C72.2872 318.669 -17.1668 272.651 6.02911 207.936C20.6124 165.584 69.4275 145.917 72.1676 112.857C75.1122 77.3231 76.849 48.5893 76.4912 32.4067Z" stroke="#3871C1" stroke-width="1.13997"/>
<path d="M101.833 67.236C91.4464 -15.9673 173.48 5.54157 190.496 49.7659C217.563 119.5 247.479 140.895 297.555 163.015C321.846 178.279 329.139 121.321 369.376 114.017C409.613 106.713 426.117 162.797 448.998 138.196C484.441 100.901 516.954 88.3107 542.599 91.781C567.518 93.6958 586.542 111.449 595.371 136.608C603.573 160.258 602.74 190.373 589.207 219.918C561.851 258.675 555.736 308.488 536.628 333.375C511.089 357.463 544.697 382.573 537.564 433.55C530.431 484.526 489.082 481.957 501.463 518.818C522.004 577.564 526.68 618.215 521.01 644.447C511.667 703.74 453.313 695.576 405.37 652.19C376.572 627.145 354.646 603.867 334.849 587.331C311.124 561.222 280.176 614.021 250.147 614.638C199.069 614.539 207.412 556.576 164.577 582.563C146.541 593.198 126.815 605.601 104.986 620.149C53.137 652.53 14.8293 657.435 -10.9482 649.142C-64.7978 644.356 -83.7821 585.612 -71.9224 529.661C-64.7284 497.021 -47.3087 465.418 -20.4178 445.499C15.3887 418.96 68.4451 399.593 85.0469 350.624C97.3484 319.593 20.5179 279.022 40.1562 222.449C52.4195 185.017 94.0019 167.005 96.4338 137.683C99.0305 106.368 101.298 81.2141 101.833 67.236Z" stroke="#3871C1" stroke-width="1.13997"/>
<path d="M126.079 100.5C118.396 30.9382 187.888 49.2395 202.456 87.1031C228.094 153 256.427 169.759 301.987 186.103C322.764 198.551 329.576 150.428 363.885 143.805C398.195 137.182 412.719 183.515 432.376 163.005C463.078 131.915 491.072 122.137 512.912 126.103C533.907 128.2 549.905 143.813 557.007 165.6C563.587 186.129 562.24 212.048 549.603 237.183C520.978 271.613 521.424 325.19 505.738 349.173C484.522 370.409 511.822 391.993 504.852 434.623C497.881 477.253 462.085 474.679 471.379 504.439C487.337 552.32 490.414 585.135 484.964 606.114C476.626 655.028 426.93 647.523 385.655 611.037C360.352 589.854 340.519 570.549 322.406 557.822C301.88 536.494 275.236 581.104 249.248 582.301C205.589 582.98 211.61 535.146 175.037 557.15C159.154 566.346 141.965 576.818 123.123 588.922C77.3423 615.805 44.4671 617.251 23.4668 607.808C-21.3143 603.095 -36.8928 553.377 -26.6282 506.06C-20.256 478.19 -5.2418 451.257 17.7808 434.202C50.9362 409.624 96.8483 392.15 110.971 346.671C121.304 319.585 56.9373 284.36 73.0587 235.786C83.0274 203.181 117.463 186.778 119.592 161.12C121.846 133.945 124.65 112.309 126.079 100.5Z" stroke="#3871C1" stroke-width="1.13997"/>
<path d="M151.391 133.761C146.432 77.8518 203.199 92.9438 215.281 124.443C239.42 186.516 266.094 198.633 307.016 209.192C324.225 218.822 330.536 179.54 358.828 173.597C387.119 167.653 399.624 204.228 416.006 187.81C441.886 162.933 465.287 155.97 483.262 160.434C500.28 162.716 513.208 176.188 518.566 194.602C523.507 212.009 521.65 233.73 509.942 254.453C480.127 284.557 487.129 341.928 474.906 365.013C458.069 383.397 478.989 401.452 472.201 435.729C465.412 470.007 435.263 467.426 441.447 490.078C452.781 527.081 454.25 552.052 449.036 567.772C441.726 606.298 400.817 599.45 366.32 569.871C344.579 552.551 326.892 537.223 310.513 528.31C293.241 511.768 270.971 548.184 249.093 549.962C212.968 551.423 216.651 513.726 186.439 531.744C172.751 539.501 158.144 548.04 142.337 557.698C102.748 579.078 75.3922 577.057 59.224 566.457C23.6293 561.817 11.4972 521.13 20.1395 482.453C25.6729 459.356 38.242 437.095 57.3354 422.907C87.7504 400.285 126.396 384.703 138.002 342.706C146.34 319.566 94.6065 289.689 107.169 249.117C114.817 221.34 142.016 206.544 143.836 184.551C145.742 161.518 149.073 143.399 151.391 133.761Z" stroke="#3871C1" stroke-width="1.13997"/>
<path d="M175.992 167.02C173.735 124.781 218.082 136.66 227.743 161.791C250.525 220.06 275.696 227.524 312.212 232.284C325.947 239.091 331.795 208.66 354.222 203.395C376.648 198.131 387.204 224.932 400.4 212.614C421.6 193.956 440.535 189.815 454.744 194.781C467.876 197.249 477.804 208.579 481.445 223.62C484.771 237.903 482.392 255.423 471.545 271.73C440.357 297.508 453.977 358.718 445.153 380.914C432.605 396.445 447.254 410.97 440.607 436.884C433.96 462.797 409.292 460.209 412.394 475.739C419.16 501.847 419.025 518.959 414.016 529.41C407.692 557.532 375.35 551.341 347.442 528.676C329.143 515.224 313.502 503.879 298.763 498.788C284.648 487.04 266.631 515.253 248.743 517.616C219.956 519.861 221.317 492.318 197.3 506.345L196.63 506.711C185.264 512.916 173.378 519.405 160.769 526.475C127.149 542.344 105.164 536.843 93.7439 525.076C67.147 520.505 58.398 488.86 65.4655 458.832C70.1911 440.512 80.3837 422.927 95.6518 411.608C123.502 390.937 155.094 377.245 164.246 338.721C170.633 319.528 131.257 295.001 140.325 262.438C145.692 239.49 165.798 226.299 167.32 207.972C168.887 189.083 172.768 174.485 175.992 167.02Z" stroke="#3871C1" stroke-width="1.13997"/>
<path d="M201.244 201.891C201.708 173.508 233.29 182.123 240.456 200.773C261.709 254.974 285.188 257.755 317.022 256.697C327.175 260.651 332.516 239.205 348.904 234.643C365.291 230.081 373.817 246.992 383.725 238.826C400.081 226.471 414.404 225.169 424.736 230.614C433.879 233.256 440.729 242.395 442.623 253.995C444.309 265.09 441.424 278.331 431.52 290.15C399.189 311.488 419.334 376.255 413.979 397.462C405.819 410.071 414.08 421.001 407.623 438.437C401.167 455.873 382.171 453.289 382.165 461.63C384.306 476.73 382.567 485.909 377.8 491.045C372.511 508.641 348.986 503.134 327.883 487.483C313.166 477.958 299.69 470.645 286.702 469.398C275.855 462.496 262.23 482.382 248.47 485.318C227.245 488.337 226.27 471.066 208.636 481.042C199.275 485.889 189.764 490.531 179.956 495.259C152.564 505.548 136.119 496.593 129.539 483.714C112.149 479.234 106.853 456.769 112.291 435.522C116.172 422.061 123.91 409.23 135.234 400.83C160.309 382.204 184.603 370.463 191.23 335.586C195.616 320.424 168.906 301.357 174.409 276.947C177.452 258.931 190.306 247.404 191.517 232.825C192.735 218.163 197.136 207.151 201.244 201.891Z" stroke="#3871C1" stroke-width="1.13997"/>
<path d="M226.869 235.197C230.042 220.57 248.96 225.947 253.651 238.174C273.409 288.431 295.234 286.547 322.449 279.686C329.05 280.805 333.892 268.272 344.291 264.402C354.689 260.531 361.205 267.616 367.852 263.574C379.408 257.476 389.16 259.002 395.646 264.936C400.831 267.758 404.627 274.73 404.785 282.922C404.839 290.863 401.448 299.866 392.47 307.233C358.961 324.188 385.625 392.633 383.715 412.896C379.913 422.618 381.826 429.986 375.551 439.005C369.277 448.025 355.902 445.44 352.802 446.631C350.343 450.787 347.005 452.076 342.474 451.925C338.207 459.062 323.429 454.225 309.071 445.535C297.901 439.907 286.562 436.599 275.301 439.181C267.692 437.095 258.422 448.719 248.752 452.233C235.026 456.03 231.726 448.966 220.421 454.922C213.245 458.316 206.306 461.009 199.518 463.273C178.29 468.02 167.339 455.603 165.566 441.589C157.318 437.19 155.451 423.834 159.274 411.298C162.321 402.653 167.624 394.536 175.038 389.029C197.382 372.403 214.444 362.584 218.566 331.271C220.966 320.099 206.828 306.435 208.79 290.104C209.524 276.968 215.177 267.077 216.081 256.205C216.951 245.727 221.877 238.267 226.869 235.197Z" stroke="#3871C1" stroke-width="1.13997"/>
</g>
<path d="M496.656 192.02L474.674 111.362L454.373 192.004L453.064 191.681L474.626 106L497.964 191.665L496.656 192.02Z" fill="#DBDBDB"/>
<path d="M504.378 201.016L503.376 214.179L500.986 245.496H450.53L448.14 214.179L447.139 201.016H504.378Z" fill="#3871C1"/>
<path opacity="0.1" d="M504.378 201.016L503.376 214.179H448.14L447.139 201.016H504.378Z" fill="black"/>
<path d="M507.835 196.801H443.684V207.024H507.835V196.801Z" fill="#3871C1"/>
<path d="M509.578 194.685C509.544 195.097 509.427 195.497 509.235 195.863C509.043 196.229 508.78 196.553 508.46 196.815C508.141 197.077 507.772 197.272 507.376 197.389C506.98 197.506 506.564 197.542 506.154 197.495C505.735 198.039 505.154 198.436 504.495 198.628C503.836 198.819 503.132 198.796 502.487 198.561C502.167 199.254 501.643 199.832 500.985 200.219C500.327 200.606 499.566 200.783 498.805 200.725C499.07 201.617 498.994 202.576 498.591 203.415C498.188 204.254 497.487 204.913 496.625 205.264C496.468 205.767 496.144 206.202 495.706 206.496C495.268 206.789 494.743 206.925 494.218 206.879C493.624 206.794 493.057 206.572 492.564 206.23C492.07 205.888 491.663 205.435 491.376 204.908C491.13 205.234 490.818 205.504 490.462 205.702C490.105 205.9 489.711 206.021 489.305 206.057C488.899 206.094 488.49 206.045 488.104 205.914C487.718 205.783 487.363 205.572 487.063 205.296C486.731 204.958 486.504 204.53 486.412 204.065C486.32 203.6 486.367 203.118 486.546 202.68C486.351 202.582 486.166 202.463 485.997 202.324C485.601 201.92 485.303 201.43 485.126 200.893C484.95 200.355 484.9 199.784 484.98 199.223C484.142 199.57 483.201 199.57 482.363 199.223C482.277 199.652 482.055 200.041 481.728 200.333C481.402 200.624 480.99 200.801 480.554 200.838C480.717 201.387 480.746 201.966 480.64 202.528C480.533 203.09 480.293 203.618 479.941 204.069C479.54 204.517 479.038 204.863 478.476 205.077C477.913 205.29 477.308 205.366 476.71 205.296C477.066 207.024 477.147 208.978 475.58 210.141C475.215 210.412 474.784 210.579 474.332 210.624C473.879 210.67 473.423 210.592 473.012 210.4C472.934 210.842 472.764 211.264 472.513 211.637C472.263 212.011 471.937 212.327 471.557 212.568C471.177 212.808 470.751 212.966 470.306 213.032C469.861 213.098 469.408 213.071 468.974 212.952C469.234 213.999 469.09 215.106 468.57 216.053C468.345 216.435 468.033 216.76 467.66 217.001C467.288 217.242 466.864 217.393 466.422 217.442C466.422 219.057 465.696 220.962 463.725 220.93C463.428 220.925 463.135 220.854 462.869 220.722C462.603 220.59 462.369 220.401 462.185 220.167C462.001 219.934 461.871 219.662 461.805 219.372C461.739 219.082 461.738 218.781 461.803 218.491C461.375 218.395 460.98 218.186 460.658 217.887C460.337 217.589 460.1 217.21 459.972 216.79C459.844 216.37 459.829 215.924 459.93 215.496C460.03 215.069 460.242 214.676 460.543 214.357C460.111 214.022 459.761 213.592 459.52 213.101C459.279 212.609 459.154 212.069 459.154 211.522C459.154 210.975 459.279 210.435 459.52 209.944C459.761 209.452 460.111 209.023 460.543 208.688C460.3 208.467 460.106 208.197 459.973 207.897C459.841 207.597 459.772 207.272 459.772 206.943C459.772 206.615 459.841 206.29 459.973 205.99C460.106 205.689 460.3 205.42 460.543 205.199C460.177 204.89 459.885 204.504 459.686 204.068C459.488 203.633 459.389 203.158 459.397 202.68C459.443 202.08 459.645 201.503 459.982 201.004C460.319 200.506 460.779 200.104 461.319 199.837C461.118 199.761 460.936 199.642 460.785 199.489C460.634 199.335 460.519 199.151 460.446 198.949C460.439 198.863 460.439 198.776 460.446 198.69C460.15 198.814 459.831 198.877 459.51 198.877C459.188 198.877 458.87 198.814 458.573 198.69C458.188 198.503 457.867 198.205 457.652 197.834C457.171 198.293 456.578 198.618 455.932 198.777C455.286 198.936 454.609 198.922 453.97 198.739C453.759 199.152 453.458 199.512 453.09 199.794C452.721 200.075 452.294 200.271 451.84 200.365C451.386 200.46 450.916 200.451 450.466 200.34C450.016 200.229 449.596 200.019 449.238 199.724C448.075 200.758 446.492 201.759 444.99 200.806C444.71 200.624 444.484 200.371 444.333 200.073C444.183 199.776 444.114 199.443 444.134 199.11C443.741 199.116 443.354 199.013 443.015 198.814C442.676 198.614 442.398 198.326 442.212 197.98C442.012 197.573 441.955 197.11 442.052 196.667C442.149 196.224 442.393 195.827 442.745 195.541C442.382 195.281 442.128 194.895 442.034 194.459C441.998 194.153 442.027 193.842 442.117 193.548C442.208 193.253 442.36 192.981 442.562 192.748C442.764 192.515 443.013 192.328 443.292 192.197C443.571 192.066 443.874 191.994 444.182 191.988C443.993 191.465 443.949 190.901 444.054 190.355C444.16 189.809 444.41 189.302 444.78 188.887C445.25 188.417 445.818 188.058 446.444 187.834C447.069 187.611 447.737 187.529 448.398 187.595C448.26 186.807 448.37 185.997 448.711 185.274C449.052 184.551 449.608 183.951 450.304 183.557C450.965 183.248 451.712 183.173 452.421 183.343C453.131 183.513 453.762 183.919 454.212 184.494C454.644 183.839 455.222 183.294 455.9 182.9C456.578 182.506 457.339 182.276 458.121 182.225C458.904 182.175 459.687 182.307 460.41 182.611C461.133 182.915 461.776 183.383 462.288 183.977C462.556 183.411 463.026 182.966 463.606 182.729C464.186 182.493 464.834 182.483 465.421 182.701C466.199 183.063 466.845 183.659 467.268 184.406C467.69 185.154 467.869 186.014 467.779 186.868C468.573 186.468 469.461 186.294 470.347 186.365C471.233 186.436 472.082 186.75 472.802 187.272C473.435 187.76 473.942 188.393 474.279 189.119C474.616 189.844 474.775 190.639 474.74 191.438C475.471 191.04 476.3 190.855 477.132 190.907C477.963 190.958 478.763 191.243 479.44 191.729C480.64 189.928 482.408 188.581 484.463 187.901C485.165 187.73 485.896 187.719 486.603 187.867C487.31 188.015 487.975 188.319 488.549 188.757C488.852 187.707 489.456 186.769 490.287 186.058C491.118 185.348 492.14 184.897 493.224 184.761C494.309 184.625 495.41 184.811 496.39 185.294C497.371 185.778 498.188 186.538 498.74 187.481C499.31 187.007 500.002 186.704 500.736 186.607C501.471 186.51 502.218 186.623 502.891 186.932C503.806 187.439 504.603 188.132 505.232 188.966C505.861 189.801 506.307 190.759 506.541 191.778C507.326 191.773 508.082 192.074 508.648 192.616C509.215 193.159 509.548 193.901 509.578 194.685Z" fill="#455A64"/>
<path d="M99.0083 533.028L332.034 534.03C388.676 489.55 394.49 423.654 354.113 383.696C329.66 359.47 298.602 364.412 269.046 360.568H268.949C258.503 359.462 248.343 356.48 238.956 351.766C208.512 335.696 191.359 297.806 165.744 265.94C162.514 261.934 159.284 258.058 155.714 254.311C134.718 231.829 92.7256 231.086 70.7926 262.71C15.0718 343.061 40.6064 462.642 99.0083 533.028Z" fill="#3871C1"/>
<path opacity="0.1" d="M93.8405 349.198C99.9455 444.795 210.354 480.489 279.318 451.837C339.27 426.932 319.696 370.097 269.046 360.6H268.949C258.504 359.494 248.343 356.512 238.957 351.798C208.512 335.728 191.36 297.838 165.745 265.972C127.58 246.138 89.3667 279.2 93.8405 349.198Z" fill="black"/>
<path d="M310.259 545.48C306.625 544.14 224.433 478.47 222.882 473.98C222.284 472.365 231.151 459.751 242.263 444.908C244.67 441.678 247.108 438.448 249.741 435.089C266.344 413.446 284.482 390.867 284.482 390.867L339.573 434.669L303.33 477.662L295.4 487.062C295.4 487.062 315.621 526.277 316.8 531.381C317.979 536.484 313.893 546.821 310.259 545.48Z" fill="#C06F3E"/>
<path d="M310.244 545.464C306.626 544.14 224.45 478.47 222.899 473.98C222.399 472.591 228.181 464.031 236.353 452.984C248.305 467.261 289.958 509.787 301.345 515.472C308.564 519.09 307.127 512 304.429 504.942C309.985 516.037 316.155 528.732 316.801 531.478C317.948 536.533 313.894 546.821 310.244 545.464Z" fill="#263238"/>
<path d="M395.264 350.49C391.485 379.109 320.97 461.754 312.781 471.235L310.924 473.383L252.57 428.548L253.249 427.675L304.641 360.391C304.641 360.391 219.655 409.974 177.145 387.46C158.055 377.365 143.891 359.47 143.891 359.47L199.385 329.881C199.385 329.881 214.745 334.84 224.549 333.402C258.385 328.46 334.181 299.679 352.141 300.406C375.366 301.326 398.72 324.229 395.264 350.49Z" fill="#37474F"/>
<path d="M323.09 335.373C321.186 337.528 319.416 339.799 317.792 342.172C315.983 344.547 314.126 346.905 312.317 349.295C312.64 348.601 312.947 347.906 313.286 347.212C314.433 344.837 315.354 342.366 316.694 340.121C316.694 339.992 316.565 339.863 316.484 339.992C315.095 342.237 313.48 344.385 312.285 346.759C311.736 347.874 311.203 348.988 310.67 350.135C310.395 350.765 310.121 351.395 309.878 352.041C309.746 352.34 309.633 352.648 309.539 352.961C308.732 354.06 307.924 355.174 307.149 356.305C305.421 358.808 303.919 361.457 302.142 363.944C302.045 364.073 302.255 364.202 302.352 364.073C304.129 361.731 306.115 359.551 307.924 357.241C309.733 354.932 311.494 352.396 313.206 350.006C314.918 347.615 316.533 345.16 318.196 342.818C320.04 340.471 321.729 338.005 323.251 335.437C323.284 335.405 323.171 335.244 323.09 335.373Z" fill="#263238"/>
<path d="M158.555 187.947C156.698 188.157 148.574 187.091 143.034 194.407C137.801 201.32 135.653 222.574 134.49 227.193C133.327 231.813 127.238 232.41 125.72 237.772C124.412 242.375 127.755 244.136 128.046 247.544C128.272 250.176 125.559 254.085 127.901 258.026C130.033 261.595 133.893 260.917 136.202 262.047C138.512 263.178 139.869 268.604 144.149 270.123C148.429 271.641 152.224 267.765 154.55 267.829C156.876 267.894 159.395 274.936 166.889 274.435C174.383 273.934 176.58 267.668 179.681 266.473C182.782 265.277 190.453 267.539 194.023 263.759C197.592 259.98 198.303 254.86 199.918 253.003C201.533 251.145 204.844 251.484 206.879 247.156C208.914 242.828 204.892 239.985 204.392 236.19C204.036 233.541 206.411 231.15 204.828 227.097C202.647 221.508 195.848 222.59 193.344 216.857C191.39 212.367 187.498 192.889 175.837 187.93C167.794 184.506 158.555 187.947 158.555 187.947Z" fill="#263238"/>
<path d="M134.731 226.079C134.268 227.05 133.574 227.892 132.712 228.534L130.257 230.602C128.571 231.861 127.099 233.382 125.896 235.108C125.34 235.923 124.978 236.855 124.838 237.832C124.698 238.809 124.784 239.806 125.089 240.744C125.459 241.683 125.971 242.56 126.607 243.345C127.338 244.207 127.942 245.17 128.399 246.203C128.642 247.364 128.5 248.571 127.996 249.644C127.64 250.677 127.237 251.646 126.93 252.648C126.192 254.528 126.226 256.624 127.027 258.478C127.454 259.362 128.165 260.079 129.045 260.513C129.977 260.931 130.981 261.162 132.001 261.192C133.035 261.288 134.101 261.272 135.231 261.305C136.312 261.242 137.387 261.507 138.316 262.064C137.35 261.629 136.28 261.478 135.231 261.628C134.165 261.628 133.116 261.789 132.001 261.789C130.897 261.809 129.799 261.612 128.771 261.208C127.697 260.748 126.81 259.94 126.251 258.914C125.744 257.899 125.452 256.789 125.393 255.655C125.335 254.521 125.511 253.387 125.912 252.325C126.219 251.275 126.607 250.257 126.946 249.272C127.334 248.417 127.436 247.46 127.237 246.543C126.639 244.831 124.733 243.312 124.006 241.051C123.662 239.966 123.581 238.814 123.769 237.691C123.957 236.567 124.409 235.505 125.089 234.591C126.457 232.866 128.093 231.372 129.934 230.166L132.55 228.34C133.433 227.754 134.177 226.983 134.731 226.079Z" fill="#263238"/>
<path d="M186.516 199.042C188.303 202.421 189.883 205.905 191.248 209.476C192.023 211.22 192.734 212.981 193.622 214.628C194.037 215.436 194.535 216.199 195.108 216.905C195.232 217.066 195.379 217.207 195.544 217.325C195.696 217.458 195.864 217.572 196.045 217.664C196.448 217.89 196.868 218.084 197.304 218.278C199.074 219.024 200.805 219.859 202.489 220.781C204.273 221.744 205.717 223.233 206.624 225.045C207.056 225.985 207.245 227.018 207.173 228.049C207.048 229.041 206.736 230.001 206.252 230.876C205.231 232.48 204.596 234.299 204.395 236.189C204.362 234.25 204.817 232.334 205.719 230.617C206.104 229.794 206.334 228.907 206.397 228.001C206.412 227.112 206.2 226.234 205.784 225.449C204.881 223.875 203.547 222.592 201.94 221.751C200.325 220.83 198.564 220.135 196.788 219.376C196.352 219.166 195.915 218.956 195.479 218.714C195.002 218.446 194.58 218.09 194.236 217.664C193.604 216.888 193.062 216.043 192.621 215.145C191.763 213.42 191.008 211.645 190.36 209.831L188.486 204.421C187.933 202.591 187.275 200.796 186.516 199.042Z" fill="#263238"/>
<path d="M201.747 251.727C201.067 252.897 200.632 254.194 200.471 255.538C200.164 256.879 199.857 258.219 199.47 259.544C199.113 260.895 198.615 262.206 197.984 263.452C197.339 264.774 196.387 265.92 195.206 266.796C192.62 268.128 189.625 268.434 186.823 267.652C185.467 267.377 184.158 267.038 182.818 266.796C181.502 266.473 180.128 266.473 178.812 266.796C180.101 266.252 181.512 266.062 182.899 266.247C184.288 266.376 185.628 266.618 186.969 266.763C189.522 267.314 192.186 266.983 194.527 265.827C195.556 265.074 196.391 264.089 196.966 262.952C197.602 261.78 198.142 260.56 198.581 259.302C199.066 258.042 199.47 256.734 199.889 255.425C200.132 254.779 200.358 254.133 200.632 253.503C200.84 252.823 201.224 252.21 201.747 251.727Z" fill="#263238"/>
<path d="M173.219 273.272C185.332 302.893 223.028 337.069 235.626 338.005C250.339 339.087 288.036 321.612 302.378 300.955C305.786 296.11 274.307 273.498 269.107 277.213C258.431 284.772 238.242 295.141 236.498 295.302C233.042 295.625 209.655 277.908 191.017 265.294C167.889 249.643 168.373 261.45 173.219 273.272Z" fill="#C06F3E"/>
<path d="M298.036 306.446C298.036 306.446 311.279 292.33 312.491 279.216C313.331 270.155 312.022 246.155 289.976 230.246C284.743 226.467 274.617 224.787 280.916 234.058C285.389 240.647 290.219 243.458 292.124 247.77C292.124 247.77 278.994 247.172 275.424 252.615C272.292 257.325 269.502 262.253 267.074 267.361C267.91 268.015 268.784 268.619 269.691 269.17C269.691 269.17 266.832 274.5 269.012 283.463L298.036 306.446Z" fill="#C06F3E"/>
<path d="M264.522 221.331L250.357 269.025C250.196 269.286 250.108 269.586 250.102 269.893C250.096 270.2 250.171 270.503 250.321 270.771C250.47 271.04 250.689 271.263 250.954 271.419C251.218 271.574 251.52 271.657 251.827 271.657L276.683 272.691C277.443 272.67 278.181 272.432 278.811 272.006C279.44 271.58 279.935 270.982 280.236 270.284L294.352 222.591C294.918 221.185 294.255 220.022 292.866 219.958L268.075 218.957C267.32 218.98 266.586 219.215 265.958 219.635C265.33 220.055 264.832 220.642 264.522 221.331Z" fill="#A6A6A6"/>
<path d="M267.479 221.428L253.314 269.025C253.153 269.286 253.065 269.586 253.059 269.893C253.053 270.2 253.128 270.503 253.278 270.771C253.428 271.04 253.646 271.263 253.911 271.419C254.175 271.574 254.477 271.657 254.784 271.657L279.64 272.707C280.401 272.679 281.138 272.437 281.766 272.008C282.395 271.579 282.89 270.982 283.193 270.284L297.358 222.623C297.939 221.218 297.277 220.055 295.888 219.99L271.032 218.957C270.266 218.989 269.525 219.238 268.896 219.676C268.267 220.113 267.775 220.721 267.479 221.428Z" fill="#C7C7C7"/>
<path d="M274.196 223.915C274.17 224.333 274.02 224.733 273.765 225.066C273.511 225.399 273.164 225.648 272.767 225.783C272.371 225.919 271.943 225.933 271.539 225.825C271.134 225.717 270.771 225.491 270.494 225.177C270.218 224.862 270.042 224.472 269.987 224.057C269.932 223.642 270.002 223.22 270.187 222.844C270.373 222.469 270.665 222.157 271.028 221.948C271.391 221.739 271.808 221.642 272.226 221.67C272.784 221.707 273.305 221.964 273.675 222.385C274.044 222.806 274.232 223.356 274.196 223.915Z" fill="#263238"/>
<path d="M310.975 266.376C308.181 262.499 302.125 254.392 294.824 249.498C286.749 244.039 269.742 235.721 265.753 241.713C262.845 246.122 268.983 249.869 268.983 249.869C268.983 249.869 261.23 247.915 259.47 252.453C257.855 256.588 262.862 259.205 262.862 259.205C262.862 259.205 258.016 258.833 257.176 263.113C256.256 268.265 266.689 268.217 270.259 274.257C271.212 275.598 310.975 266.376 310.975 266.376Z" fill="#C06F3E"/>
<path d="M290.53 258.979C284.558 253.822 277.154 250.61 269.308 249.773C269.114 249.773 269.001 249.902 269.179 249.95C276.621 252.103 283.77 255.162 290.466 259.06C290.466 259.06 290.562 259.011 290.53 258.979Z" fill="#263238"/>
<path d="M284.778 266.957C281.726 264.47 271.987 259.318 263.071 259.043C262.862 259.043 262.765 259.188 262.942 259.221C270.479 261.005 277.792 263.627 284.746 267.038C284.746 267.038 284.827 266.989 284.778 266.957Z" fill="#263238"/>
<path d="M268.675 272.158C268.771 275.049 268.852 277.859 269.159 280.637C269.304 282.026 269.547 283.399 269.821 284.772C270.147 286.149 270.546 287.507 271.016 288.842C269.221 286.508 268.143 283.702 267.915 280.766C267.778 279.316 267.778 277.856 267.915 276.405C268.001 274.965 268.256 273.539 268.675 272.158Z" fill="#263238"/>
<path d="M189.549 303.862L212.063 277.891C212.063 277.891 193.571 262.548 180.262 256.895C166.954 251.242 165.242 259.754 171.25 272.513C177.258 285.272 189.549 303.862 189.549 303.862Z" fill="#D9648A"/>
<path d="M206.088 284.772L189.549 303.862C189.549 303.862 177.258 285.175 171.25 272.465C166.728 262.871 166.566 255.651 172.445 255.086L206.088 284.772Z" fill="#BF4B70"/>
<path d="M205.525 274.096C198.543 280.899 192.03 288.167 186.031 295.851C186.031 295.851 186.16 296.045 186.193 296.013C191.862 290.392 202.344 278.376 205.768 274.338C205.752 274.258 205.525 274.032 205.525 274.096Z" fill="#263238"/>
<path d="M117.26 372.391C120.49 373.441 213.293 346.549 213.293 346.549L202.295 314.328C202.295 314.328 207.705 303.959 205.202 293.994C201.842 280.686 177.212 258.801 175.274 257.525C167.489 252.373 160.205 252.454 153.777 255.91C126.983 270.123 117.26 372.391 117.26 372.391Z" fill="#FF8CB1"/>
<path d="M161.775 256.717C161.328 255.67 160.787 254.664 160.16 253.713L159.514 253.826C159.808 254.998 160.214 256.14 160.725 257.234C161.384 258.734 162.254 260.132 163.31 261.385C163.034 259.761 162.516 258.188 161.775 256.717ZM184.532 314.958C183.857 313.468 182.983 312.077 181.932 310.823C182.192 312.438 182.675 314.009 183.369 315.491C184.033 316.991 184.909 318.389 185.969 319.642C185.712 318.021 185.228 316.444 184.532 314.958ZM144.154 276.099C142.66 276.775 141.264 277.65 140.004 278.699C143.246 278.147 146.286 276.755 148.822 274.661C147.207 274.921 145.636 275.405 144.154 276.099ZM132.542 330.77C131.038 331.437 129.636 332.313 128.375 333.37C129.995 333.102 131.571 332.613 133.059 331.916C134.563 331.258 135.961 330.382 137.21 329.316C135.591 329.569 134.018 330.059 132.542 330.77ZM194.352 340.089C192.851 340.753 191.453 341.629 190.201 342.689C191.82 342.438 193.393 341.948 194.868 341.235C196.368 340.577 197.766 339.707 199.019 338.651C197.401 338.899 195.829 339.383 194.352 340.089ZM173.582 285.369C172.978 286.92 172.613 288.554 172.499 290.215C173.45 288.881 174.216 287.425 174.777 285.886C175.359 284.356 175.723 282.753 175.859 281.122C174.912 282.411 174.146 283.824 173.582 285.321V285.369ZM156.655 340.541C156.07 342.07 155.706 343.674 155.573 345.306C157.469 342.621 158.628 339.485 158.933 336.213C157.989 337.533 157.223 338.972 156.655 340.493V340.541ZM133.463 359.922C131.932 359.342 130.329 358.978 128.698 358.84C130.021 359.791 131.473 360.547 133.01 361.085C134.564 361.685 136.196 362.061 137.856 362.199C136.511 361.199 135.032 360.395 133.463 359.809V359.922ZM153.377 306.156C151.846 305.572 150.243 305.197 148.612 305.041C149.923 306.023 151.377 306.797 152.924 307.335C154.481 307.922 156.112 308.291 157.77 308.433C156.43 307.425 154.95 306.62 153.377 306.043V306.156Z" fill="white"/>
<path d="M167.797 320.336C170.911 319.083 174.092 318.005 177.326 317.106C178.941 316.67 180.556 316.331 182.171 316.04L184.546 315.652C185.418 315.523 186.306 315.523 187.162 315.378C187.259 315.378 187.291 315.507 187.162 315.523C186.338 315.669 185.547 315.975 184.739 316.169L182.317 316.783L177.471 318.027C174.241 318.818 171.011 319.642 167.781 320.546C167.7 320.708 167.636 320.401 167.797 320.336Z" fill="#263238"/>
<path d="M157.442 255.215C157.797 256.831 165.647 267.894 173.318 267.652C175.822 267.555 175.967 253.907 175.967 253.907L176.209 252.906L179.569 238.822L160.753 226.499C160.753 226.499 157.297 254.489 157.442 255.215Z" fill="#C06F3E"/>
<path d="M179.571 238.822L176.211 252.874C172.416 251.39 168.976 249.125 166.113 246.226C163.25 243.326 161.028 239.858 159.592 236.044C160.173 231.199 160.658 227.145 160.722 226.564C160.726 226.537 160.726 226.51 160.722 226.483L163.113 227.921L179.571 238.822Z" fill="#263238"/>
<path d="M195.251 210.881C203.601 234.881 190.179 242.602 184.995 244.394C180.311 246.009 164.096 250.984 153.307 227.985C142.518 204.986 151.03 193.503 161.576 189.223C172.123 184.943 186.885 186.832 195.251 210.881Z" fill="#C06F3E"/>
<path d="M156.455 228.873C162.301 226.951 158.748 208.329 158.296 206.052C158.651 207.473 160.621 215 161.268 215.129C161.9 214.934 162.495 214.634 163.028 214.241C162.774 213.346 162.59 212.434 162.479 211.511C162.479 211.075 162.899 212.351 163.593 213.901L164.578 213.288C163.968 211.399 163.604 209.439 163.496 207.457C163.496 206.698 164.578 209.815 166.064 212.383C170.664 209.449 175.578 207.039 180.713 205.196C182.167 204.712 183.427 204.356 184.573 204.082C183.943 201.885 182.958 199.608 183.314 200.06C184.135 201.268 184.844 202.549 185.429 203.888C186.043 203.742 186.625 203.629 187.141 203.532C186.382 200.302 183.459 195.845 184.186 196.458C186.337 198.374 188.112 200.675 189.419 203.242C191.647 203.032 192.358 203.242 192.261 202.725C189.84 196.774 185.38 191.879 179.68 188.916C170.296 184.071 155.098 186.639 149.913 199.737C149.913 199.737 144.374 206.197 145.375 213.659C146.376 221.121 153.095 229.972 156.455 228.873Z" fill="#263238"/>
<path d="M157.765 228.437C157.765 228.437 150.433 222.106 147.429 224.916C144.425 227.726 151.305 237.837 155.795 238.305C156.365 238.406 156.949 238.391 157.513 238.261C158.077 238.13 158.608 237.887 159.076 237.547C159.543 237.206 159.937 236.774 160.234 236.277C160.53 235.78 160.724 235.228 160.802 234.655L157.765 228.437Z" fill="#C06F3E"/>
<path d="M149.48 227.759V227.872C152.711 228.308 154.843 230.585 156.603 233.072C156.362 232.828 156.071 232.639 155.75 232.518C155.429 232.397 155.085 232.347 154.743 232.371C154.4 232.396 154.067 232.494 153.767 232.66C153.466 232.826 153.205 233.055 153.001 233.331C153.001 233.331 153.001 233.492 153.114 233.46C153.579 233.171 154.122 233.032 154.669 233.064C155.216 233.096 155.739 233.296 156.167 233.638C156.875 234.214 157.519 234.863 158.089 235.576C158.283 235.802 158.719 235.576 158.541 235.269C157.653 231.538 153.502 227.129 149.48 227.759Z" fill="#263238"/>
<path d="M148.574 281.154C154.921 320.013 170.749 345.257 178.162 346.468C198.093 349.699 231.8 317.171 241.846 309.515C245.916 306.43 212.774 278.683 208.849 282.478C199.595 291.426 187.175 305.477 186.545 305.623C185.253 305.929 180.537 297.095 164.612 272.109C151.739 251.888 145.974 265.261 148.574 281.154Z" fill="#C06F3E"/>
<path d="M260.307 245.008C263.069 249.207 252.135 255.135 252.135 255.135C254.301 255.141 256.395 255.913 258.046 257.315C260.856 259.899 258.046 265.391 258.046 265.391C260.278 265.86 262.319 266.985 263.909 268.621C266.331 271.383 264.264 277.358 264.264 277.358C266.048 278.966 267.223 281.139 267.591 283.512C268.883 294.123 245.691 309.353 238.164 312.244L207.752 284.788C207.752 284.788 219.058 259.576 228.215 253.051C233.287 249.546 256.092 238.596 260.307 245.008Z" fill="#C06F3E"/>
<path d="M251.97 255.07C245.494 257.299 239.316 260.315 233.574 264.05C233.56 264.056 233.547 264.066 233.536 264.078C233.525 264.089 233.517 264.103 233.512 264.119C233.507 264.134 233.505 264.15 233.506 264.166C233.508 264.182 233.513 264.197 233.521 264.211C233.529 264.225 233.54 264.237 233.553 264.246C233.566 264.256 233.581 264.262 233.597 264.265C233.613 264.268 233.629 264.268 233.645 264.264C233.66 264.261 233.675 264.254 233.688 264.244C239.421 260.723 246.237 258.656 252.1 255.361C252.131 255.34 252.154 255.308 252.165 255.272C252.175 255.235 252.172 255.196 252.157 255.161C252.142 255.127 252.114 255.099 252.08 255.082C252.046 255.065 252.007 255.061 251.97 255.07Z" fill="#263238"/>
<path d="M257.578 265.1C256.137 265.696 254.779 266.478 253.54 267.426C252.167 268.33 250.811 269.283 249.47 270.236C246.789 272.158 244.14 274.144 241.556 276.212C241.443 276.309 241.556 276.502 241.685 276.422C244.366 274.5 247.064 272.626 249.761 270.833L253.928 268.152C255.3 267.41 256.584 266.516 257.756 265.487C257.782 265.453 257.798 265.411 257.803 265.368C257.808 265.324 257.801 265.28 257.782 265.241C257.764 265.201 257.736 265.167 257.7 265.142C257.664 265.117 257.622 265.103 257.578 265.1Z" fill="#263238"/>
<path d="M264.121 277.536C262.822 278.09 261.626 278.86 260.584 279.813L256.966 282.51C254.527 284.287 252.121 286.064 249.601 287.76C249.488 287.76 249.601 288.034 249.73 287.953C252.266 286.241 254.834 284.578 257.354 282.85L261.068 280.282C262.286 279.599 263.378 278.714 264.299 277.665C264.316 277.642 264.323 277.612 264.318 277.583C264.314 277.555 264.298 277.529 264.274 277.512C264.251 277.495 264.221 277.488 264.193 277.492C264.164 277.497 264.138 277.512 264.121 277.536Z" fill="#263238"/>
<path d="M266.376 280.136C267.508 281.774 268.018 283.761 267.814 285.741C267.551 287.729 266.79 289.618 265.601 291.232C263.357 294.444 260.744 297.382 257.816 299.986C254.932 302.618 251.843 305.015 248.578 307.157C245.321 309.307 241.871 311.151 238.274 312.664H238.355C236.077 314.538 220.992 326.667 218.65 328.492C220.782 326.441 235.706 314.118 237.886 312.115C241.338 310.412 244.662 308.464 247.835 306.285C251.007 304.109 254.039 301.736 256.912 299.178C259.796 296.65 262.44 293.86 264.81 290.845C265.999 289.371 266.814 287.631 267.184 285.773C267.585 283.858 267.299 281.862 266.376 280.136Z" fill="#263238"/>
<path d="M152.485 312.745L183.058 297.031C183.058 297.031 171.64 275.905 161.416 265.649C151.193 255.393 146.396 262.694 147.22 276.777C148.043 290.861 152.485 312.745 152.485 312.745Z" fill="#D9648A"/>
<path d="M177.617 291.087C168.601 294.804 159.844 299.12 151.404 304.008C151.404 304.008 151.404 304.25 151.501 304.234C158.85 301.133 173.03 293.881 177.763 291.426C177.843 291.361 177.698 291.055 177.617 291.087Z" fill="#263238"/>
<path d="M523.296 471.041C521.955 474.675 456.011 556.641 451.521 558.175C449.825 558.773 437.324 549.857 422.53 538.665C419.3 536.258 416.07 533.739 412.726 531.171C391.149 514.519 368.65 496.285 368.65 496.285L412.597 441.371L455.494 477.759L464.91 485.738C464.91 485.738 504.189 465.646 509.293 464.483C514.397 463.32 524.653 467.407 523.296 471.041Z" fill="#C06F3E"/>
<path d="M523.307 471.041C521.951 474.675 456.022 556.641 451.533 558.256C450.047 558.773 440.308 552.022 427.984 542.832C440.55 533.69 488.308 490.664 494.72 479.003C498.096 472.882 493.105 472.93 487.145 474.626C496.981 469.781 506.882 465.065 509.272 464.532C514.376 463.321 524.632 467.407 523.307 471.041Z" fill="#263238"/>
<path d="M453.183 469.426L407.411 531.139L253.089 424.074L238.214 413.737C238.214 413.737 233.998 416.58 227.651 420.085C218.849 424.93 205.928 431.132 194.509 432.812C175.354 435.638 143.359 435.331 127.208 413.737C113.609 395.551 120.99 371.842 120.99 371.842L141.986 362.797C141.986 362.797 191.763 321.321 224.017 320.062C237.713 319.529 257.659 329.914 276.136 340.751C294.613 351.588 453.183 469.426 453.183 469.426Z" fill="#37474F"/>
<path d="M238.213 413.705C238.213 413.705 233.997 416.547 227.65 420.052C216.441 406.631 192.699 382.243 191.973 381.387L238.213 413.705Z" fill="#263238"/>
<path d="M160.297 348.875C157.326 350.942 154.451 353.139 151.511 355.335C148.572 357.532 145.632 359.373 142.903 361.65C140.173 363.928 137.46 366.496 134.827 368.951C133.551 370.146 132.292 371.357 131.064 372.601C129.779 373.807 128.586 375.108 127.495 376.493C127.398 376.622 127.495 376.784 127.705 376.703C129.102 375.712 130.434 374.633 131.694 373.473L135.861 369.936C138.526 367.659 141.255 365.446 143.936 363.169C146.617 360.891 149.056 358.42 151.673 356.127C154.289 353.833 157.455 351.378 160.378 349.053C160.378 348.94 160.297 348.843 160.297 348.875Z" fill="#263238"/>
<path d="M442.439 467.213C439.467 470.443 436.722 473.867 433.944 477.243C431.166 480.619 428.404 484.059 425.674 487.483C420.183 494.331 414.643 501.146 409.265 508.075C406.293 511.887 403.37 515.715 400.624 519.672C400.495 519.849 400.786 520.059 400.915 519.898C406.826 513.437 412.221 506.492 417.696 499.644C423.171 492.796 428.63 485.9 434.024 478.955C436.964 475.16 440 471.38 442.697 467.407C442.811 467.246 442.568 467.084 442.439 467.213Z" fill="#263238"/>
<path d="M315.77 467.843C308.098 461.786 300.12 456.085 292.173 450.4C284.227 444.715 276.329 439.094 268.286 433.619C265.977 432.004 263.651 430.502 261.325 428.951C258.999 427.401 256.593 425.98 254.316 424.381C254.186 424.3 254.057 424.51 254.186 424.607C256.286 426.109 258.256 427.837 260.308 429.339C262.359 430.841 264.216 432.327 266.186 433.781C270.047 436.639 273.939 439.433 277.815 442.244C285.718 447.94 293.67 453.555 301.67 459.089C306.241 462.206 310.763 465.34 315.431 468.311C315.705 468.489 316.028 468.053 315.77 467.843Z" fill="#263238"/>
<path d="M365.129 404.176C358.038 398.281 350.431 392.999 342.986 387.556C335.54 382.113 327.981 376.509 320.374 371.05L297.908 354.802C290.64 349.553 283.372 344.223 275.733 339.572C271.546 337.016 267.234 334.671 262.812 332.546C258.519 330.347 254.045 328.52 249.439 327.087C249.31 327.087 249.229 327.249 249.358 327.313C253.138 329.429 257.111 331.206 260.939 333.241C264.766 335.276 268.433 337.375 272.099 339.604C279.722 344.207 286.909 349.456 294.129 354.657C309.133 365.446 324.105 376.283 339.222 386.959C347.685 392.902 355.955 399.185 364.741 404.725C365.064 404.806 365.419 404.386 365.129 404.176Z" fill="#263238"/>
<path d="M328.193 174.723C328.193 174.723 328.743 175.295 328.743 175.768V178.668C328.743 178.981 328.193 179.251 328.193 179.251C328.193 179.251 328.743 179.597 328.743 179.814V181.561C328.743 181.737 328.193 182.108 328.193 182.108C328.193 182.108 328.743 182.463 328.743 182.648V184.512C328.743 184.656 328.193 184.95 328.193 184.95C328.193 184.95 328.743 185.224 328.743 185.356V187.346C328.743 187.494 328.193 187.796 328.193 187.796C328.193 187.796 328.743 188.125 328.743 188.291V190.054C328.743 190.24 328.193 190.615 328.193 190.615C328.193 190.615 328.743 191.117 328.743 191.283V192.924C328.743 193.088 328.193 193.465 328.193 193.465C328.193 193.465 328.743 193.762 328.743 193.942V202.195C328.743 203.849 327.387 208.053 325.103 208.053H301.64C299.356 208.053 298 203.849 298 202.195V193.95C298 193.77 298.55 193.473 298.55 193.473C298.55 193.473 298 193.096 298 192.932V191.291C298 191.125 298.55 190.624 298.55 190.624C298.55 190.624 298 190.248 298 190.062V188.299C298 188.133 298.55 187.804 298.55 187.804C298.55 187.804 298 187.502 298 187.354V185.364C298 185.224 298.55 184.958 298.55 184.958C298.55 184.958 298 184.664 298 184.52V182.656C298 182.472 298.55 182.117 298.55 182.117C298.55 182.117 298 181.745 298 181.569V179.823C298 179.605 298.55 179.259 298.55 179.259C298.55 179.259 298 178.989 298 178.676V175.776C298 175.303 298.55 174.731 298.55 174.731V156.577C298.55 156.577 298 156.005 298 155.397C298 154.082 298.211 148.281 300.844 143.492C303.477 138.703 308.549 136.072 308.549 136.072V134.062H307.774V133.425H308.549V133.048H307.774V132.397H308.549V131.02H318.199V132.403H318.972V133.048H318.199V133.436H318.972V134.062H318.199V136.068C318.199 136.068 323.278 138.705 325.904 143.488C328.53 148.271 328.748 154.078 328.748 155.393C328.748 156.001 328.198 156.573 328.198 156.573L328.193 174.723Z" fill="#3871C1"/>
<path opacity="0.8" d="M328.193 174.723C328.193 174.723 328.743 175.295 328.743 175.768V178.668C328.743 178.981 328.193 179.251 328.193 179.251C328.193 179.251 328.743 179.597 328.743 179.814V181.561C328.743 181.737 328.193 182.108 328.193 182.108C328.193 182.108 328.743 182.463 328.743 182.648V184.512C328.743 184.656 328.193 184.95 328.193 184.95C328.193 184.95 328.743 185.224 328.743 185.356V187.346C328.743 187.494 328.193 187.796 328.193 187.796C328.193 187.796 328.743 188.125 328.743 188.291V190.054C328.743 190.24 328.193 190.615 328.193 190.615C328.193 190.615 328.743 191.117 328.743 191.283V192.924C328.743 193.088 328.193 193.465 328.193 193.465C328.193 193.465 328.743 193.762 328.743 193.942V202.195C328.743 203.849 327.387 208.053 325.103 208.053H301.64C299.356 208.053 298 203.849 298 202.195V193.95C298 193.77 298.55 193.473 298.55 193.473C298.55 193.473 298 193.096 298 192.932V191.291C298 191.125 298.55 190.624 298.55 190.624C298.55 190.624 298 190.248 298 190.062V188.299C298 188.133 298.55 187.804 298.55 187.804C298.55 187.804 298 187.502 298 187.354V185.364C298 185.224 298.55 184.958 298.55 184.958C298.55 184.958 298 184.664 298 184.52V182.656C298 182.472 298.55 182.117 298.55 182.117C298.55 182.117 298 181.745 298 181.569V179.823C298 179.605 298.55 179.259 298.55 179.259C298.55 179.259 298 178.989 298 178.676V175.776C298 175.303 298.55 174.731 298.55 174.731V156.577C298.55 156.577 298 156.005 298 155.397C298 154.082 298.211 148.281 300.844 143.492C303.477 138.703 308.549 136.072 308.549 136.072V134.062H307.774V133.425H308.549V133.048H307.774V132.397H308.549V131.02H318.199V132.403H318.972V133.048H318.199V133.436H318.972V134.062H318.199V136.068C318.199 136.068 323.278 138.705 325.904 143.488C328.53 148.271 328.748 154.078 328.748 155.393C328.748 156.001 328.198 156.573 328.198 156.573L328.193 174.723Z" fill="white"/>
<path d="M325.966 175.715C325.966 175.715 326.44 176.202 326.44 176.604V179.068C326.44 179.334 325.966 179.563 325.966 179.563C325.966 179.563 326.44 179.859 326.44 180.042V181.729C326.44 181.88 325.966 182.196 325.966 182.196C325.966 182.196 326.44 182.496 326.44 182.654V184.644C326.44 184.766 325.966 185.015 325.966 185.015C325.966 185.015 326.44 185.249 326.44 185.368V187.464C326.44 187.589 325.966 187.847 325.966 187.847C325.966 187.847 326.44 188.127 326.44 188.267V190.172C326.44 190.33 325.966 190.648 325.966 190.648C325.966 190.648 326.44 191.074 326.44 191.216V193.017C326.44 193.155 325.966 193.476 325.966 193.476C325.966 193.476 326.44 193.729 326.44 193.881V202.013C326.44 203.419 325.291 205.979 323.347 205.979H303.421C301.477 205.979 300.34 203.216 300.34 201.81V193.881C300.34 193.729 300.814 193.476 300.814 193.476C300.814 193.476 300.34 193.155 300.34 193.017V191.216C300.34 191.074 300.814 190.648 300.814 190.648C300.814 190.648 300.34 190.33 300.34 190.172V188.267C300.34 188.127 300.814 187.847 300.814 187.847C300.814 187.847 300.34 187.589 300.34 187.464V185.368C300.34 185.249 300.814 185.015 300.814 185.015C300.814 185.015 300.34 184.766 300.34 184.644V182.654C300.34 182.496 300.814 182.196 300.814 182.196C300.814 182.196 300.34 181.88 300.34 181.729V180.042C300.34 179.859 300.814 179.563 300.814 179.563C300.814 179.563 300.34 179.334 300.34 179.068V176.604C300.34 176.198 300.814 175.715 300.814 175.715V156.243C300.542 155.957 300.377 155.608 300.34 155.241C300.34 154.263 300.477 150.373 301.999 146.685C302.03 146.61 302.06 146.537 302.094 146.464C303.558 146.477 305.02 146.559 306.473 146.71C310.045 147.058 313.583 147.671 315.934 147.815C318.999 148.023 322.082 147.938 325.125 147.561C325.972 150.058 326.418 152.641 326.452 155.241C326.414 155.608 326.249 155.957 325.978 156.243L325.966 175.715Z" fill="#3871C1"/>
<path opacity="0.4" d="M325.966 175.715C325.966 175.715 326.44 176.202 326.44 176.604V179.068C326.44 179.334 325.966 179.563 325.966 179.563C325.966 179.563 326.44 179.859 326.44 180.042V181.729C326.44 181.88 325.966 182.196 325.966 182.196C325.966 182.196 326.44 182.496 326.44 182.654V184.644C326.44 184.766 325.966 185.015 325.966 185.015C325.966 185.015 326.44 185.249 326.44 185.368V187.464C326.44 187.589 325.966 187.847 325.966 187.847C325.966 187.847 326.44 188.127 326.44 188.267V190.172C326.44 190.33 325.966 190.648 325.966 190.648C325.966 190.648 326.44 191.074 326.44 191.216V193.017C326.44 193.155 325.966 193.476 325.966 193.476C325.966 193.476 326.44 193.729 326.44 193.881V202.013C326.44 203.419 325.291 205.979 323.347 205.979H303.421C301.477 205.979 300.34 203.216 300.34 201.81V193.881C300.34 193.729 300.814 193.476 300.814 193.476C300.814 193.476 300.34 193.155 300.34 193.017V191.216C300.34 191.074 300.814 190.648 300.814 190.648C300.814 190.648 300.34 190.33 300.34 190.172V188.267C300.34 188.127 300.814 187.847 300.814 187.847C300.814 187.847 300.34 187.589 300.34 187.464V185.368C300.34 185.249 300.814 185.015 300.814 185.015C300.814 185.015 300.34 184.766 300.34 184.644V182.654C300.34 182.496 300.814 182.196 300.814 182.196C300.814 182.196 300.34 181.88 300.34 181.729V180.042C300.34 179.859 300.814 179.563 300.814 179.563C300.814 179.563 300.34 179.334 300.34 179.068V176.604C300.34 176.198 300.814 175.715 300.814 175.715V156.243C300.542 155.957 300.377 155.608 300.34 155.241C300.34 154.263 300.477 150.373 301.999 146.685C302.03 146.61 302.06 146.537 302.094 146.464C303.558 146.477 305.02 146.559 306.473 146.71C310.045 147.058 313.583 147.671 315.934 147.815C318.999 148.023 322.082 147.938 325.125 147.561C325.972 150.058 326.418 152.641 326.452 155.241C326.414 155.608 326.249 155.957 325.978 156.243L325.966 175.715Z" fill="white"/>
<path opacity="0.1" d="M303.765 148.65C303.004 153.695 303.087 155.979 303.64 156.577V175.05C303.073 175.675 302.755 176.439 302.732 177.23V201.824C302.732 204.084 304.113 208.062 308.055 208.062H301.656C299.371 208.062 298.016 203.857 298.016 202.204V193.95C298.016 193.77 298.565 193.473 298.565 193.473C298.565 193.473 298.016 193.096 298.016 192.932V191.291C298.016 191.125 298.565 190.624 298.565 190.624C298.565 190.624 298.016 190.248 298.016 190.062V188.299C298.016 188.133 298.565 187.804 298.565 187.804C298.565 187.804 298.016 187.502 298.016 187.354V185.364C298.016 185.224 298.565 184.958 298.565 184.958C298.565 184.958 298.016 184.664 298.016 184.52V182.656C298.016 182.472 298.565 182.117 298.565 182.117C298.565 182.117 298.016 181.745 298.016 181.569V179.823C298.016 179.605 298.565 179.259 298.565 179.259C298.565 179.259 298.016 178.989 298.016 178.676V175.776C298.016 175.303 298.565 174.731 298.565 174.731V156.577C298.565 156.577 298.016 156.005 298.016 155.397C298.016 154.082 298.227 148.281 300.86 143.492C303.493 138.703 308.564 136.072 308.564 136.072V134.062H307.789V133.425H308.564V133.048H307.789V132.397H308.564V131.02H310.422V136.204C310.422 136.204 304.948 140.792 303.765 148.65Z" fill="black"/>
<path opacity="0.5" d="M324.411 148.65C325.172 153.695 325.089 155.979 324.537 156.577V175.05C325.104 175.675 325.422 176.439 325.444 177.23V201.419C325.444 206.299 322.641 208.062 318.7 208.062H325.098C327.383 208.062 328.739 203.857 328.739 202.204V193.95C328.739 193.77 328.189 193.473 328.189 193.473C328.189 193.473 328.739 193.096 328.739 192.932V191.291C328.739 191.125 328.189 190.624 328.189 190.624C328.189 190.624 328.739 190.248 328.739 190.062V188.299C328.739 188.133 328.189 187.804 328.189 187.804C328.189 187.804 328.739 187.502 328.739 187.354V185.364C328.739 185.224 328.189 184.958 328.189 184.958C328.189 184.958 328.739 184.664 328.739 184.52V182.656C328.739 182.472 328.189 182.117 328.189 182.117C328.189 182.117 328.739 181.745 328.739 181.569V179.823C328.739 179.605 328.189 179.259 328.189 179.259C328.189 179.259 328.739 178.989 328.739 178.676V175.776C328.739 175.303 328.189 174.731 328.189 174.731V156.577C328.189 156.577 328.739 156.005 328.739 155.397C328.739 154.082 328.528 148.281 325.895 143.492C323.262 138.703 318.19 136.072 318.19 136.072V134.062H318.965V133.425H318.19V133.048H318.965V132.397H318.19V131.02H316.332V136.204C316.332 136.204 323.229 140.792 324.411 148.65Z" fill="white"/>
<g opacity="0.1">
<path d="M306.746 179.234C308.533 179.192 310.32 179.169 312.109 179.153C313.899 179.137 315.683 179.141 317.472 179.135L322.836 179.165L325.516 179.198L328.199 179.25L325.516 179.295L322.836 179.319L317.472 179.334L312.109 179.305C310.32 179.295 308.533 179.275 306.746 179.234Z" fill="black"/>
<path d="M298.564 179.251C299.543 179.17 300.52 179.148 301.498 179.144C302.477 179.14 303.454 179.16 304.432 179.239C303.456 179.32 302.477 179.341 301.498 179.347C300.52 179.353 299.543 179.328 298.564 179.251Z" fill="black"/>
<path d="M315.623 182.092C316.671 182.052 317.718 182.033 318.768 182.019C319.818 182.005 320.863 182.005 321.911 181.999C322.958 181.993 324.006 182.011 325.053 182.029L326.627 182.06C327.15 182.078 327.674 182.09 328.198 182.113C327.674 182.135 327.148 182.145 326.624 182.159L325.053 182.186C324.006 182.2 322.958 182.196 321.911 182.202C320.863 182.208 319.815 182.192 318.768 182.173C317.72 182.155 316.671 182.135 315.623 182.092Z" fill="black"/>
<path d="M298.564 182.113C299.799 182.07 301.034 182.048 302.269 182.032C303.503 182.015 304.738 182.011 305.973 182.001C307.208 181.991 308.442 182.001 309.677 182.019L311.528 182.046C312.147 182.062 312.765 182.07 313.381 182.092C312.765 182.117 312.147 182.127 311.53 182.145L309.677 182.176C308.442 182.194 307.208 182.194 305.973 182.204C304.738 182.214 303.503 182.204 302.269 182.186C301.034 182.167 299.799 182.153 298.564 182.113Z" fill="black"/>
<path d="M298.564 184.974C301.034 184.93 303.503 184.906 305.973 184.887L313.381 184.853L320.79 184.885L324.494 184.92L328.198 184.974L324.494 185.019L320.79 185.041L313.381 185.056L305.973 185.041C303.503 185.031 301.034 185.015 298.564 184.974Z" fill="black"/>
<path d="M313.381 187.815C314.616 187.774 315.85 187.758 317.085 187.742C318.32 187.726 319.555 187.732 320.789 187.724C322.024 187.715 323.259 187.736 324.494 187.752L326.344 187.784C326.963 187.801 327.579 187.813 328.198 187.835C327.579 187.857 326.963 187.868 326.344 187.884L324.494 187.908C323.259 187.922 322.024 187.92 320.789 187.926C319.555 187.932 318.32 187.916 317.085 187.898C315.85 187.88 314.616 187.863 313.381 187.815Z" fill="black"/>
<path d="M298.564 187.839C299.413 187.796 300.261 187.776 301.107 187.758C301.953 187.739 302.804 187.733 303.653 187.729C304.501 187.725 305.35 187.729 306.196 187.747L307.468 187.774C307.893 187.79 308.317 187.798 308.741 187.82C308.317 187.845 307.893 187.855 307.468 187.873L306.198 187.904C305.35 187.924 304.501 187.928 303.653 187.932C302.804 187.936 301.956 187.932 301.11 187.912C300.264 187.891 299.413 187.879 298.564 187.839Z" fill="black"/>
<path d="M298.564 190.703C301.034 190.658 303.503 190.634 305.973 190.614L313.381 190.581L320.79 190.614L324.494 190.648L328.198 190.703L324.494 190.748L320.79 190.77L313.381 190.784L305.973 190.77C303.503 190.758 301.034 190.742 298.564 190.703Z" fill="black"/>
<path d="M319.432 193.548C320.162 193.508 320.892 193.49 321.624 193.475C322.356 193.461 323.084 193.457 323.816 193.455C324.548 193.453 325.276 193.455 326.008 193.484L327.103 193.514C327.468 193.53 327.835 193.542 328.2 193.565C327.833 193.587 327.468 193.597 327.103 193.613L326.008 193.64C325.276 193.656 324.546 193.658 323.816 193.658C323.086 193.658 322.354 193.658 321.624 193.63C320.894 193.601 320.162 193.591 319.432 193.548Z" fill="black"/>
<path d="M298.564 193.565C299.986 193.522 301.408 193.5 302.83 193.482C304.252 193.463 305.674 193.463 307.096 193.453C308.518 193.443 309.94 193.453 311.362 193.47L313.495 193.496C314.206 193.512 314.917 193.522 315.628 193.545C314.206 193.587 312.784 193.607 311.362 193.626C309.94 193.644 308.518 193.646 307.096 193.654C305.674 193.662 304.252 193.654 302.83 193.638C301.408 193.622 299.986 193.605 298.564 193.565Z" fill="black"/>
</g>
<path opacity="0.2" d="M322.713 158.693C322.713 158.693 323.369 152.095 322.322 147.821C321.407 144.095 318.745 140.404 318.404 140.56C318.063 140.716 315.882 144.27 315.935 144.765C315.987 145.259 317.511 146.856 318.089 149.915C318.667 152.973 318.089 158.693 318.089 158.693H322.713Z" fill="white"/>
<path opacity="0.4" d="M320.516 158.693C320.516 158.693 321.175 152.095 320.125 147.821C319.21 144.095 316.551 140.403 316.219 140.553C315.887 140.703 315.624 141.464 315.677 141.959C315.729 142.454 317.84 144.916 318.994 149.908C319.689 152.951 318.994 158.687 318.994 158.687L320.516 158.693Z" fill="white"/>
<path opacity="0.2" d="M322.562 190.703C322.562 190.703 323.285 190.987 323.285 191.239V193.009C323.285 193.297 322.503 193.565 322.503 193.565C322.503 193.565 323.285 194.005 323.285 194.31V197.731C323.285 199.468 323.285 201.06 322.662 202.184C321.92 203.52 320.569 204.496 319.562 204.415C318.431 204.32 318.329 203.636 318.547 203.245C319.171 202.121 319.171 199.472 319.171 197.735V194.305C319.171 194.001 318.389 193.561 318.389 193.561C318.389 193.561 319.171 193.293 319.171 193.005V191.235C319.171 190.983 318.448 190.699 318.448 190.699C318.448 190.699 319.171 190.326 319.171 189.717V188.454C319.171 188.149 318.46 187.827 318.46 187.827C318.46 187.827 319.104 187.549 319.104 187.218V185.521C319.104 185.251 318.526 184.981 318.526 184.981C318.526 184.981 319.13 184.543 319.13 184.105V182.734C319.13 182.419 318.5 182.125 318.5 182.125C318.5 182.125 319.119 181.898 319.119 181.45V179.784C319.119 179.482 318.592 179.263 318.592 179.263C318.747 179.177 318.876 179.062 318.97 178.926C319.063 178.79 319.118 178.637 319.13 178.48V175.815C319.13 175.444 318.671 174.669 318.671 174.669V170.33H322.785V174.669C322.785 174.669 323.245 175.444 323.245 175.815V178.468C323.232 178.625 323.177 178.778 323.084 178.914C322.99 179.05 322.861 179.165 322.707 179.251C322.707 179.251 323.23 179.47 323.23 179.772V181.437C323.23 181.886 322.614 182.113 322.614 182.113C322.614 182.113 323.245 182.415 323.245 182.721V184.093C323.245 184.531 322.64 184.969 322.64 184.969C322.64 184.969 323.219 185.239 323.219 185.508V187.206C323.219 187.545 322.574 187.815 322.574 187.815C322.574 187.815 323.285 188.137 323.285 188.441V189.705C323.285 190.33 322.562 190.703 322.562 190.703Z" fill="white"/>
<path opacity="0.3" d="M313.299 148.716C316.048 148.716 315.589 155.061 315.589 162.192C315.589 169.324 316.276 173.833 313.375 173.833C309.154 173.833 310.126 164.872 310.126 161.695C310.126 158.519 309.875 148.716 313.299 148.716Z" fill="white"/>
<path opacity="0.4" d="M320.141 190.906C320.141 190.906 320.864 191.194 320.864 191.441C320.864 191.688 320.833 192.678 320.833 192.91C320.833 193.141 320.082 193.362 320.082 193.362H322.063C322.063 193.362 322.845 193.137 322.845 192.806V191.441C322.845 191.161 322.123 190.906 322.123 190.906H320.141Z" fill="white"/>
<path opacity="0.4" d="M320.141 188.04C320.141 188.04 320.864 188.326 320.864 188.575C320.864 188.825 320.833 189.813 320.833 190.042C320.833 190.271 320.082 190.496 320.082 190.496H322.063C322.063 190.496 322.845 190.271 322.845 189.94V188.575C322.845 188.295 322.123 188.04 322.123 188.04H320.141Z" fill="white"/>
<path opacity="0.4" d="M320.141 185.155C320.141 185.155 320.864 185.443 320.864 185.691C320.864 185.938 320.833 186.928 320.833 187.159C320.833 187.391 320.082 187.612 320.082 187.612H322.063C322.063 187.612 322.845 187.386 322.845 187.056V185.691C322.845 185.411 322.123 185.155 322.123 185.155H320.141Z" fill="white"/>
<path opacity="0.4" d="M320.141 182.273C320.141 182.273 320.864 182.559 320.864 182.809C320.864 183.058 320.833 184.046 320.833 184.275C320.833 184.504 320.082 184.73 320.082 184.73H322.063C322.063 184.73 322.845 184.504 322.845 184.174V182.809C322.845 182.529 322.123 182.273 322.123 182.273H320.141Z" fill="white"/>
<path opacity="0.4" d="M320.141 179.389C320.141 179.389 320.864 179.677 320.864 179.924C320.864 180.172 320.833 181.161 320.833 181.391C320.833 181.62 320.082 181.845 320.082 181.845H322.063C322.063 181.845 322.845 181.62 322.845 181.289V179.924C322.845 179.644 322.123 179.389 322.123 179.389H320.141Z" fill="white"/>
<path opacity="0.1" d="M318.199 131.014V132.342L308.548 133.137V133.038H307.773V132.397H308.548V131.014H318.199Z" fill="black"/>
<path d="M328.192 156.577H298.561V174.723H328.192V156.577Z" fill="#3871C1"/>
<path d="M328.192 156.577H298.561V174.723H328.192V156.577Z" fill="#3871C1"/>
<path opacity="0.1" d="M298.561 164.354V159.101C298.963 158.898 299.385 158.695 299.826 158.507C300.529 158.205 301.264 157.963 302.021 157.783C302.798 157.599 303.601 157.511 304.407 157.521C304.606 157.517 304.804 157.524 305.002 157.541C305.199 157.555 305.393 157.565 305.602 157.598C305.81 157.63 306.009 157.651 306.208 157.695L306.801 157.831C307.547 158.037 308.255 158.331 308.905 158.705C309.506 159.049 310.073 159.435 310.598 159.86C311.109 160.265 311.588 160.671 312.057 161.077L312.754 161.685C312.991 161.888 313.214 162.091 313.451 162.275C313.911 162.667 314.387 163.038 314.873 163.385C315.238 163.642 315.619 163.882 316.015 164.103C316.459 164.35 316.924 164.567 317.406 164.754C317.624 164.837 317.842 164.91 318.063 164.975C318.581 165.133 319.118 165.238 319.665 165.288C320.138 165.326 320.616 165.318 321.087 165.261C321.523 165.209 321.953 165.125 322.371 165.008C322.839 164.879 323.297 164.725 323.741 164.545C324.703 164.154 325.741 163.6 326.87 163.04C327.289 162.837 327.723 162.624 328.175 162.432V166.249C327.41 166.817 326.582 167.32 325.704 167.752C325.007 168.094 324.26 168.354 323.483 168.525C321.833 168.865 320.094 168.68 318.591 168.006C317.91 167.696 317.274 167.318 316.695 166.882C316.274 166.565 315.894 166.237 315.532 165.908C315.418 165.807 315.307 165.705 315.195 165.602L314.577 165.03L313.835 164.34C312.96 163.531 312.009 162.785 310.991 162.109C310.042 161.468 308.954 160.996 307.789 160.72C307.275 160.61 306.747 160.558 306.218 160.565L305.848 160.592C305.727 160.592 305.611 160.626 305.488 160.638C305.365 160.651 305.251 160.675 305.118 160.697C304.985 160.72 304.869 160.742 304.748 160.772C303.776 160.991 302.857 161.356 302.035 161.851C301.781 162 301.532 162.16 301.279 162.332L300.933 162.576C300.423 162.941 299.904 163.346 299.352 163.768C299.096 163.955 298.835 164.154 298.561 164.354Z" fill="black"/>
<path opacity="0.1" d="M298.561 159.042V158.324C298.902 158.547 299.229 158.784 299.544 159.03C300.037 159.401 300.509 159.786 300.966 160.176L301.291 160.431C302.118 161.117 302.95 161.8 303.817 162.431C304.76 163.146 305.827 163.731 306.979 164.167C307.542 164.367 308.133 164.503 308.737 164.573C309.334 164.627 309.936 164.619 310.531 164.549C311.729 164.405 312.878 164.049 313.906 163.504C314.131 163.389 314.354 163.267 314.574 163.137C315.065 162.853 315.541 162.539 316.015 162.21C316.316 162.007 316.612 161.79 316.913 161.575C317.909 160.82 318.977 160.137 320.106 159.535C320.708 159.228 321.349 158.981 322.016 158.798C322.698 158.612 323.409 158.516 324.125 158.512C324.816 158.517 325.505 158.574 326.185 158.681C326.355 158.705 326.524 158.739 326.689 158.782L327.189 158.902L327.678 159.058L327.915 159.137L328.152 159.232L328.182 159.245V160.275L328.137 160.257L327.716 160.115L327.505 160.046L327.289 159.993L326.858 159.884C326.561 159.841 326.272 159.778 325.971 159.75L325.521 159.711L325.298 159.691H325.061H324.606C324.458 159.683 324.309 159.683 324.161 159.691C322.988 159.773 321.858 160.104 320.871 160.652C319.686 161.261 318.579 162.072 317.397 162.861C316.797 163.267 316.179 163.654 315.52 164.015C315.209 164.186 314.889 164.35 314.56 164.504C313.355 165.091 312.011 165.438 310.628 165.518C309.934 165.557 309.237 165.513 308.557 165.389C307.889 165.253 307.245 165.045 306.64 164.768C305.436 164.228 304.436 163.484 303.466 162.74C302.599 162.058 301.774 161.348 300.914 160.673L300.639 160.46C299.984 159.948 299.289 159.474 298.561 159.042Z" fill="black"/>
<path d="M302.633 170.33H299.256V174.141H302.633V170.33Z" fill="white"/>
<path d="M299.501 170.509H299.416V173.661H299.501V170.509Z" fill="#263238"/>
<path d="M300.163 170.509H300.078V173.661H300.163V170.509Z" fill="#263238"/>
<path d="M301.704 170.509H301.619V173.661H301.704V170.509Z" fill="#263238"/>
<path d="M301.995 170.509H301.91V173.661H301.995V170.509Z" fill="#263238"/>
<path d="M301.066 170.509H300.98V173.661H301.066V170.509Z" fill="#263238"/>
<path d="M300.341 170.509H300.256V173.661H300.341V170.509Z" fill="#263238"/>
<path d="M302.372 170.509H302.287V173.661H302.372V170.509Z" fill="#263238"/>
<path d="M299.968 170.509H299.594V173.661H299.968V170.509Z" fill="#263238"/>
<path d="M301.531 170.509H301.156V173.661H301.531V170.509Z" fill="#263238"/>
<path d="M300.681 170.509H300.494V173.661H300.681V170.509Z" fill="#263238"/>
<path d="M302.246 170.509H302.059V173.661H302.246V170.509Z" fill="#263238"/>
<path d="M300.927 170.509H300.74V173.661H300.927V170.509Z" fill="#263238"/>
<path d="M301.85 170.509H301.803V173.661H301.85V170.509Z" fill="#263238"/>
<path d="M300.434 170.509H300.387V173.661H300.434V170.509Z" fill="#263238"/>
<path d="M302.473 170.509H302.426V173.661H302.473V170.509Z" fill="#263238"/>
<path d="M299.489 173.952V173.912H299.416V173.894L299.497 173.786H299.511V173.894H299.532V173.912H299.511V173.952H299.489ZM299.437 173.894H299.492V173.819L299.437 173.894Z" fill="#263238"/>
<path d="M299.604 173.848H299.625C299.631 173.847 299.636 173.847 299.642 173.848C299.647 173.853 299.65 173.859 299.654 173.866C299.66 173.88 299.66 173.896 299.654 173.91C299.652 173.917 299.648 173.924 299.642 173.929L299.623 173.941H299.601C299.589 173.941 299.578 173.937 299.568 173.931C299.558 173.926 299.551 173.918 299.547 173.908L299.561 173.896C299.565 173.903 299.57 173.91 299.578 173.914C299.585 173.917 299.594 173.917 299.601 173.914H299.627H299.639V173.902C299.642 173.893 299.642 173.883 299.639 173.874V173.862C299.635 173.861 299.631 173.861 299.627 173.862H299.613H299.597C299.59 173.865 299.585 173.87 299.582 173.876H299.563V173.858V173.841C299.563 173.841 299.563 173.829 299.563 173.823C299.563 173.817 299.563 173.795 299.563 173.779H299.642V173.797H299.578V173.852C299.582 173.851 299.586 173.851 299.59 173.852C299.594 173.849 299.599 173.848 299.604 173.848Z" fill="#263238"/>
<path d="M299.678 173.922V173.904C299.677 173.899 299.677 173.893 299.678 173.888C299.678 173.883 299.678 173.878 299.678 173.874L299.697 173.86H299.712H299.726V173.849C299.727 173.846 299.727 173.842 299.726 173.839H299.7L299.686 173.825H299.7H299.719H299.738C299.742 173.824 299.747 173.824 299.752 173.825V173.837C299.753 173.842 299.753 173.847 299.752 173.851C299.754 173.857 299.754 173.862 299.752 173.868C299.754 173.872 299.754 173.876 299.752 173.88V173.89H299.74H299.728V173.9C299.727 173.905 299.727 173.91 299.728 173.914H299.806V173.933L299.678 173.922Z" fill="#263238"/>
<path d="M299.912 173.848H299.934C299.939 173.847 299.945 173.847 299.95 173.848C299.951 173.854 299.951 173.86 299.95 173.866C299.956 173.875 299.96 173.886 299.96 173.897C299.96 173.908 299.956 173.919 299.95 173.929L299.931 173.941H299.908C299.896 173.941 299.885 173.937 299.877 173.931C299.867 173.926 299.859 173.918 299.855 173.908V173.896C299.86 173.904 299.866 173.91 299.874 173.914H299.896H299.912H299.924V173.902C299.927 173.893 299.927 173.883 299.924 173.874V173.862H299.912H299.898H299.879L299.865 173.876V173.841C299.865 173.841 299.865 173.829 299.865 173.823C299.865 173.817 299.865 173.795 299.865 173.779H299.946V173.797H299.882L299.87 173.852H299.884C299.885 173.85 299.887 173.848 299.889 173.847C299.892 173.845 299.894 173.844 299.897 173.844C299.9 173.844 299.903 173.844 299.905 173.844C299.908 173.845 299.91 173.846 299.912 173.848Z" fill="#263238"/>
<path d="M300.043 173.848H300.065C300.07 173.847 300.076 173.847 300.081 173.848C300.086 173.853 300.09 173.859 300.093 173.866C300.099 173.88 300.099 173.896 300.093 173.91C300.091 173.917 300.087 173.924 300.081 173.929L300.062 173.941H300.038C300.027 173.94 300.017 173.937 300.008 173.931C299.998 173.926 299.99 173.918 299.986 173.908L300.001 173.896C300.003 173.904 300.009 173.91 300.017 173.914C300.025 173.917 300.033 173.917 300.041 173.914H300.055H300.067V173.902C300.07 173.893 300.07 173.883 300.067 173.874V173.862H300.055H300.041H300.022L300.008 173.876H299.991V173.858V173.841C299.99 173.835 299.99 173.829 299.991 173.823V173.779H300.069V173.797H300.005V173.852C300.007 173.849 300.01 173.846 300.013 173.845C300.016 173.843 300.019 173.842 300.023 173.841C300.027 173.841 300.03 173.841 300.034 173.842C300.037 173.843 300.041 173.845 300.043 173.848Z" fill="#263238"/>
<path d="M300.233 173.866C300.234 173.873 300.234 173.88 300.233 173.888C300.231 173.895 300.227 173.902 300.221 173.908L300.202 173.92H300.179H300.155C300.148 173.917 300.141 173.912 300.136 173.906C300.131 173.899 300.127 173.89 300.124 173.882C300.123 173.872 300.123 173.861 300.124 173.851C300.123 173.837 300.123 173.822 300.124 173.807C300.126 173.796 300.13 173.786 300.136 173.776C300.141 173.769 300.147 173.763 300.155 173.758C300.164 173.756 300.172 173.756 300.181 173.758C300.19 173.755 300.2 173.755 300.209 173.758C300.219 173.763 300.226 173.77 300.231 173.778V173.793C300.227 173.785 300.222 173.779 300.214 173.774C300.207 173.773 300.2 173.773 300.193 173.774C300.19 173.773 300.187 173.773 300.185 173.773C300.182 173.773 300.179 173.773 300.176 173.774L300.162 173.786C300.161 173.794 300.161 173.801 300.162 173.809C300.161 173.818 300.161 173.828 300.162 173.837C300.165 173.829 300.171 173.822 300.179 173.817C300.187 173.814 300.196 173.814 300.205 173.817H300.226L300.245 173.829C300.25 173.835 300.254 173.841 300.257 173.847C300.25 173.854 300.242 173.861 300.233 173.866ZM300.174 173.906H300.191V173.896V173.884C300.192 173.878 300.192 173.873 300.191 173.868C300.192 173.863 300.192 173.858 300.191 173.853V173.839H300.174H300.16C300.158 173.844 300.158 173.849 300.16 173.853C300.159 173.858 300.159 173.863 300.16 173.868C300.158 173.873 300.158 173.878 300.16 173.884V173.896V173.906H300.174Z" fill="#263238"/>
<path d="M300.37 173.865C300.371 173.873 300.371 173.88 300.37 173.888C300.367 173.895 300.362 173.902 300.356 173.908L300.339 173.92H300.315H300.292C300.284 173.916 300.278 173.912 300.273 173.906C300.271 173.898 300.271 173.89 300.273 173.882C300.271 173.871 300.271 173.861 300.273 173.851C300.271 173.836 300.271 173.821 300.273 173.807C300.271 173.796 300.271 173.786 300.273 173.776C300.277 173.769 300.284 173.762 300.292 173.758C300.3 173.756 300.309 173.756 300.318 173.758C300.327 173.755 300.337 173.755 300.346 173.758C300.356 173.763 300.363 173.77 300.368 173.778L300.353 173.792C300.351 173.785 300.346 173.778 300.339 173.774C300.332 173.772 300.325 173.772 300.318 173.774C300.315 173.773 300.312 173.772 300.309 173.772C300.307 173.772 300.304 173.773 300.301 173.774C300.301 173.774 300.301 173.774 300.287 173.786C300.286 173.794 300.286 173.801 300.287 173.809C300.287 173.809 300.287 173.825 300.287 173.837C300.288 173.833 300.29 173.829 300.293 173.825C300.296 173.822 300.299 173.819 300.304 173.817C300.312 173.814 300.321 173.814 300.33 173.817H300.351L300.37 173.829C300.375 173.834 300.379 173.841 300.382 173.847C300.379 173.854 300.375 173.86 300.37 173.865ZM300.311 173.906H300.325L300.339 173.896V173.884C300.34 173.878 300.34 173.873 300.339 173.867C300.34 173.863 300.34 173.858 300.339 173.853V173.839H300.325H300.311H300.296H300.282V173.853C300.281 173.858 300.281 173.863 300.282 173.867C300.281 173.873 300.281 173.878 300.282 173.884V173.896L300.296 173.906H300.311Z" fill="#263238"/>
<path d="M300.472 173.803H300.387V173.782H300.503L300.422 173.954H300.399L300.472 173.803Z" fill="#263238"/>
<path d="M300.625 173.848H300.646H300.663C300.664 173.854 300.664 173.86 300.663 173.866C300.669 173.88 300.669 173.896 300.663 173.91C300.664 173.916 300.664 173.923 300.663 173.929L300.644 173.941H300.622C300.611 173.941 300.6 173.937 300.592 173.931C300.582 173.926 300.574 173.918 300.57 173.908L300.582 173.896C300.586 173.903 300.591 173.91 300.599 173.914C300.606 173.917 300.615 173.917 300.622 173.914H300.637C300.641 173.915 300.645 173.915 300.649 173.914V173.902C300.652 173.893 300.652 173.883 300.649 173.874V173.862C300.645 173.861 300.641 173.861 300.637 173.862H300.625H300.606C300.599 173.865 300.594 173.87 300.592 173.876H300.575V173.823C300.575 173.811 300.575 173.795 300.575 173.779H300.653V173.797H300.589V173.852C300.593 173.847 300.599 173.844 300.606 173.843C300.613 173.843 300.619 173.844 300.625 173.848Z" fill="#263238"/>
<path d="M300.754 173.848H300.775H300.792V173.866C300.793 173.873 300.793 173.881 300.792 173.888C300.794 173.895 300.794 173.903 300.792 173.91C300.79 173.917 300.786 173.924 300.78 173.929L300.761 173.941H300.74C300.728 173.941 300.717 173.937 300.709 173.931C300.699 173.926 300.691 173.918 300.688 173.908L300.699 173.896C300.703 173.903 300.709 173.91 300.716 173.914C300.724 173.916 300.732 173.916 300.74 173.914H300.754C300.758 173.915 300.762 173.915 300.766 173.914C300.767 173.913 300.768 173.911 300.768 173.908C300.768 173.906 300.767 173.904 300.766 173.902C300.769 173.898 300.771 173.893 300.771 173.888C300.771 173.883 300.769 173.878 300.766 173.874C300.767 173.872 300.767 173.87 300.767 173.868C300.767 173.866 300.767 173.864 300.766 173.862H300.751H300.733L300.718 173.876H300.699V173.823C300.699 173.811 300.699 173.795 300.699 173.779H300.78V173.797H300.714V173.852H300.728C300.731 173.848 300.735 173.846 300.74 173.845C300.745 173.844 300.75 173.845 300.754 173.848Z" fill="#263238"/>
<path d="M300.815 173.845C300.814 173.837 300.814 173.829 300.815 173.821C300.814 173.815 300.814 173.809 300.815 173.802C300.82 173.797 300.827 173.793 300.834 173.79C300.842 173.788 300.85 173.786 300.858 173.786C300.866 173.786 300.874 173.788 300.882 173.79C300.889 173.794 300.896 173.799 300.901 173.804C300.903 173.813 300.903 173.821 300.901 173.829C300.902 173.839 300.902 173.849 300.901 173.859C300.902 173.874 300.902 173.888 300.901 173.902C300.903 173.913 300.903 173.924 300.901 173.935C300.896 173.942 300.89 173.948 300.882 173.953C300.873 173.955 300.864 173.955 300.856 173.953C300.846 173.956 300.836 173.956 300.827 173.953C300.817 173.948 300.809 173.94 300.806 173.931L300.82 173.919C300.822 173.926 300.827 173.932 300.834 173.937H300.856C300.862 173.937 300.869 173.935 300.874 173.931C300.88 173.928 300.884 173.924 300.887 173.919C300.891 173.902 300.891 173.886 300.887 173.87C300.883 173.877 300.877 173.884 300.87 173.89C300.861 173.892 300.852 173.892 300.844 173.89H300.822L300.803 173.878C300.803 173.872 300.803 173.866 300.803 173.859C300.807 173.854 300.811 173.85 300.815 173.845ZM300.875 173.804H300.858H300.846V173.819C300.845 173.824 300.845 173.83 300.846 173.835C300.845 173.84 300.845 173.845 300.846 173.849C300.845 173.853 300.845 173.857 300.846 173.861C300.846 173.861 300.846 173.861 300.858 173.872H300.889C300.89 173.868 300.89 173.865 300.889 173.861C300.891 173.858 300.891 173.853 300.889 173.849C300.89 173.845 300.89 173.84 300.889 173.835C300.89 173.83 300.89 173.824 300.889 173.819C300.89 173.814 300.89 173.809 300.889 173.804H300.875Z" fill="#263238"/>
<path d="M301.08 173.865C301.081 173.873 301.081 173.88 301.08 173.888C301.076 173.895 301.072 173.902 301.066 173.908L301.049 173.92H301.025H301.002C300.994 173.916 300.988 173.912 300.983 173.906C300.977 173.898 300.973 173.89 300.971 173.882C300.968 173.872 300.968 173.861 300.971 173.851C300.969 173.836 300.969 173.821 300.971 173.807C300.973 173.796 300.977 173.786 300.983 173.776C300.987 173.769 300.994 173.762 301.002 173.758C301.01 173.756 301.019 173.756 301.028 173.758C301.037 173.755 301.047 173.755 301.056 173.758C301.056 173.758 301.07 173.77 301.077 173.778L301.063 173.792C301.061 173.785 301.056 173.778 301.049 173.774C301.042 173.772 301.035 173.772 301.028 173.774C301.021 173.772 301.015 173.772 301.009 173.774C301.006 173.775 301.003 173.777 301.001 173.779C300.999 173.781 300.998 173.784 300.997 173.786C300.995 173.794 300.995 173.801 300.997 173.809C300.995 173.818 300.995 173.828 300.997 173.837C300.998 173.833 301 173.829 301.003 173.825C301.005 173.822 301.009 173.819 301.013 173.817C301.022 173.814 301.031 173.814 301.039 173.817H301.061L301.08 173.829V173.847C301.08 173.853 301.08 173.859 301.08 173.865ZM301.021 173.906H301.035L301.049 173.896V173.884C301.05 173.878 301.05 173.873 301.049 173.867C301.05 173.863 301.05 173.858 301.049 173.853V173.839H301.035H301.021H301.006H300.992V173.853C300.991 173.858 300.991 173.863 300.992 173.867C300.991 173.873 300.991 173.878 300.992 173.884V173.896L301.006 173.906H301.021Z" fill="#263238"/>
<path d="M301.097 173.845C301.096 173.837 301.096 173.829 301.097 173.821C301.097 173.815 301.097 173.809 301.097 173.802C301.103 173.797 301.109 173.793 301.116 173.79C301.124 173.788 301.132 173.786 301.14 173.786C301.148 173.786 301.156 173.788 301.164 173.79C301.171 173.794 301.178 173.799 301.183 173.804C301.185 173.813 301.185 173.821 301.183 173.829C301.185 173.839 301.185 173.849 301.183 173.859C301.184 173.874 301.184 173.888 301.183 173.902C301.185 173.913 301.185 173.924 301.183 173.935C301.179 173.942 301.172 173.948 301.164 173.953C301.155 173.955 301.146 173.955 301.138 173.953C301.129 173.956 301.119 173.956 301.109 173.953C301.099 173.948 301.092 173.94 301.088 173.931L301.102 173.919C301.104 173.926 301.109 173.932 301.116 173.937H301.138C301.144 173.937 301.151 173.935 301.156 173.931C301.162 173.928 301.166 173.924 301.169 173.919C301.178 173.903 301.182 173.887 301.181 173.87C301.177 173.877 301.171 173.884 301.164 173.89C301.155 173.892 301.146 173.892 301.138 173.89H301.116L301.097 173.878C301.097 173.872 301.097 173.866 301.097 173.859C301.097 173.855 301.097 173.85 301.097 173.845ZM301.157 173.804H301.14H301.128V173.819C301.127 173.824 301.127 173.83 301.128 173.835C301.127 173.84 301.127 173.845 301.128 173.849V173.861C301.128 173.861 301.128 173.861 301.14 173.872H301.171C301.176 173.869 301.18 173.866 301.183 173.861C301.185 173.858 301.185 173.853 301.183 173.849C301.184 173.845 301.184 173.84 301.183 173.835C301.184 173.83 301.184 173.824 301.183 173.819C301.184 173.814 301.184 173.809 301.183 173.804H301.171H301.157Z" fill="#263238"/>
<path d="M301.365 173.865C301.37 173.866 301.375 173.868 301.379 173.87C301.383 173.873 301.387 173.876 301.389 173.88C301.392 173.889 301.392 173.899 301.389 173.908C301.39 173.915 301.39 173.922 301.389 173.928C301.386 173.934 301.382 173.94 301.377 173.945L301.361 173.955H301.339C301.329 173.957 301.319 173.957 301.308 173.955C301.299 173.951 301.291 173.943 301.287 173.934L301.301 173.922C301.304 173.928 301.309 173.933 301.316 173.936C301.319 173.938 301.323 173.938 301.327 173.938C301.331 173.938 301.335 173.938 301.339 173.936C301.343 173.938 301.347 173.939 301.351 173.939C301.355 173.939 301.359 173.938 301.363 173.936C301.365 173.933 301.366 173.929 301.366 173.925C301.366 173.921 301.365 173.918 301.363 173.914C301.364 173.91 301.363 173.905 301.362 173.901C301.36 173.897 301.357 173.893 301.354 173.89C301.35 173.886 301.345 173.884 301.34 173.883C301.335 173.881 301.33 173.881 301.325 173.882V173.863C301.329 173.865 301.334 173.866 301.338 173.866C301.343 173.866 301.347 173.865 301.351 173.863C301.353 173.857 301.353 173.85 301.351 173.843C301.354 173.837 301.354 173.829 301.351 173.823H301.33C301.323 173.82 301.315 173.82 301.308 173.823C301.302 173.827 301.296 173.833 301.292 173.839V173.825C301.292 173.825 301.292 173.825 301.308 173.825H301.344L301.361 173.835V173.847C301.362 173.853 301.362 173.859 301.361 173.865V173.88V173.892L301.365 173.865Z" fill="#263238"/>
<path d="M301.482 173.952V173.912H301.408V173.894L301.489 173.786H301.503V173.894H301.522V173.912H301.501V173.952H301.482ZM301.43 173.894H301.484V173.819L301.43 173.894Z" fill="#263238"/>
<path d="M301.596 173.848H301.617C301.623 173.847 301.628 173.847 301.634 173.848C301.639 173.853 301.643 173.859 301.646 173.866C301.652 173.88 301.652 173.896 301.646 173.91C301.644 173.917 301.64 173.924 301.634 173.929L301.615 173.941H301.594C301.582 173.941 301.57 173.937 301.56 173.931C301.55 173.926 301.543 173.918 301.539 173.908L301.553 173.896C301.556 173.904 301.562 173.91 301.57 173.914C301.578 173.917 301.586 173.917 301.594 173.914H301.608V173.902C301.611 173.893 301.611 173.883 301.608 173.874V173.862H301.594H301.575L301.56 173.876H301.544V173.858V173.841V173.823C301.544 173.811 301.544 173.795 301.544 173.779H301.622V173.797H301.558V173.852C301.562 173.851 301.566 173.851 301.57 173.852C301.573 173.849 301.578 173.847 301.582 173.846C301.587 173.845 301.592 173.846 301.596 173.848Z" fill="#263238"/>
<path d="M301.723 173.848H301.742H301.761C301.762 173.854 301.762 173.86 301.761 173.866C301.763 173.873 301.763 173.881 301.761 173.888C301.762 173.895 301.762 173.903 301.761 173.91C301.759 173.917 301.755 173.924 301.749 173.929L301.73 173.941H301.709C301.697 173.941 301.685 173.937 301.676 173.931C301.666 173.926 301.658 173.918 301.654 173.908L301.669 173.896C301.672 173.903 301.678 173.91 301.685 173.914C301.693 173.917 301.701 173.917 301.709 173.914H301.723C301.727 173.915 301.731 173.915 301.735 173.914V173.902C301.738 173.893 301.738 173.883 301.735 173.874V173.862C301.731 173.861 301.727 173.861 301.723 173.862H301.704C301.697 173.865 301.692 173.87 301.69 173.876H301.671V173.841C301.671 173.841 301.671 173.829 301.671 173.823C301.671 173.817 301.671 173.795 301.671 173.779H301.759V173.797H301.695V173.852C301.698 173.851 301.703 173.851 301.706 173.852C301.711 173.849 301.717 173.847 301.723 173.848Z" fill="#263238"/>
<path d="M301.912 173.848H301.934C301.939 173.847 301.945 173.847 301.95 173.848C301.955 173.853 301.959 173.859 301.962 173.866C301.968 173.88 301.968 173.896 301.962 173.91C301.96 173.917 301.956 173.924 301.95 173.929L301.931 173.941H301.908C301.896 173.94 301.886 173.937 301.877 173.931C301.867 173.926 301.859 173.918 301.855 173.908L301.87 173.896C301.872 173.904 301.878 173.91 301.886 173.914C301.894 173.917 301.902 173.917 301.91 173.914H301.924H301.936V173.902C301.939 173.893 301.939 173.883 301.936 173.874V173.862H301.924H301.91H301.891L301.877 173.876H301.86V173.858V173.841C301.859 173.835 301.859 173.829 301.86 173.823V173.779H301.938V173.797H301.874V173.852C301.878 173.851 301.882 173.851 301.886 173.852C301.89 173.849 301.894 173.847 301.899 173.846C301.903 173.845 301.908 173.846 301.912 173.848Z" fill="#263238"/>
<path d="M302.053 173.866C302.062 173.868 302.071 173.873 302.076 173.88C302.079 173.889 302.079 173.899 302.076 173.908C302.078 173.915 302.078 173.922 302.076 173.928C302.078 173.934 302.078 173.939 302.076 173.945L302.06 173.955H302.036C302.026 173.957 302.015 173.957 302.005 173.955C301.997 173.95 301.99 173.943 301.986 173.935L301.998 173.922L302.012 173.937C302.02 173.939 302.028 173.939 302.036 173.937C302.04 173.938 302.045 173.939 302.049 173.939C302.054 173.939 302.058 173.938 302.062 173.937C302.065 173.929 302.065 173.921 302.062 173.914C302.065 173.906 302.065 173.898 302.062 173.89C302.053 173.887 302.043 173.887 302.034 173.89V173.872C302.037 173.873 302.041 173.874 302.046 173.874C302.05 173.874 302.054 173.873 302.057 173.872C302.059 173.868 302.06 173.865 302.06 173.862C302.06 173.858 302.059 173.855 302.057 173.851C302.06 173.845 302.06 173.838 302.057 173.831H302.036C302.028 173.829 302.02 173.829 302.012 173.831C302.006 173.836 302.002 173.841 301.998 173.847V173.833H302.012H302.05C302.05 173.833 302.062 173.833 302.065 173.843L302.076 173.855C302.078 173.861 302.078 173.868 302.076 173.874C302.078 173.878 302.078 173.883 302.076 173.888C302.077 173.892 302.077 173.896 302.076 173.9L302.053 173.866Z" fill="#263238"/>
<path d="M302.177 173.952V173.912H302.104V173.894L302.184 173.786H302.198V173.894H302.217V173.912H302.198V173.952H302.177ZM302.125 173.894H302.179V173.819L302.125 173.894Z" fill="#263238"/>
<path d="M302.291 173.848H302.313C302.318 173.847 302.324 173.847 302.329 173.848C302.334 173.853 302.338 173.859 302.341 173.866C302.346 173.876 302.347 173.888 302.345 173.899C302.343 173.91 302.337 173.92 302.329 173.929L302.31 173.941H302.287C302.275 173.941 302.264 173.937 302.256 173.931C302.246 173.926 302.238 173.918 302.234 173.908L302.246 173.896C302.251 173.904 302.257 173.91 302.265 173.914H302.287H302.303C302.305 173.911 302.305 173.906 302.303 173.902C302.303 173.902 302.303 173.902 302.303 173.888C302.303 173.874 302.303 173.878 302.303 173.874V173.862H302.289H302.27L302.256 173.876H302.239V173.841C302.239 173.841 302.239 173.829 302.239 173.823V173.779H302.32V173.797H302.256V173.852H302.27C302.273 173.849 302.276 173.847 302.28 173.847C302.284 173.846 302.288 173.846 302.291 173.848Z" fill="#263238"/>
<path d="M302.432 173.865C302.442 173.867 302.45 173.872 302.456 173.879C302.458 173.888 302.458 173.898 302.456 173.907C302.457 173.914 302.457 173.921 302.456 173.928C302.457 173.933 302.457 173.939 302.456 173.944L302.439 173.954H302.415C302.405 173.956 302.395 173.956 302.385 173.954C302.375 173.95 302.367 173.943 302.363 173.934L302.378 173.922L302.392 173.936C302.399 173.938 302.408 173.938 302.415 173.936C302.42 173.937 302.424 173.938 302.428 173.938C302.433 173.938 302.437 173.937 302.441 173.936C302.447 173.929 302.45 173.921 302.45 173.913C302.45 173.904 302.447 173.896 302.441 173.889C302.441 173.889 302.427 173.889 302.413 173.889V173.871C302.417 173.872 302.421 173.873 302.425 173.873C302.429 173.873 302.433 173.872 302.437 173.871C302.438 173.868 302.439 173.864 302.439 173.861C302.439 173.857 302.438 173.854 302.437 173.851C302.438 173.847 302.439 173.844 302.439 173.841C302.439 173.837 302.438 173.834 302.437 173.83C302.43 173.828 302.422 173.828 302.415 173.83H302.394C302.387 173.834 302.382 173.84 302.38 173.847L302.366 173.832C302.37 173.832 302.374 173.832 302.378 173.832H302.392H302.43L302.444 173.843L302.456 173.855C302.457 173.861 302.457 173.867 302.456 173.873C302.457 173.878 302.457 173.883 302.456 173.887C302.457 173.891 302.457 173.895 302.456 173.899L302.432 173.865Z" fill="#263238"/>
<path d="M308.283 162.135V160.206H309.215C309.307 160.206 309.399 160.224 309.482 160.259C309.563 160.293 309.636 160.339 309.696 160.397C309.756 160.457 309.802 160.525 309.833 160.6C309.868 160.67 309.885 160.745 309.885 160.821C309.885 160.899 309.869 160.977 309.838 161.05C309.808 161.124 309.763 161.193 309.705 161.253C309.647 161.309 309.577 161.354 309.499 161.387C309.417 161.422 309.326 161.44 309.234 161.44H308.504V162.152L308.283 162.135ZM308.504 161.255H309.215C309.277 161.256 309.339 161.243 309.395 161.218C309.448 161.195 309.495 161.161 309.532 161.121C309.613 161.033 309.655 160.924 309.653 160.813C309.654 160.755 309.642 160.697 309.617 160.642C309.594 160.591 309.56 160.544 309.518 160.502C309.478 160.463 309.429 160.431 309.373 160.409C309.318 160.387 309.257 160.375 309.196 160.375H308.485L308.504 161.255Z" fill="white"/>
<path d="M311.877 161.977C312.001 161.981 312.123 161.957 312.233 161.908C312.323 161.863 312.401 161.801 312.458 161.726C312.515 161.647 312.554 161.561 312.574 161.47C312.597 161.374 312.608 161.276 312.607 161.178V160.206H312.83V161.178C312.831 161.303 312.814 161.428 312.78 161.549C312.748 161.66 312.693 161.764 312.617 161.857C312.54 161.948 312.439 162.021 312.323 162.07C312.182 162.123 312.031 162.149 311.877 162.149C311.724 162.149 311.572 162.123 311.432 162.07C311.315 162.018 311.215 161.943 311.138 161.851C311.063 161.757 311.009 161.652 310.979 161.541C310.948 161.423 310.932 161.303 310.932 161.182V160.21H311.152V161.182C311.151 161.281 311.162 161.381 311.185 161.478C311.206 161.569 311.247 161.656 311.306 161.734C311.362 161.809 311.438 161.871 311.529 161.914C311.637 161.96 311.757 161.982 311.877 161.977Z" fill="white"/>
<path d="M314.07 162.135V160.206H315.018C315.112 160.206 315.204 160.224 315.288 160.259C315.368 160.293 315.44 160.34 315.499 160.397C315.56 160.457 315.606 160.525 315.637 160.6C315.699 160.735 315.704 160.884 315.649 161.022C315.627 161.084 315.592 161.144 315.547 161.196C315.504 161.247 315.451 161.291 315.39 161.326C315.329 161.363 315.258 161.387 315.184 161.399L315.743 162.135H315.492L314.964 161.423H314.295V162.135H314.07ZM314.291 161.255H315.033C315.095 161.256 315.157 161.243 315.213 161.218C315.266 161.194 315.313 161.16 315.35 161.119C315.389 161.076 315.419 161.028 315.44 160.977C315.46 160.924 315.47 160.869 315.471 160.813C315.471 160.755 315.459 160.698 315.435 160.644C315.411 160.594 315.377 160.547 315.336 160.504C315.294 160.465 315.244 160.433 315.189 160.409C315.134 160.387 315.074 160.375 315.014 160.375H314.303L314.291 161.255Z" fill="white"/>
<path d="M318.372 161.967V162.135H316.857V160.206H318.355V160.375H317.092V161.07H318.194V161.231H317.092V161.967H318.372Z" fill="white"/>
<path d="M304.061 163.046H304.892C305.039 163.655 305.184 164.308 305.326 164.977C305.53 164.359 305.735 163.716 305.942 163.046H306.781C306.471 164.014 306.163 164.937 305.855 165.809C306.013 166.495 306.177 167.202 306.348 167.933C306.864 166.426 307.383 164.779 307.898 163.028H308.872C308.161 165.369 307.414 167.553 306.679 169.482C306.426 169.393 306.172 169.3 305.921 169.198C305.684 168.229 305.473 167.298 305.248 166.413C304.951 167.159 304.658 167.852 304.369 168.495C304.132 168.371 303.895 168.243 303.658 168.109C303.143 166.081 302.598 164.361 301.973 163.038H302.947C303.359 164.223 303.736 165.606 304.098 167.152C304.305 166.663 304.518 166.138 304.734 165.588C304.508 164.691 304.288 163.833 304.061 163.046Z" fill="white"/>
<path d="M310.29 163.032H311.088C311.631 165.509 312.209 168.061 312.828 170.598C312.496 170.598 312.167 170.574 311.835 170.55C311.69 169.915 311.546 169.28 311.406 168.647C310.837 168.604 310.271 168.546 309.709 168.466C309.543 169.049 309.377 169.622 309.209 170.185C308.884 170.118 308.561 170.043 308.242 169.959C308.937 167.809 309.626 165.471 310.29 163.032ZM311.238 167.615C311.032 166.623 310.833 165.637 310.638 164.663C310.389 165.622 310.136 166.569 309.88 167.503C310.337 167.546 310.79 167.584 311.238 167.615Z" fill="white"/>
<path d="M316.428 164.286C315.926 164.3 315.425 164.312 314.923 164.318C314.952 166.393 314.981 168.468 315.011 170.543C314.691 170.57 314.373 170.588 314.063 170.6C314.049 168.509 314.036 166.419 314.025 164.328C313.522 164.328 313.02 164.328 312.518 164.328C312.518 163.898 312.518 163.47 312.518 163.04H316.395C316.404 163.448 316.416 163.862 316.428 164.286Z" fill="white"/>
<path d="M320.456 168.221L320.506 169.288C319.439 169.697 318.328 170.015 317.188 170.235C317.113 167.834 317.039 165.433 316.965 163.032H320.141L320.19 164.101C319.435 164.153 318.677 164.194 317.915 164.225C317.936 164.788 317.956 165.349 317.977 165.909C318.64 165.842 319.302 165.759 319.956 165.661C319.97 165.998 319.987 166.333 320.001 166.675C319.347 166.811 318.686 166.925 318.019 167.018C318.041 167.627 318.064 168.235 318.086 168.844C318.89 168.679 319.682 168.471 320.456 168.221Z" fill="white"/>
<path d="M321.191 169.002C321.095 167.011 320.999 165.022 320.904 163.032H322.964C323.173 163.033 323.378 163.079 323.561 163.166C323.74 163.251 323.901 163.361 324.035 163.493C324.165 163.62 324.27 163.765 324.345 163.921C324.417 164.074 324.455 164.238 324.457 164.404C324.455 164.68 324.385 164.952 324.251 165.203C324.118 165.471 323.925 165.714 323.684 165.919C323.976 166.309 324.305 166.677 324.67 167.018C324.376 167.233 324.078 167.436 323.774 167.627C323.433 167.244 323.116 166.845 322.826 166.432C322.544 166.533 322.258 166.635 321.968 166.726L322.054 168.592C321.781 168.748 321.49 168.874 321.191 169.002ZM321.935 165.783C322.305 165.696 322.672 165.6 323.035 165.501C323.12 165.476 323.196 165.433 323.258 165.377C323.328 165.313 323.386 165.241 323.431 165.162C323.48 165.076 323.518 164.984 323.542 164.89C323.571 164.79 323.583 164.687 323.578 164.584C323.577 164.484 323.557 164.385 323.518 164.29C323.486 164.208 323.437 164.132 323.374 164.065C323.319 164.005 323.248 163.957 323.168 163.925C323.095 163.893 323.012 163.879 322.931 163.886C322.57 163.921 322.208 163.951 321.845 163.982C321.885 164.582 321.902 165.183 321.94 165.783H321.935Z" fill="white"/>
<path d="M319.346 127.832H307.408V132.035H319.346V127.832Z" fill="#3871C1"/>
<path d="M318.582 127H308.174L307.408 127.832H319.348L318.582 127Z" fill="#3871C1"/>
<path opacity="0.1" d="M318.582 127H308.174L307.408 127.832H319.348L318.582 127Z" fill="black"/>
<g opacity="0.1">
<path d="M307.951 128.17H307.73V131.695H307.951V128.17Z" fill="black"/>
<path d="M308.568 128.17H308.348V131.695H308.568V128.17Z" fill="black"/>
<path d="M309.183 128.17H308.963V131.695H309.183V128.17Z" fill="black"/>
<path d="M309.8 128.17H309.58V131.695H309.8V128.17Z" fill="black"/>
<path d="M310.412 128.17H310.191V131.695H310.412V128.17Z" fill="black"/>
<path d="M311.029 128.17H310.809V131.695H311.029V128.17Z" fill="black"/>
<path d="M311.644 128.17H311.424V131.695H311.644V128.17Z" fill="black"/>
<path d="M312.256 128.17H312.035V131.695H312.256V128.17Z" fill="black"/>
<path d="M312.877 128.17H312.656V131.695H312.877V128.17Z" fill="black"/>
<path d="M313.494 128.17H313.273V131.695H313.494V128.17Z" fill="black"/>
<path d="M314.099 128.17H313.879V131.695H314.099V128.17Z" fill="black"/>
<path d="M314.717 128.17H314.496V131.695H314.717V128.17Z" fill="black"/>
<path d="M315.332 128.17H315.111V131.695H315.332V128.17Z" fill="black"/>
<path d="M315.949 128.17H315.729V131.695H315.949V128.17Z" fill="black"/>
<path d="M316.564 128.17H316.344V131.695H316.564V128.17Z" fill="black"/>
<path d="M317.181 128.17H316.961V131.695H317.181V128.17Z" fill="black"/>
<path d="M317.795 128.17H317.574V131.695H317.795V128.17Z" fill="black"/>
<path d="M318.41 128.17H318.189V131.695H318.41V128.17Z" fill="black"/>
<path d="M319.027 128.17H318.807V131.695H319.027V128.17Z" fill="black"/>
</g>
</g>
<defs>
<clipPath id="clip0_1113_33698">
<rect width="576" height="558" fill="white"/>
</clipPath>
</defs>
</svg>
