<svg width="49" height="48" viewBox="0 0 49 48" fill="none" xmlns="http://www.w3.org/2000/svg">
<rect x="0.5" width="48" height="48" rx="24" fill="#EEF3F9"/>
<path d="M21.67 34.75H15C14.59 34.75 14.25 34.41 14.25 34V28C14.25 26.48 15.48 25.25 17 25.25H21.67C22.08 25.25 22.42 25.59 22.42 26V34C22.42 34.41 22.08 34.75 21.67 34.75ZM15.75 33.25H20.92V26.75H17C16.31 26.75 15.75 27.31 15.75 28V33.25Z" fill="#3871C1"/>
<path d="M28.3302 34.75H21.6602C21.2502 34.75 20.9102 34.41 20.9102 34V24C20.9102 22.48 22.1402 21.25 23.6602 21.25H26.3302C27.8502 21.25 29.0802 22.48 29.0802 24V34C29.0802 34.41 28.7502 34.75 28.3302 34.75ZM22.4202 33.25H27.5902V24C27.5902 23.31 27.0302 22.75 26.3402 22.75H23.6702C22.9802 22.75 22.4202 23.31 22.4202 24V33.25Z" fill="#3871C1"/>
<path d="M35.0001 34.75H28.3301C27.9201 34.75 27.5801 34.41 27.5801 34V29C27.5801 28.59 27.9201 28.25 28.3301 28.25H33.0001C34.5201 28.25 35.7501 29.48 35.7501 31V34C35.7501 34.41 35.4101 34.75 35.0001 34.75ZM29.0801 33.25H34.2501V31C34.2501 30.31 33.6901 29.75 33.0001 29.75H29.0801V33.25Z" fill="#3871C1"/>
<path d="M26.6989 20.35C26.4589 20.35 26.1589 20.28 25.8189 20.08L24.9989 19.59L24.1889 20.07C23.3689 20.56 22.8289 20.27 22.6289 20.13C22.4289 19.99 21.9989 19.55 22.2089 18.63L22.3989 17.8L21.7189 17.12C21.2989 16.7 21.1489 16.2 21.2989 15.74C21.4489 15.28 21.8589 14.96 22.4389 14.86L23.3089 14.71L23.7989 13.73C24.3389 12.66 25.6489 12.66 26.1789 13.73L26.6689 14.71L27.5389 14.86C28.1189 14.96 28.5389 15.28 28.6789 15.74C28.8289 16.2 28.6689 16.7 28.2589 17.12L27.5789 17.8L27.7689 18.63C27.9789 19.56 27.5489 19.99 27.3489 20.14C27.2589 20.22 27.0289 20.35 26.6989 20.35ZM24.9989 18.08C25.2389 18.08 25.4789 18.14 25.6789 18.26L26.2389 18.59L26.1189 18.05C26.0189 17.63 26.1689 17.12 26.4789 16.81L26.9889 16.3L26.3589 16.19C25.9589 16.12 25.5689 15.83 25.3889 15.47L24.9989 14.72L24.6189 15.47C24.4389 15.83 24.0489 16.12 23.6489 16.19L23.0189 16.29L23.5289 16.8C23.8389 17.11 23.9789 17.62 23.8889 18.04L23.7689 18.58L24.3289 18.25C24.5189 18.13 24.7589 18.08 24.9989 18.08Z" fill="#3871C1"/>
</svg>
