<svg width="50" height="50" viewBox="0 0 50 50" fill="none" xmlns="http://www.w3.org/2000/svg">
<rect width="50" height="50" rx="8" fill="#F6F6F6"/>
<g clip-path="url(#clip0_1113_33522)">
<path d="M39.0059 24.3687C42.3746 26.725 44.3746 30.5687 44.3746 34.675C44.3746 36.5187 43.8496 38.325 42.8559 39.8813C41.9684 41.2812 40.7496 42.4063 39.3434 43.175C37.9371 43.95 36.3371 44.375 34.6746 44.375H31.8746V40.625H33.1246V36.875H31.8746V33.125H32.4996V29.375H24.3746H23.1246V25.625H16.9746C17.4434 25.1687 17.9496 24.75 18.4934 24.3687L25.6246 19.375H31.8746L39.0059 24.3687Z" fill="#89512B"/>
<path d="M34.7627 23.8856C33.4946 22.88 32.1859 21.9662 31.2246 21.3225L34.1852 20.9938L31.8746 19.375H25.6246L18.4934 24.3687C17.9496 24.75 17.4434 25.1687 16.9746 25.625H20.4252L23.2134 23.83C25.0552 22.6444 27.1277 21.8731 29.2909 21.5538C29.9009 21.94 32.0252 23.31 33.9865 24.865C34.1015 24.9563 34.2377 25 34.374 25C34.5584 25 34.7409 24.9188 34.864 24.7631C35.079 24.4925 35.0334 24.1 34.7627 23.8856Z" fill="#A06944"/>
<path d="M32.5 33.125L31.875 33.2031V36.875H33.125V40.625H31.875V44.375H34.675C36.3375 44.375 37.9375 43.95 39.3438 43.175C40.75 42.4063 41.9688 41.2813 42.8562 39.8813C43.2131 39.3219 43.5075 38.73 43.7406 38.1163C35.2288 42.9381 32.5 33.125 32.5 33.125Z" fill="#673915"/>
<path d="M24.375 33.125H31.875H32.5V29.375H30.625H24.375V33.125Z" fill="#F4971E"/>
<path d="M23.125 33.125V36.875H24.375H31.875V33.125H24.375H23.125Z" fill="#FFBE1D"/>
<path d="M24.375 40.625H31.875H33.125V36.875H31.875H24.375V40.625Z" fill="#F4971E"/>
<path d="M24.375 40.625H31.875V44.375H24.375V40.625Z" fill="#FFBE1D"/>
<path d="M11.875 29.375H14.4713H23.125V25.625H12.7406H11.875V29.375Z" fill="#F4971E"/>
<path d="M13.125 33.125H15.7212H24.375V29.375H13.9906H13.125V33.125Z" fill="#FFBE1D"/>
<path d="M13.125 36.875H24.375V40.625H13.125V36.875Z" fill="#FFBE1D"/>
<path d="M13.125 40.625H24.375V44.375H13.125V40.625Z" fill="#F4971E"/>
<path d="M11.875 33.125H23.125V36.875H11.875V33.125Z" fill="#F4971E"/>
<path d="M5.625 33.125H11.875V36.875H5.625V33.125Z" fill="#FFBE1D"/>
<path d="M6.875 36.875H13.125V40.625H6.875V36.875Z" fill="#F4971E"/>
<path d="M5.625 40.625H13.125V44.375H5.625V40.625Z" fill="#FFBE1D"/>
<path d="M15.625 25.625H16.875V29.375H15.625V25.625Z" fill="#FCB35B"/>
<path d="M18.125 25.625H20V29.375H18.125V25.625Z" fill="#FCB35B"/>
<path d="M17.5 33.125H18.75V36.875H17.5V33.125Z" fill="#FCB35B"/>
<path d="M20 33.125H21.25V36.875H20V33.125Z" fill="#FCB35B"/>
<path d="M18.75 40.625H20V44.375H18.75V40.625Z" fill="#FCB35B"/>
<path d="M15 40.625H16.25V44.375H15V40.625Z" fill="#FCB35B"/>
<path d="M21.25 40.625H22.5V44.375H21.25V40.625Z" fill="#FCB35B"/>
<path d="M14.375 33.125H16.25V36.875H14.375V33.125Z" fill="#FCB35B"/>
<path d="M20 29.375H21.25V33.125H20V29.375Z" fill="#FFD877"/>
<path d="M16.875 29.375H18.75V33.125H16.875V29.375Z" fill="#FFD877"/>
<path d="M16.25 36.875H17.5V40.625H16.25V36.875Z" fill="#FFD877"/>
<path d="M18.75 36.875H20.625V40.625H18.75V36.875Z" fill="#FFD877"/>
<path d="M24.375 29.375H26.875V33.125H24.375V29.375Z" fill="#D37E18"/>
<path d="M9.375 33.125H11.875V36.875H9.375V33.125Z" fill="#E2A01E"/>
<path d="M10.625 40.625H13.125V44.375H10.625V40.625Z" fill="#E2A01E"/>
<path d="M10.625 36.875H13.125V40.625H10.625V36.875Z" fill="#D37E18"/>
<path d="M23.125 33.125H25.625V36.875H23.125V33.125Z" fill="#E2A01E"/>
<path d="M24.375 36.875H26.875V40.625H24.375V36.875Z" fill="#D37E18"/>
<path d="M24.375 40.625H26.875V44.375H24.375V40.625Z" fill="#E2A01E"/>
<path d="M17.5 13.125C17.5 15.1981 19.1769 16.875 21.25 16.875C20.2106 16.875 19.2787 17.2931 18.5981 17.9731C17.9175 18.6531 17.5 19.5856 17.5 20.625C17.5 19.5856 17.0819 18.6537 16.4019 17.9731C15.7219 17.2925 14.7894 16.875 13.75 16.875C14.7894 16.875 15.7213 16.4569 16.4019 15.7769C17.0825 15.0969 17.5 14.1644 17.5 13.125Z" fill="#F7E784"/>
<path d="M10.075 22.575C9.7375 22.9125 9.26875 23.125 8.75 23.125C8.23125 23.125 7.7625 22.9125 7.425 22.575C7.0875 22.2375 6.875 21.7687 6.875 21.25C6.875 20.7313 7.0875 20.2625 7.425 19.925C7.7625 19.5875 8.23125 19.375 8.75 19.375C9.26875 19.375 9.7375 19.5875 10.075 19.925C10.4125 20.2625 10.625 20.7313 10.625 21.25C10.625 21.7687 10.4125 22.2375 10.075 22.575Z" fill="#F7E784"/>
<path d="M10.625 13.125C11.3154 13.125 11.875 12.5654 11.875 11.875C11.875 11.1846 11.3154 10.625 10.625 10.625C9.93464 10.625 9.375 11.1846 9.375 11.875C9.375 12.5654 9.93464 13.125 10.625 13.125Z" fill="#F7E784"/>
<path d="M31.875 16.8755H25.625C24.9344 16.8755 24.375 16.3161 24.375 15.6255C24.375 14.9349 24.9344 14.3755 25.625 14.3755H31.875C32.5656 14.3755 33.125 14.9349 33.125 15.6255C33.125 16.3161 32.5656 16.8755 31.875 16.8755Z" fill="#D39F66"/>
<path d="M31.875 19.3755H25.625C24.9344 19.3755 24.375 18.8161 24.375 18.1255C24.375 17.4349 24.9344 16.8755 25.625 16.8755H31.875C32.5656 16.8755 33.125 17.4349 33.125 18.1255C33.125 18.8161 32.5656 19.3755 31.875 19.3755Z" fill="#D39F66"/>
<path d="M31.875 16.8755H29.375C30.0656 16.8755 30.625 17.4349 30.625 18.1255C30.625 18.8161 30.0656 19.3755 29.375 19.3755H31.875C32.5656 19.3755 33.125 18.8161 33.125 18.1255C33.125 17.4355 32.5656 16.8755 31.875 16.8755Z" fill="#BA804A"/>
<path d="M25.625 19.375H26.875C26.1844 19.375 25.625 18.8156 25.625 18.125C25.625 17.4344 26.1844 16.875 26.875 16.875H25.625C24.9344 16.875 24.375 17.4344 24.375 18.125C24.375 18.8156 24.9344 19.375 25.625 19.375Z" fill="#DCB285"/>
<path d="M25.625 16.875H28.125C27.4344 16.875 26.875 16.3156 26.875 15.625C26.875 14.9344 27.4344 14.375 28.125 14.375H25.625C24.9344 14.375 24.375 14.9344 24.375 15.625C24.375 16.3156 24.9344 16.875 25.625 16.875Z" fill="#DCB285"/>
<path d="M24.6875 7.45065C25.4625 8.95065 26.5 11.4194 26.875 14.3756H25.625C23.75 11.2506 20 8.75065 20 8.75065C21.5188 7.2319 23.85 7.35065 24.6875 7.45065Z" fill="#673915"/>
<path d="M24.6875 7.45062C24.1562 6.42562 23.75 5.84437 23.75 5.84437C26.875 4.98187 26.875 6.93812 28.75 6.93812C30.625 6.93812 30.625 4.98187 33.75 5.84437C33.75 5.84437 33.3438 6.42562 32.8125 7.45062C32.0375 8.95062 31 11.4194 30.625 14.3756H26.875C26.5 11.4194 25.4625 8.95062 24.6875 7.45062Z" fill="#89512B"/>
<path d="M28.75 8.75C30.4781 8.75 30.6194 6.61625 33.0781 6.95687C33.4719 6.24437 33.75 5.84437 33.75 5.84437C30.625 4.98187 30.625 6.93812 28.75 6.93812C26.875 6.93812 26.875 4.98187 23.75 5.84437C23.75 5.84437 24.0281 6.24437 24.4219 6.95687C26.8806 6.61625 27.0219 8.75 28.75 8.75Z" fill="#A06944"/>
<path d="M37.5 8.75065C37.5 8.75065 33.75 11.2506 31.875 14.3756H30.625C31 11.4194 32.0375 8.95065 32.8125 7.45065C33.65 7.35065 35.9812 7.2319 37.5 8.75065Z" fill="#673915"/>
<path d="M8.125 29.375H13.125V33.125H8.125V29.375Z" fill="#F4971E"/>
<path d="M10.625 29.375H13.125V33.125H10.625V29.375Z" fill="#D37E18"/>
<path d="M38.5188 34.3749C39.0814 34.3749 39.5375 33.9188 39.5375 33.3562C39.5375 32.7935 39.0814 32.3374 38.5188 32.3374C37.9561 32.3374 37.5 32.7935 37.5 33.3562C37.5 33.9188 37.9561 34.3749 38.5188 34.3749Z" fill="#673915"/>
<path d="M38.75 38.125C39.4404 38.125 40 37.5654 40 36.875C40 36.1846 39.4404 35.625 38.75 35.625C38.0596 35.625 37.5 36.1846 37.5 36.875C37.5 37.5654 38.0596 38.125 38.75 38.125Z" fill="#673915"/>
<path d="M31.875 14.3755H30.625C31.3156 14.3755 31.875 14.9349 31.875 15.6255C31.875 16.3161 31.3156 16.8755 30.625 16.8755H31.875C32.5656 16.8755 33.125 16.3161 33.125 15.6255C33.125 14.9355 32.5656 14.3755 31.875 14.3755Z" fill="#BA804A"/>
<path d="M10.625 11.25C10.9706 11.25 11.25 10.9706 11.25 10.625V10C11.25 9.65438 10.9706 9.375 10.625 9.375C10.2794 9.375 10 9.65438 10 10V10.625C10 10.9706 10.2794 11.25 10.625 11.25Z" fill="#252525"/>
<path d="M8.75 12.5H9.375C9.72062 12.5 10 12.2206 10 11.875C10 11.5294 9.72062 11.25 9.375 11.25H8.75C8.40438 11.25 8.125 11.5294 8.125 11.875C8.125 12.2206 8.40438 12.5 8.75 12.5Z" fill="#252525"/>
<path d="M11.875 12.5H12.5C12.8456 12.5 13.125 12.2206 13.125 11.875C13.125 11.5294 12.8456 11.25 12.5 11.25H11.875C11.5294 11.25 11.25 11.5294 11.25 11.875C11.25 12.2206 11.5294 12.5 11.875 12.5Z" fill="#252525"/>
<path d="M11.25 13.125C11.25 12.7794 10.9706 12.5 10.625 12.5C10.2794 12.5 10 12.7794 10 13.125V13.75C10 14.0956 10.2794 14.375 10.625 14.375C10.9706 14.375 11.25 14.0956 11.25 13.75V13.125Z" fill="#252525"/>
<path d="M10.442 22.058C10.1977 21.8137 9.80266 21.8137 9.55828 22.058C9.31391 22.3024 9.31391 22.6974 9.55828 22.9418L10.1833 23.5668C10.3052 23.6887 10.4652 23.7499 10.6252 23.7499C10.7852 23.7499 10.9452 23.6887 11.067 23.5668C11.3114 23.3224 11.3114 22.9274 11.067 22.683L10.442 22.058Z" fill="#252525"/>
<path d="M11.067 18.933C10.8227 18.6887 10.4277 18.6887 10.1833 18.933L9.55828 19.558C9.31391 19.8024 9.31391 20.1974 9.55828 20.4418C9.68016 20.5637 9.84016 20.6249 10.0002 20.6249C10.1602 20.6249 10.3202 20.5637 10.442 20.4418L11.067 19.8168C11.3114 19.5724 11.3114 19.1774 11.067 18.933Z" fill="#252525"/>
<path d="M6.87516 23.7499C7.03516 23.7499 7.19516 23.6887 7.31703 23.5668L7.94203 22.9418C8.18641 22.6974 8.18641 22.3024 7.94203 22.058C7.69766 21.8137 7.30266 21.8137 7.05828 22.058L6.43328 22.683C6.18891 22.9274 6.18891 23.3224 6.43328 23.5668C6.55516 23.6887 6.71516 23.7499 6.87516 23.7499Z" fill="#252525"/>
<path d="M7.05828 20.4418C7.18016 20.5637 7.34016 20.6249 7.50016 20.6249C7.66016 20.6249 7.82016 20.5637 7.94203 20.4418C8.18641 20.1974 8.18641 19.8024 7.94203 19.558L7.31703 18.933C7.07266 18.6887 6.67766 18.6887 6.43328 18.933C6.18891 19.1774 6.18891 19.5724 6.43328 19.8168L7.05828 20.4418Z" fill="#252525"/>
<path d="M13.75 17.5C14.5844 17.5 15.3694 17.8256 15.96 18.415C16.5494 19.0056 16.875 19.7906 16.875 20.625C16.875 20.9706 17.1544 21.25 17.5 21.25C17.8456 21.25 18.125 20.9706 18.125 20.625C18.125 19.7906 18.4506 19.0056 19.04 18.415C19.6306 17.8256 20.4156 17.5 21.25 17.5C21.5956 17.5 21.875 17.2206 21.875 16.875C21.875 16.5294 21.5956 16.25 21.25 16.25C19.5269 16.25 18.125 14.8481 18.125 13.125C18.125 12.7794 17.8456 12.5 17.5 12.5C17.1544 12.5 16.875 12.7794 16.875 13.125C16.875 13.9594 16.5494 14.7444 15.96 15.335C15.3694 15.9244 14.5844 16.25 13.75 16.25C13.4044 16.25 13.125 16.5294 13.125 16.875C13.125 17.2206 13.4044 17.5 13.75 17.5ZM16.8438 16.2188C17.0994 15.9631 17.32 15.6813 17.5019 15.3794C17.8706 15.9906 18.3844 16.5044 18.9962 16.8731C18.6944 17.0556 18.4119 17.2756 18.1562 17.5312C17.9012 17.7862 17.6819 18.0669 17.5 18.3681C17.3181 18.0675 17.0981 17.7862 16.8438 17.5312C16.5888 17.2762 16.3081 17.0569 16.0069 16.875C16.3081 16.6931 16.5888 16.4731 16.8438 16.2188Z" fill="#252525"/>
<path d="M40.5493 31.1081C40.6481 31.3512 40.8812 31.4975 41.1281 31.4975C41.2068 31.4975 41.2868 31.4831 41.3637 31.4512C41.6837 31.3212 41.8374 30.9562 41.7068 30.6369C41.3818 29.8394 40.9606 29.0806 40.4531 28.3825C40.2506 28.1037 39.8606 28.04 39.5799 28.2437C39.3012 28.4469 39.2387 28.8375 39.4412 29.1169C39.8893 29.7344 40.2618 30.4037 40.5493 31.1081Z" fill="#252525"/>
<path d="M42.3728 33.0288C42.3197 32.6882 42.0059 32.4563 41.6584 32.5076C41.3172 32.5607 41.0841 32.8807 41.1372 33.222C41.2122 33.7013 41.2503 34.1907 41.2503 34.6757C41.2503 35.9288 40.8934 37.1501 40.2172 38.2088C39.6284 39.1376 38.8053 39.9088 37.8353 40.4382C37.2984 40.7351 36.7184 40.9538 36.1134 41.0901C35.7766 41.1657 35.5647 41.4995 35.6403 41.8363C35.7053 42.1276 35.9641 42.3245 36.2497 42.3245C36.2947 42.3245 36.3409 42.3195 36.3872 42.3095C37.1078 42.1476 37.7984 41.8863 38.4372 41.5345C39.5903 40.9038 40.5709 39.9851 41.2716 38.8795C42.0753 37.6213 42.5003 36.1676 42.5003 34.6757C42.5003 34.127 42.4578 33.5726 42.3728 33.0288Z" fill="#252525"/>
<path d="M39.3644 23.8569L33.14 19.4981C33.1562 19.4825 33.1762 19.4706 33.1919 19.4544C33.5525 19.1038 33.75 18.6325 33.75 18.125C33.75 17.6425 33.5619 17.2063 33.2606 16.8731C33.5731 16.5325 33.75 16.0969 33.75 15.6256C33.75 14.95 33.3875 14.3613 32.8494 14.0313C34.7225 11.3769 37.8131 9.29313 37.8463 9.27063C38.0019 9.16688 38.1031 8.99813 38.1213 8.81251C38.1394 8.62563 38.0737 8.44126 37.9412 8.30876C36.7281 7.09501 35.0969 6.80188 33.9006 6.77688C34.1188 6.41063 34.26 6.20626 34.2625 6.20251C34.3787 6.03626 34.4062 5.82376 34.3375 5.63313C34.2687 5.44188 34.1119 5.29626 33.9156 5.24251C31.7481 4.64438 30.8063 5.28501 30.0506 5.80063C29.6144 6.09813 29.2981 6.31376 28.75 6.31376C28.2019 6.31376 27.8856 6.09813 27.4487 5.80063C26.6931 5.28563 25.7525 4.64376 23.5837 5.24251C23.3881 5.29626 23.2313 5.44188 23.1619 5.63313C23.0931 5.82376 23.1213 6.03688 23.2369 6.20251C23.2394 6.20563 23.38 6.41001 23.5981 6.77626C22.4013 6.80188 20.7706 7.09501 19.5575 8.30876C19.425 8.44126 19.3594 8.62563 19.3775 8.81251C19.3956 8.99876 19.4969 9.16688 19.6525 9.27063C19.6856 9.29313 22.775 11.3769 24.6488 14.03C24.5256 14.1063 24.4094 14.1919 24.3081 14.2963C23.9481 14.6463 23.75 15.1175 23.75 15.6256C23.75 16.1081 23.9381 16.5444 24.2394 16.8775C23.9269 17.2181 23.75 17.6544 23.75 18.125C23.75 18.6694 23.9869 19.1563 24.3588 19.4988L18.1356 23.8569C17.64 24.2038 17.175 24.5913 16.7369 25H11.875C11.5294 25 11.25 25.2794 11.25 25.625V28.75H8.125C7.77938 28.75 7.5 29.0294 7.5 29.375V32.5H5.625C5.27938 32.5 5 32.7794 5 33.125V36.875C5 37.2206 5.27938 37.5 5.625 37.5H6.25V40H5.625C5.27938 40 5 40.2794 5 40.625V44.375C5 44.7206 5.27938 45 5.625 45H13.125H24.375H31.875H34.675C36.41 45 38.1287 44.5581 39.6431 43.7231C41.1625 42.8925 42.4562 41.6794 43.3825 40.2175C44.4406 38.5613 45 36.645 45 34.675C45 30.3694 42.8931 26.3244 39.3644 23.8569ZM25.625 18.75C25.28 18.75 25 18.47 25 18.125C25 17.9581 25.0644 17.8038 25.1919 17.6794C25.3037 17.5644 25.4575 17.5006 25.6231 17.5006H25.625H28.125C28.4706 17.5006 28.75 17.2213 28.75 16.8756C28.75 16.53 28.4706 16.2506 28.125 16.2506H25.6281C25.6269 16.2506 25.6262 16.25 25.625 16.25C25.6244 16.25 25.6238 16.25 25.6231 16.25C25.2794 16.2488 25 15.97 25 15.6256C25 15.4588 25.0637 15.305 25.1919 15.1806C25.305 15.0644 25.4587 15.0006 25.625 15.0006H31.875C32.22 15.0006 32.5 15.2806 32.5 15.6256C32.5 15.7931 32.4363 15.9469 32.3081 16.0713C32.1963 16.1863 32.0425 16.25 31.8769 16.25C31.8762 16.25 31.8756 16.25 31.875 16.25C31.8738 16.25 31.8731 16.2506 31.8719 16.2506H31.25C30.9044 16.2506 30.625 16.53 30.625 16.8756C30.625 17.2213 30.9044 17.5006 31.25 17.5006H31.875H31.8769C32.2206 17.5019 32.5 17.7806 32.5 18.125C32.5 18.2919 32.4356 18.4463 32.3081 18.5706C32.1963 18.6856 32.0419 18.75 31.875 18.75H25.625ZM21.0319 8.71938C22.1319 8.01876 23.4862 7.98313 24.2844 8.04063C24.6994 8.87938 25.2294 10.095 25.6487 11.5488C25.745 11.8806 26.0913 12.0719 26.4225 11.9763C26.7537 11.8806 26.9456 11.5338 26.85 11.2025C26.3481 9.46688 25.6988 8.04813 25.2419 7.16376C25.0625 6.81688 24.8969 6.52001 24.7544 6.27501C25.7512 6.15751 26.22 6.47438 26.7444 6.83313C27.2469 7.17501 27.8162 7.56376 28.75 7.56376C29.6838 7.56376 30.2531 7.17563 30.7556 6.83313C31.28 6.47563 31.7475 6.15876 32.7456 6.27501C32.6025 6.52001 32.4369 6.81751 32.2575 7.16438C31.8013 8.04813 31.1513 9.46688 30.65 11.2025C30.5544 11.5338 30.7456 11.8806 31.0775 11.9763C31.1356 11.9925 31.1938 12.0006 31.2506 12.0006C31.5225 12.0006 31.7719 11.8231 31.8513 11.5488C32.2713 10.0944 32.8013 8.87876 33.2156 8.04063C34.0144 7.98251 35.3687 8.01938 36.4681 8.71938C35.32 9.57563 33.01 11.4688 31.5406 13.7506H29.375V9.37563C29.375 9.03001 29.0956 8.75063 28.75 8.75063C28.4044 8.75063 28.125 9.03001 28.125 9.37563V13.7506H25.96C24.4906 11.4688 22.18 9.57563 21.0319 8.71938ZM12.5 26.25H22.5V28.75H13.125H12.5V26.25ZM31.875 30V32.5H25V30H31.875ZM23.75 30V32.5H23.125H13.75V30H23.125H23.75ZM13.125 36.25H12.5V33.75H13.125H22.5V36.25H13.125ZM13.75 37.5H23.125H23.75V40H13.75V37.5ZM25 41.25H31.25V43.75H25V41.25ZM31.875 40H25V37.5H32.5V40H31.875ZM23.75 36.25V33.75H31.25V36.25H23.75ZM8.75 30H12.5V32.5H8.75V30ZM6.25 33.75H8.125H11.25V36.25H6.875H6.25V33.75ZM7.5 37.5H11.875H12.5V40H7.5V37.5ZM6.25 41.25H6.875H12.5V43.75H6.25V41.25ZM13.75 41.25H23.75V43.75H13.75V41.25ZM42.3288 39.5463C41.5138 40.8319 40.3781 41.8969 39.0425 42.6275C37.71 43.3619 36.2 43.75 34.675 43.75H32.5V41.25H33.125C33.4706 41.25 33.75 40.9706 33.75 40.625V36.875C33.75 36.5294 33.4706 36.25 33.125 36.25H32.5V33.75C32.8456 33.75 33.125 33.4706 33.125 33.125V29.375C33.125 29.0294 32.8456 28.75 32.5 28.75H24.375H23.75V25.625C23.75 25.2794 23.4706 25 23.125 25H18.6956C18.7487 24.9613 18.7981 24.9188 18.8519 24.8813L25.8219 20H31.6781L38.6481 24.8813C41.8425 27.1156 43.75 30.7769 43.75 34.675C43.75 36.4063 43.2588 38.0894 42.3288 39.5463Z" fill="#252525"/>
</g>
<defs>
<clipPath id="clip0_1113_33522">
<rect width="40" height="40" fill="white" transform="translate(5 5)"/>
</clipPath>
</defs>
</svg>
