<svg width="21" height="20" viewBox="0 0 21 20" fill="none" xmlns="http://www.w3.org/2000/svg">
<path d="M9.62695 0.864258C9.91621 0.175138 10.8629 0.131416 11.2344 0.734375L11.3008 0.864258V0.865234L13.6123 6.31836L13.6855 6.49219L13.873 6.50781L19.7793 7.00977H19.7812C20.5289 7.06947 20.8661 7.95124 20.4023 8.49707L20.2979 8.60156L15.8105 12.4902L15.668 12.6133L15.7109 12.7969L17.0557 18.5693C17.2261 19.3038 16.4931 19.8923 15.8311 19.6182L15.7002 19.5518V19.5508L10.625 16.4824L10.4639 16.3848L10.3027 16.4814L5.22754 19.5391H5.22656C4.57821 19.9311 3.79388 19.4131 3.84863 18.7012L3.87109 18.5566L5.21582 12.7852L5.25879 12.6016L5.11621 12.4775L0.628906 8.58984V8.58887C0.0563321 8.09298 0.310545 7.1836 1.00195 7.01953L1.14648 6.99707H1.14746L7.05371 6.49609L7.24121 6.47949L7.31543 6.30664L9.62598 0.865234L9.62695 0.864258Z" fill="#FBC02D" stroke="#FBC02D" stroke-width="0.625"/>
</svg>
