<svg width="50" height="50" viewBox="0 0 50 50" fill="none" xmlns="http://www.w3.org/2000/svg">
<rect width="50" height="50" rx="8" fill="#F6F6F6"/>
<g clip-path="url(#clip0_1113_33520)">
<path d="M36.3327 18.2332L39.138 15.6332C39.4537 15.3317 39.6382 14.9182 39.6516 14.482C39.6651 14.0457 39.5064 13.6216 39.2099 13.3013C38.9134 12.9809 38.5028 12.7901 38.0668 12.7699C37.6307 12.7496 37.2042 12.9017 36.8793 13.1932L36.3327 13.6999L35.666 14.3332V17.6665L36.3327 18.2332Z" fill="#F6CFAE"/>
<path d="M26.3338 41.6667L24.1945 43.8073C23.8585 44.1434 23.403 44.3325 22.9278 44.3333H10.9192C10.8117 44.3338 10.7062 44.3045 10.6145 44.2486C10.5227 44.1926 10.4483 44.1124 10.3994 44.0167C10.3506 43.921 10.3292 43.8136 10.3378 43.7065C10.3463 43.5994 10.3844 43.4967 10.4478 43.41C11.5925 41.9564 12.2542 40.1815 12.3405 38.3333C12.3405 35 11.6672 34.3333 11.6672 31.6667C11.6672 29 13.0072 27 13.0072 23.6667V18.3333C13.0072 17.9797 13.1476 17.6406 13.3977 17.3905C13.6477 17.1405 13.9869 17 14.3405 17C14.6028 17.0003 14.8624 17.0522 15.1045 17.1529C15.3467 17.2536 15.5666 17.401 15.7518 17.5868C15.9369 17.7725 16.0836 17.993 16.1835 18.2354C16.2834 18.4779 16.3344 18.7377 16.3338 19L26.3338 41.6667Z" fill="#F6CFAE"/>
<path d="M33.6673 5.6665H19.0007C17.5279 5.6665 16.334 6.86041 16.334 8.33317V38.9998C16.334 40.4726 17.5279 41.6665 19.0007 41.6665H33.6673C35.1401 41.6665 36.334 40.4726 36.334 38.9998V8.33317C36.334 6.86041 35.1401 5.6665 33.6673 5.6665Z" fill="white"/>
<path d="M36.334 31.8333L39.1393 29.2333C39.455 28.9318 39.6395 28.5183 39.6529 28.0821C39.6664 27.6458 39.5077 27.2217 39.2112 26.9014C38.9147 26.581 38.5041 26.3902 38.0681 26.37C37.632 26.3497 37.2055 26.5018 36.8807 26.7933L36.334 27.3V31.8333Z" fill="#EAB59A"/>
<path d="M36.334 27.3001L39.1393 24.7001C39.455 24.3986 39.6395 23.9851 39.6529 23.5488C39.6664 23.1126 39.5077 22.6885 39.2112 22.3682C38.9147 22.0478 38.5041 21.857 38.0681 21.8367C37.632 21.8165 37.2055 21.9686 36.8807 22.2601L36.334 22.7668V27.3001Z" fill="#F6CFAE"/>
<path d="M36.334 22.7666L39.1393 20.1666C39.455 19.8652 39.6395 19.4517 39.6529 19.0154C39.6664 18.5791 39.5077 18.155 39.2112 17.8347C38.9147 17.5144 38.5041 17.3235 38.0681 17.3033C37.632 17.2831 37.2055 17.4351 36.8807 17.7266L36.334 18.2333V22.7666Z" fill="#EAB59A"/>
<path d="M30.9993 5.6665V6.99984C30.9983 7.35313 30.8575 7.69166 30.6077 7.94148C30.3578 8.1913 30.0193 8.33212 29.666 8.33317H22.9993C22.6461 8.33212 22.3075 8.1913 22.0577 7.94148C21.8079 7.69166 21.6671 7.35313 21.666 6.99984V5.6665H30.9993Z" fill="white"/>
<path d="M26.3327 29.6668C30.0146 29.6668 32.9993 26.6821 32.9993 23.0002C32.9993 19.3183 30.0146 16.3335 26.3327 16.3335C22.6508 16.3335 19.666 19.3183 19.666 23.0002C19.666 26.6821 22.6508 29.6668 26.3327 29.6668Z" fill="#3AC45B"/>
<path d="M33.6667 22.9998C33.6667 21.5494 33.2366 20.1316 32.4308 18.9257C31.625 17.7197 30.4797 16.7798 29.1397 16.2247C27.7997 15.6697 26.3252 15.5245 24.9027 15.8074C23.4801 16.0904 22.1735 16.7888 21.1479 17.8144C20.1223 18.84 19.4239 20.1466 19.1409 21.5692C18.858 22.9917 19.0032 24.4662 19.5582 25.8062C20.1133 27.1462 21.0532 28.2915 22.2592 29.0973C23.4651 29.9031 24.8829 30.3332 26.3333 30.3332C28.2776 30.3309 30.1415 29.5575 31.5163 28.1828C32.891 26.808 33.6644 24.9441 33.6667 22.9998ZM20.3333 22.9998C20.3333 21.8132 20.6852 20.6531 21.3445 19.6664C22.0038 18.6797 22.9409 17.9107 24.0372 17.4566C25.1336 17.0024 26.34 16.8836 27.5039 17.1151C28.6678 17.3466 29.7369 17.9181 30.576 18.7572C31.4151 19.5963 31.9865 20.6654 32.218 21.8293C32.4496 22.9932 32.3307 24.1996 31.8766 25.2959C31.4225 26.3923 30.6535 27.3294 29.6668 27.9887C28.6801 28.6479 27.52 28.9998 26.3333 28.9998C24.7426 28.9981 23.2175 28.3654 22.0926 27.2405C20.9678 26.1157 20.3351 24.5906 20.3333 22.9998Z" fill="#262626"/>
<path d="M40.3332 14.5047C40.3535 14.1023 40.268 13.7017 40.0854 13.3426C39.9028 12.9835 39.6293 12.6785 39.2922 12.4579C38.9551 12.2373 38.5661 12.1088 38.164 12.0852C37.7618 12.0616 37.3604 12.1437 36.9999 12.3233V8.33333C36.9988 7.4496 36.6473 6.60237 36.0224 5.97748C35.3975 5.35259 34.5502 5.00106 33.6665 5L18.9998 5C18.1161 5.00106 17.2689 5.35259 16.644 5.97748C16.0191 6.60237 15.6676 7.4496 15.6665 8.33333V16.7027C15.2649 16.4636 14.8066 16.3361 14.3392 16.3333C13.8087 16.3333 13.3 16.544 12.925 16.9191C12.5499 17.2942 12.3392 17.8029 12.3392 18.3333V23.6667C12.3058 25.1209 12.0691 26.5634 11.6358 27.952C11.255 29.1553 11.041 30.4052 10.9998 31.6667C11.0013 32.692 11.1083 33.7146 11.3192 34.718C11.5626 35.9075 11.6812 37.1192 11.6732 38.3333C11.5803 40.0369 10.9653 41.6706 9.91185 43.0127C9.77456 43.1985 9.69164 43.4189 9.67233 43.6492C9.65302 43.8794 9.69809 44.1105 9.80251 44.3167C9.90693 44.5228 10.0666 44.6959 10.2636 44.8165C10.4607 44.9372 10.6874 45.0007 10.9185 45H22.9245C23.2481 45.0009 23.5688 44.9376 23.8678 44.8138C24.1668 44.69 24.4383 44.5081 24.6665 44.2787L26.6092 42.3333H28.9998C29.1767 42.3333 29.3462 42.2631 29.4713 42.1381C29.5963 42.0131 29.6665 41.8435 29.6665 41.6667C29.6665 41.4899 29.5963 41.3203 29.4713 41.1953C29.3462 41.0702 29.1767 41 28.9998 41H18.9998C18.4694 41 17.9607 40.7893 17.5856 40.4142C17.2106 40.0391 16.9998 39.5304 16.9998 39V8.33333C16.9998 7.8029 17.2106 7.29419 17.5856 6.91912C17.9607 6.54405 18.4694 6.33333 18.9998 6.33333H20.9998V7C20.9998 7.53043 21.2106 8.03914 21.5856 8.41421C21.9607 8.78929 22.4694 9 22.9998 9H29.6665C30.1969 9 30.7057 8.78929 31.0807 8.41421C31.4558 8.03914 31.6665 7.53043 31.6665 7V6.33333H33.6665C34.197 6.33333 34.7057 6.54405 35.0807 6.91912C35.4558 7.29419 35.6665 7.8029 35.6665 8.33333V39C35.6665 39.5304 35.4558 40.0391 35.0807 40.4142C34.7057 40.7893 34.197 41 33.6665 41H31.6665C31.4897 41 31.3201 41.0702 31.1951 41.1953C31.0701 41.3203 30.9998 41.4899 30.9998 41.6667C30.9998 41.8435 31.0701 42.0131 31.1951 42.1381C31.3201 42.2631 31.4897 42.3333 31.6665 42.3333H33.6665C34.5502 42.3323 35.3975 41.9807 36.0224 41.3559C36.6473 40.731 36.9988 39.8837 36.9999 39V32.1247L39.5905 29.7247C39.8793 29.4582 40.0958 29.1228 40.2197 28.7499C40.3436 28.377 40.3709 27.9787 40.2989 27.5924C40.227 27.2061 40.0582 26.8443 39.8084 26.541C39.5586 26.2376 39.2359 26.0027 38.8705 25.858L39.5905 25.1913C39.8793 24.9249 40.0958 24.5895 40.2197 24.2166C40.3436 23.8436 40.3709 23.4454 40.2989 23.0591C40.227 22.6727 40.0582 22.311 39.8084 22.0076C39.5586 21.7043 39.2359 21.4693 38.8705 21.3247L39.5905 20.658C39.879 20.3914 40.0952 20.0559 40.2189 19.6831C40.3425 19.3102 40.3697 18.9121 40.2978 18.5259C40.2259 18.1397 40.0572 17.7781 39.8076 17.4747C39.558 17.1714 39.2356 16.9363 38.8705 16.7913L39.5905 16.1247C39.8164 15.9181 39.9985 15.6682 40.1261 15.3899C40.2536 15.1117 40.3241 14.8106 40.3332 14.5047ZM18.9998 42.3333H24.7245L23.7245 43.3333C23.6198 43.439 23.4952 43.5229 23.3579 43.5801C23.2206 43.6373 23.0733 43.6667 22.9245 43.6667H11.0858C12.2622 42.1303 12.9333 40.267 13.0065 38.3333C13.014 37.0383 12.888 35.7459 12.6305 34.4767C12.436 33.5526 12.3364 32.611 12.3332 31.6667C12.3785 30.5224 12.5774 29.3893 12.9245 28.298C13.3878 26.7964 13.6397 25.2377 13.6732 23.6667V18.3333C13.6732 18.1565 13.7434 17.987 13.8684 17.8619C13.9935 17.7369 14.163 17.6667 14.3398 17.6667C14.6923 17.6684 15.0297 17.8097 15.2784 18.0595C15.527 18.3094 15.6665 18.6475 15.6665 19V39C15.6676 39.8837 16.0191 40.731 16.644 41.3559C17.2689 41.9807 18.1161 42.3323 18.9998 42.3333ZM30.3332 7C30.3332 7.17681 30.2629 7.34638 30.1379 7.4714C30.0129 7.59643 29.8433 7.66667 29.6665 7.66667H22.9998C22.823 7.66667 22.6535 7.59643 22.5284 7.4714C22.4034 7.34638 22.3332 7.17681 22.3332 7V6.33333H30.3332V7ZM38.0478 27.0207C38.1777 27.0256 38.3052 27.0562 38.4231 27.1108C38.5409 27.1654 38.6468 27.2429 38.7345 27.3387C38.911 27.5332 39.0046 27.7889 38.9954 28.0514C38.9862 28.3138 38.8749 28.5623 38.6852 28.744L36.9999 30.3067V27.5913L37.3332 27.2793C37.4292 27.191 37.5418 27.1226 37.6645 27.0782C37.7872 27.0338 37.9175 27.0142 38.0478 27.0207ZM38.0478 22.4873C38.1777 22.4923 38.3052 22.5229 38.4231 22.5775C38.5409 22.6321 38.6468 22.7095 38.7345 22.8053C38.9104 23.0001 39.0035 23.2557 38.9943 23.518C38.9851 23.7803 38.8743 24.0287 38.6852 24.2107L36.9999 25.7733V23.058L37.3332 22.7473C37.4291 22.6588 37.5417 22.5902 37.6644 22.5456C37.7871 22.501 37.9174 22.4812 38.0478 22.4873ZM38.6852 19.678L36.9999 21.24V18.524L37.3332 18.2147C37.5271 18.0379 37.7828 17.9448 38.045 17.9555C38.3071 17.9663 38.5544 18.08 38.7332 18.272C38.91 18.4664 39.004 18.7221 38.995 18.9848C38.9861 19.2474 38.8749 19.4961 38.6852 19.678ZM38.6852 15.1447L36.9999 16.7067V13.9907L37.3332 13.6807C37.5268 13.5035 37.7826 13.41 38.0449 13.4207C38.3071 13.4313 38.5545 13.5451 38.7332 13.7373C38.91 13.932 39.0038 14.1879 38.9949 14.4507C38.9859 14.7135 38.8748 14.9625 38.6852 15.1447Z" fill="#262626"/>
<path d="M29.4089 19.8072C29.2695 19.6993 29.0931 19.651 28.9182 19.6729C28.7432 19.6947 28.5841 19.785 28.4756 19.9239L24.7909 24.6612L24.1396 24.0105C24.0138 23.8891 23.8454 23.8219 23.6706 23.8234C23.4958 23.8249 23.3286 23.895 23.205 24.0187C23.0814 24.1423 23.0113 24.3095 23.0098 24.4843C23.0083 24.6591 23.0755 24.8275 23.1969 24.9532L24.3816 26.1379C24.5066 26.2629 24.6761 26.3332 24.8529 26.3332H24.8949C24.9892 26.3275 25.0811 26.3017 25.1646 26.2575C25.2481 26.2134 25.3211 26.1519 25.3789 26.0772L29.5276 20.7439C29.5814 20.6746 29.621 20.5954 29.6442 20.5108C29.6674 20.4263 29.6736 20.3379 29.6626 20.2509C29.6516 20.1639 29.6235 20.0799 29.58 20.0038C29.5364 19.9276 29.4783 19.8608 29.4089 19.8072Z" fill="#262626"/>
<path d="M22.3327 39.6668H30.3327C30.5095 39.6668 30.6791 39.5966 30.8041 39.4716C30.9291 39.3465 30.9993 39.177 30.9993 39.0002C30.9993 38.8234 30.9291 38.6538 30.8041 38.5288C30.6791 38.4037 30.5095 38.3335 30.3327 38.3335H22.3327C22.1559 38.3335 21.9863 38.4037 21.8613 38.5288C21.7363 38.6538 21.666 38.8234 21.666 39.0002C21.666 39.177 21.7363 39.3465 21.8613 39.4716C21.9863 39.5966 22.1559 39.6668 22.3327 39.6668Z" fill="#262626"/>
</g>
<defs>
<clipPath id="clip0_1113_33520">
<rect width="40" height="40" fill="white" transform="translate(5 5)"/>
</clipPath>
</defs>
</svg>
