<svg width="49" height="48" viewBox="0 0 49 48" fill="none" xmlns="http://www.w3.org/2000/svg">
<rect x="0.5" width="48" height="48" rx="24" fill="#EEF3F9"/>
<path d="M22.4906 34.75C22.2906 34.75 22.1306 34.71 22.0106 34.66C21.6106 34.51 20.9306 34.02 20.9306 32.47V26.02H18.5906C17.2506 26.02 16.7706 25.39 16.6006 25.02C16.4306 24.64 16.2806 23.87 17.1606 22.86L24.7306 14.26C25.7506 13.1 26.5806 13.18 26.9806 13.33C27.3806 13.48 28.0606 13.97 28.0606 15.52V21.97H30.4006C31.7406 21.97 32.2206 22.6 32.3906 22.97C32.5606 23.35 32.7106 24.12 31.8306 25.13L24.2606 33.73C23.5506 34.54 22.9306 34.75 22.4906 34.75ZM26.4306 14.74C26.4006 14.78 26.1906 14.88 25.8606 15.26L18.2906 23.86C18.0106 24.18 17.9706 24.38 17.9706 24.42C17.9906 24.43 18.1706 24.53 18.5906 24.53H21.6806C22.0906 24.53 22.4306 24.87 22.4306 25.28V32.48C22.4306 32.98 22.5206 33.2 22.5606 33.26C22.5906 33.22 22.8006 33.12 23.1306 32.74L30.7006 24.14C30.9806 23.82 31.0206 23.62 31.0206 23.58C31.0006 23.57 30.8206 23.47 30.4006 23.47H27.3106C26.9006 23.47 26.5606 23.13 26.5606 22.72V15.52C26.5706 15.02 26.4706 14.81 26.4306 14.74Z" fill="#3871C1"/>
</svg>
