<svg width="49" height="48" viewBox="0 0 49 48" fill="none" xmlns="http://www.w3.org/2000/svg">
<rect x="0.5" width="48" height="48" rx="24" fill="#EEF3F9"/>
<path d="M25.9998 26.75H24.9998C24.5898 26.75 24.2498 26.41 24.2498 26C24.2498 25.59 24.5898 25.25 24.9998 25.25H25.9998C26.6898 25.25 27.2498 24.69 27.2498 24V14.75H18.9998C17.8198 14.75 16.7398 15.39 16.1598 16.42C15.9598 16.78 15.4998 16.91 15.1398 16.71C14.7798 16.51 14.6498 16.05 14.8498 15.69C15.6898 14.19 17.2798 13.25 18.9998 13.25H27.9998C28.4098 13.25 28.7498 13.59 28.7498 14V24C28.7498 25.52 27.5198 26.75 25.9998 26.75Z" fill="#3871C1"/>
<path d="M32 32.75H31C30.59 32.75 30.25 32.41 30.25 32C30.25 31.31 29.69 30.75 29 30.75C28.31 30.75 27.75 31.31 27.75 32C27.75 32.41 27.41 32.75 27 32.75H23C22.59 32.75 22.25 32.41 22.25 32C22.25 31.31 21.69 30.75 21 30.75C20.31 30.75 19.75 31.31 19.75 32C19.75 32.41 19.41 32.75 19 32.75H18C15.93 32.75 14.25 31.07 14.25 29C14.25 28.59 14.59 28.25 15 28.25C15.41 28.25 15.75 28.59 15.75 29C15.75 30.24 16.76 31.25 18 31.25H18.35C18.68 30.1 19.74 29.25 21 29.25C22.26 29.25 23.32 30.1 23.65 31.25H26.36C26.69 30.1 27.75 29.25 29.01 29.25C30.27 29.25 31.33 30.1 31.66 31.25H32C33.24 31.25 34.25 30.24 34.25 29V26.75H32C31.04 26.75 30.25 25.96 30.25 25V22C30.25 21.04 31.03 20.25 32 20.25L30.93 18.38C30.71 17.99 30.29 17.75 29.84 17.75H28.75V24C28.75 25.52 27.52 26.75 26 26.75H25C24.59 26.75 24.25 26.41 24.25 26C24.25 25.59 24.59 25.25 25 25.25H26C26.69 25.25 27.25 24.69 27.25 24V17C27.25 16.59 27.59 16.25 28 16.25H29.84C30.83 16.25 31.74 16.78 32.23 17.64L33.94 20.63C34.07 20.86 34.07 21.15 33.94 21.38C33.81 21.61 33.56 21.75 33.29 21.75H32C31.86 21.75 31.75 21.86 31.75 22V25C31.75 25.14 31.86 25.25 32 25.25H35C35.41 25.25 35.75 25.59 35.75 26V29C35.75 31.07 34.07 32.75 32 32.75Z" fill="#3871C1"/>
<path d="M21 34.75C19.48 34.75 18.25 33.52 18.25 32C18.25 30.48 19.48 29.25 21 29.25C22.52 29.25 23.75 30.48 23.75 32C23.75 33.52 22.52 34.75 21 34.75ZM21 30.75C20.31 30.75 19.75 31.31 19.75 32C19.75 32.69 20.31 33.25 21 33.25C21.69 33.25 22.25 32.69 22.25 32C22.25 31.31 21.69 30.75 21 30.75Z" fill="#3871C1"/>
<path d="M29 34.75C27.48 34.75 26.25 33.52 26.25 32C26.25 30.48 27.48 29.25 29 29.25C30.52 29.25 31.75 30.48 31.75 32C31.75 33.52 30.52 34.75 29 34.75ZM29 30.75C28.31 30.75 27.75 31.31 27.75 32C27.75 32.69 28.31 33.25 29 33.25C29.69 33.25 30.25 32.69 30.25 32C30.25 31.31 29.69 30.75 29 30.75Z" fill="#3871C1"/>
<path d="M35 26.75H32C31.04 26.75 30.25 25.96 30.25 25V22C30.25 21.04 31.04 20.25 32 20.25H33.29C33.56 20.25 33.81 20.39 33.94 20.63L35.65 23.63C35.71 23.74 35.75 23.87 35.75 24V26C35.75 26.41 35.41 26.75 35 26.75ZM32 21.75C31.86 21.75 31.75 21.86 31.75 22V25C31.75 25.14 31.86 25.25 32 25.25H34.25V24.2L32.85 21.75H32Z" fill="#3871C1"/>
<path d="M21 20.75H15C14.59 20.75 14.25 20.41 14.25 20C14.25 19.59 14.59 19.25 15 19.25H21C21.41 19.25 21.75 19.59 21.75 20C21.75 20.41 21.41 20.75 21 20.75Z" fill="#3871C1"/>
<path d="M19 23.75H15C14.59 23.75 14.25 23.41 14.25 23C14.25 22.59 14.59 22.25 15 22.25H19C19.41 22.25 19.75 22.59 19.75 23C19.75 23.41 19.41 23.75 19 23.75Z" fill="#3871C1"/>
<path d="M17 26.75H15C14.59 26.75 14.25 26.41 14.25 26C14.25 25.59 14.59 25.25 15 25.25H17C17.41 25.25 17.75 25.59 17.75 26C17.75 26.41 17.41 26.75 17 26.75Z" fill="#3871C1"/>
</svg>
