<svg width="22" height="20" viewBox="0 0 22 20" fill="none" xmlns="http://www.w3.org/2000/svg">
<path d="M10.334 0.864258C10.6232 0.175138 11.5699 0.131416 11.9414 0.734375L12.0078 0.864258V0.865234L14.3193 6.31836L14.3926 6.49219L14.5801 6.50781L20.4863 7.00977H20.4883C21.2359 7.06947 21.5731 7.95124 21.1094 8.49707L21.0049 8.60156L16.5176 12.4902L16.375 12.6133L16.418 12.7969L17.7627 18.5693C17.9331 19.3038 17.2001 19.8923 16.5381 19.6182L16.4072 19.5518V19.5508L11.332 16.4824L11.1709 16.3848L11.0098 16.4814L5.93457 19.5391H5.93359C5.28524 19.9311 4.50091 19.4131 4.55566 18.7012L4.57812 18.5566L5.92285 12.7852L5.96582 12.6016L5.82324 12.4775L1.33594 8.58984V8.58887C0.763363 8.09298 1.01758 7.1836 1.70898 7.01953L1.85352 6.99707H1.85449L7.76074 6.49609L7.94824 6.47949L8.02246 6.30664L10.333 0.865234L10.334 0.864258Z" stroke="#B8B8B8" stroke-width="0.625"/>
</svg>
