<svg width="1216" height="521" viewBox="0 0 1216 521" fill="none" xmlns="http://www.w3.org/2000/svg">
<g opacity="0.15">
<path d="M347.726 -494.429C297.508 -625.087 49.0655 -689.609 90.0637 -429.456C96.786 -386.8 97.4622 -313.35 90.0637 -223.946C83.2862 -142.046 -49.392 -97.2333 -90.1197 8.58936C-153.993 174.551 84.824 290.227 46.8197 377.47C-2.95645 491.736 -155.368 541.314 -239.672 603.829C-319.035 662.68 -369.586 757.11 -388.996 854.193C-423.048 1024.51 -361.252 1203 -191.022 1211.89C-105.806 1216.33 6.58215 1178.27 147.722 1075.41C210.826 1029.42 266.471 991.517 315.924 960.871C443.209 881.991 408.988 1068.57 560.342 1075.41C646.583 1079.31 736.657 918.229 804.843 1004.15C853.327 1065.24 908.965 1139.37 988.422 1215.58C1127.96 1349.42 1302.42 1369.12 1327.1 1178.11C1338.75 1087.94 1317.02 950.815 1242.48 756.573C1194.78 632.27 1313.43 636.652 1327.1 477.363C1340.77 318.073 1228.98 244.614 1309.9 178.687L1311.53 177.367C1373.21 127.122 1438.99 73.5338 1474.92 -29.3936C1505.86 -118.055 1502.91 -205.868 1474.92 -273.344C1444.96 -345.558 1386.33 -394.478 1309.9 -396.213C1233.22 -397.954 1138.61 -352.192 1037.07 -234.793C970.123 -157.39 924.784 -337.495 804.843 -319.084C684.902 -300.673 668.231 -126.894 596.379 -177.297C471.566 -264.85 406.54 -341.405 347.726 -494.429Z" stroke="white" stroke-opacity="0.5" stroke-width="1.95066"/>
<path d="M589.994 218.284C582.351 198.225 546.734 203.49 544.932 225.229C542.879 249.98 555.39 282.233 553.944 307.043C551.152 354.946 534.229 368.582 500.533 393.83C488.455 402.864 480.762 417.361 477.808 432.265C472.626 458.412 482.03 485.813 507.937 487.176C520.905 487.859 538.009 482.016 559.489 466.225C569.092 459.165 577.56 453.346 585.086 448.641C617.849 426.521 648.342 443.854 659.493 455.285C666.871 464.664 675.339 476.044 687.431 487.743C708.667 508.29 740.825 505.598 738.973 481.991C736.356 448.641 679.418 324.157 738.973 302.45C766.636 292.367 765.728 269.528 761.468 259.169C756.91 248.083 747.987 240.573 736.356 240.306C724.685 240.039 705.352 259.169 694.835 265.087C656.008 286.935 621.364 298.228 589.994 218.284Z" stroke="white" stroke-opacity="0.5" stroke-width="1.95066"/>
<path d="M131.607 -372.538C95.221 -609.367 322.256 -550.331 368.296 -430.55C424.663 -284.112 486.979 -215.481 604.075 -137.794C669.93 -92.204 685.777 -250.876 795.601 -268.122C905.424 -285.368 947.382 -121.931 1008.83 -192.341C1102.28 -299.129 1189.17 -340.087 1259.36 -337.502C1329.09 -335.456 1382.55 -290.199 1409.56 -223.752C1434.78 -161.616 1436.87 -80.9787 1407.45 0.14209C1369.06 96.5667 1313.62 156.585 1257.31 205.658C1183.76 266.705 1284.79 334.132 1271.4 479.152C1258.01 624.172 1148.84 619.782 1191.27 731.949C1257.99 907.617 1276.99 1031.35 1265.72 1112.54C1242.77 1285.81 1083.08 1267.23 954.924 1145.2C881.436 1075.59 829.374 1008.25 783.77 953.668C721.044 875.922 638.318 1023 558.976 1020.09C420.286 1014.58 450.545 845.315 333.951 917.383C288.174 945.568 236.861 980.168 178.854 1021.98C48.0778 1115.44 -55.0373 1147.6 -132.102 1141.19C-286.855 1132.44 -342.84 969.385 -311.511 813.826C-293.505 724.901 -247.059 638.457 -174.3 584.505C-94.5295 525.35 45.6858 479.012 91.2299 370.729C125.875 290.234 -91.6704 183.702 -33.7985 31.421C3.01395 -66.145 123.497 -108.203 129.757 -183.833C136.571 -266.155 136.806 -333.591 131.607 -372.538Z" stroke="white" stroke-opacity="0.5" stroke-width="1.95066"/>
<path d="M175.003 -313.223C143.283 -525.952 348.579 -472.595 390.373 -364.087C444.212 -224.731 503.728 -164.245 612.937 -96.6761C672.698 -56.047 687.699 -199.091 787.244 -215.115C886.789 -231.138 925.304 -84.9032 981.157 -148.091C1066.38 -243.917 1145.42 -279.937 1209.01 -276.52C1271.95 -274.171 1320.17 -232.727 1344.2 -172.265C1366.61 -115.673 1367.82 -42.4787 1339.97 30.8345C1299.49 119.534 1255.31 185.729 1204.93 233.079C1138.86 289.043 1228.98 350.217 1215.89 480.491C1202.8 610.766 1103.26 606.384 1140.37 706.047C1199.18 862.57 1215.42 972.505 1204.55 1044.45C1183.34 1199.42 1038.66 1182.03 922.077 1072.19C854.664 1009.42 806.254 949.094 763.595 901.193C706.422 831.873 631.164 964.464 558.837 962.553C433.013 958.391 459.267 806.992 353.534 872.012C311.5 897.643 264.592 928.827 211.768 966.324C91.5463 1050.08 -2.14453 1076.23 -70.9447 1067.89C-209.995 1059.3 -260.087 912.213 -231.527 771.929C-214.95 691.454 -172.679 613.279 -106.629 564.405C-31.5072 508.808 96.3065 465.866 137.552 363.928C168.787 290.448 -27.1684 193.413 24.6175 55.3135C57.4607 -33.6733 165.572 -72.8351 171.305 -141.946C177.524 -216.914 178.671 -278.113 175.003 -313.223Z" stroke="white" stroke-opacity="0.5" stroke-width="1.95066"/>
<path d="M216.534 -256.301C189.432 -445.707 373.305 -397.835 410.919 -300.205C462.312 -167.438 519.123 -114.875 620.614 -57.1727C674.374 -21.356 688.551 -149.293 777.972 -164.151C867.392 -179.009 902.525 -49.4423 952.871 -105.637C1029.99 -190.852 1101.32 -222.068 1158.41 -217.808C1214.65 -215.148 1257.7 -177.367 1278.77 -122.672C1298.42 -71.4201 1298.75 -5.40256 1272.44 60.3696C1229.79 141.663 1196.81 214.251 1152.27 260.043C1093.59 311.126 1172.93 366.268 1160.12 482.273C1147.31 598.277 1057.26 593.888 1089.1 681.415C1140.08 819.364 1153.59 915.907 1143.09 978.878C1123.6 1116.1 993.712 1099.84 888.517 1001.8C827.076 945.628 782.242 892.1 742.463 850.706C690.753 789.559 622.848 908.148 557.423 907.226C444.272 904.392 466.559 770.307 371.525 828.516C333.169 851.685 290.595 879.568 242.871 912.886C133.017 987.245 48.6057 1007.49 -12.0358 997.196C-135.598 988.731 -179.873 857.077 -154.037 731.556C-138.864 659.24 -100.702 589.051 -41.26 545.076C29.3303 492.84 144.94 453.139 181.951 357.185C209.824 290.454 35.1564 202.564 80.9359 78.1457C109.86 -2.58383 205.766 -38.9897 210.982 -101.831C216.615 -169.717 218.677 -224.9 216.534 -256.301Z" stroke="white" stroke-opacity="0.5" stroke-width="1.95066"/>
<path d="M259.92 -199.383C237.483 -365.458 399.608 -323.072 432.973 -236.323C481.832 -110.134 535.837 -65.4977 629.431 -17.6689C677.095 13.3333 690.424 -99.4928 769.561 -113.186C848.698 -126.88 880.386 -13.9865 925.136 -63.1867C994.022 -137.787 1057.51 -164.195 1107.99 -159.09C1157.43 -156.118 1195.23 -122 1213.32 -73.0732C1230.16 -27.1609 1229.61 31.6788 1204.88 89.9083C1160.14 163.797 1138.43 242.801 1099.81 287.04C1048.62 333.243 1117.04 382.352 1104.53 484.082C1092.02 585.812 1011.62 581.415 1038.13 656.799C1081.19 776.168 1091.95 859.312 1081.85 913.301C1064.11 1032.77 949.238 1017.64 855.62 931.406C800.258 881.837 759.08 835.104 722.25 800.221C676.096 747.251 615.663 851.835 557.258 851.902C456.98 850.399 475.261 733.635 391.093 785.031C356.483 805.738 318.318 830.318 275.779 859.457C176.488 924.412 101.506 938.747 49.131 926.49C-58.7224 918.153 -97.1022 801.937 -74.037 691.183C-60.2951 627.027 -26.3096 564.824 26.4197 525.751C92.3542 476.871 195.555 440.41 228.265 350.435C252.726 290.453 99.6579 211.709 139.349 100.973C164.303 28.5011 247.833 -5.1503 252.522 -61.7217C257.56 -122.525 260.532 -171.693 259.92 -199.383Z" stroke="white" stroke-opacity="0.5" stroke-width="1.95066"/>
<path d="M303.283 -139.785C285.51 -282.158 425.881 -245.353 454.998 -169.679C501.314 -50.3537 552.503 -13.7438 638.191 24.1061C679.756 50.2248 692.235 -47.2381 761.086 -59.7359C829.938 -72.2336 858.178 23.7336 897.331 -18.3619C957.979 -82.1803 1013.61 -103.723 1057.5 -97.785C1100.13 -94.5087 1132.69 -64.1299 1147.8 -21.0801C1161.83 19.3891 1160.4 70.9192 1137.25 121.476C1090.44 187.794 1079.97 273.03 1047.28 315.616C1003.58 356.834 1061.09 399.801 1048.88 487.029C1036.67 574.257 965.921 569.862 987.106 632.936C1022.25 733.459 1030.26 803.018 1020.55 847.905C1004.57 949.363 904.715 935.394 822.678 861.154C773.4 818.299 735.881 778.466 702.005 750.171C661.41 705.495 608.452 795.841 557.068 796.897C469.667 796.727 483.944 697.545 410.646 742.012C379.784 760.211 346.03 781.433 308.678 806.327C219.957 861.735 154.407 870.129 110.298 855.939C18.1536 847.748 -14.3311 747.229 5.96244 651.49C18.2724 595.638 48.0799 541.561 94.0942 507.476C155.364 462.064 246.151 428.925 274.559 345.131C295.609 292.033 164.141 222.611 197.745 125.807C218.729 61.7549 289.882 30.9339 294.044 -19.2409C298.487 -72.825 302.367 -115.867 303.283 -139.785Z" stroke="white" stroke-opacity="0.5" stroke-width="1.95066"/>
<path d="M344.77 -82.8666C331.624 -201.896 450.535 -170.58 475.463 -105.79C519.333 6.96861 567.815 35.6452 645.775 63.6125C681.328 84.9136 692.983 2.56837 751.691 -8.76503C810.4 -20.0984 835.252 59.1852 868.889 24.0882C921.425 -29.1098 969.326 -45.8416 1006.7 -39.0557C1042.62 -35.4666 1070 -8.75114 1082.15 28.5297C1093.41 63.6577 1091.11 108.008 1069.48 151.019C1020.5 209.933 1021.26 301.611 994.421 342.649C958.117 378.987 1004.83 415.919 992.905 488.866C980.977 561.812 919.725 557.407 935.628 608.331C962.935 690.261 968.199 746.412 958.874 782.311C944.607 866.009 859.569 853.167 788.942 790.736C745.645 754.488 711.708 721.454 680.715 699.676C645.592 663.182 600 739.516 555.531 741.563C480.824 742.726 491.127 660.875 428.546 698.526C401.368 714.262 371.954 732.181 339.712 752.893C261.376 798.893 205.122 801.368 169.187 785.209C92.5603 777.145 65.9032 692.07 83.4673 611.104C94.3711 563.415 120.063 517.329 159.458 488.146C216.191 446.089 294.753 416.189 318.918 338.367C336.6 292.019 226.46 231.745 254.046 148.628C271.104 92.8355 330.029 64.7677 333.671 20.8635C337.529 -25.6361 342.325 -62.6598 344.77 -82.8666Z" stroke="white" stroke-opacity="0.5" stroke-width="1.95066"/>
<path d="M388.082 -25.9526C379.596 -121.621 476.732 -95.7962 497.405 -41.8959C538.711 64.3196 584.354 85.0524 654.377 103.121C683.824 119.6 694.624 52.3823 743.035 42.2122C791.445 32.0422 812.844 94.6269 840.875 66.5341C885.159 23.9654 925.201 12.0513 955.96 19.6894C985.08 23.5935 1007.2 46.6456 1016.37 78.1558C1024.82 107.941 1021.65 145.108 1001.61 180.569C950.595 232.081 962.577 330.251 941.662 369.753C912.85 401.21 948.648 432.105 937.032 490.758C925.416 549.412 873.826 544.997 884.408 583.756C903.803 647.074 906.316 689.802 897.394 716.701C884.885 782.625 814.884 770.908 755.855 720.293C718.653 690.657 688.389 664.428 660.362 649.176C630.806 620.871 592.699 683.185 555.263 686.227C493.449 688.727 499.751 624.222 448.053 655.053C424.631 668.326 399.637 682.938 372.589 699.465C304.846 736.049 258.037 732.591 230.37 714.452C169.463 706.511 148.703 636.891 163.491 570.709C172.96 531.187 194.467 493.095 227.139 468.817C279.183 430.108 345.312 403.445 365.171 331.583C379.438 291.986 290.915 240.862 312.411 171.439C325.498 123.907 372.039 98.5895 375.154 60.9566C378.415 21.5434 384.115 -9.4601 388.082 -25.9526Z" stroke="white" stroke-opacity="0.5" stroke-width="1.95066"/>
<path d="M430.179 30.9585C426.316 -41.3179 502.2 -20.9903 518.732 22.0114C557.714 121.718 600.786 134.49 663.271 142.636C686.772 154.284 696.779 102.211 735.155 93.2026C773.53 84.1944 791.593 130.055 814.173 108.976C850.448 77.0512 882.85 69.9654 907.163 78.4628C929.634 82.685 946.622 102.073 952.852 127.81C958.543 152.25 954.473 182.229 935.912 210.132C882.545 254.243 905.85 358.981 890.751 396.962C869.28 423.538 894.346 448.392 882.972 492.734C871.598 537.076 829.388 532.647 834.696 559.221C846.273 603.896 846.043 633.177 837.472 651.06C826.651 699.181 771.308 688.587 723.553 649.803C692.241 626.786 665.477 607.372 640.256 598.661C616.104 578.559 585.275 626.836 554.666 630.879C505.408 634.721 507.736 587.589 466.64 611.592L465.508 612.21C446.055 622.831 425.711 633.937 404.129 646.038C346.602 673.192 308.982 663.778 289.44 643.644C243.929 635.823 228.959 581.674 241.052 530.29C249.138 498.943 266.579 468.853 292.705 449.484C340.361 414.114 394.419 390.684 410.079 324.764C421.008 291.921 353.63 249.953 369.148 194.233C378.332 154.966 412.736 132.395 415.339 101.035C418.022 68.7114 424.661 43.7326 430.179 30.9585Z" stroke="white" stroke-opacity="0.5" stroke-width="1.95066"/>
<path d="M473.388 90.6292C474.182 42.0623 528.223 56.803 540.485 88.7155C576.852 181.462 617.028 186.22 671.501 184.409C688.874 191.176 698.013 154.478 726.055 146.672C754.096 138.866 768.685 167.803 785.638 153.83C813.626 132.688 838.135 130.461 855.815 139.778C871.46 144.299 883.181 159.937 886.422 179.785C889.306 198.771 884.37 221.429 867.423 241.652C812.1 278.165 846.571 388.99 837.407 425.278C823.445 446.855 837.58 465.556 826.532 495.392C815.485 525.227 782.98 520.806 782.969 535.079C786.633 560.917 783.657 576.624 775.5 585.413C766.45 615.522 726.196 606.098 690.085 579.317C664.903 563.019 641.842 550.505 619.619 548.371C601.057 536.56 577.744 570.588 554.199 575.612C517.879 580.778 516.211 551.226 486.036 568.295C470.018 576.59 453.745 584.533 436.96 592.622C390.089 610.229 361.95 594.905 350.69 572.867C320.934 565.201 311.871 526.762 321.176 490.405C327.818 467.371 341.058 445.416 360.435 431.042C403.342 399.17 444.913 379.08 456.252 319.399C463.757 293.456 418.053 260.829 427.47 219.06C432.677 188.232 454.671 168.508 456.744 143.561C458.827 118.472 466.359 99.6285 473.388 90.6292Z" stroke="white" stroke-opacity="0.5" stroke-width="1.95066"/>
<path d="M517.236 147.619C522.666 122.591 555.036 131.792 563.063 152.714C596.873 238.71 634.217 235.487 680.786 223.747C692.082 225.662 700.368 204.216 718.161 197.593C735.953 190.97 747.104 203.093 758.477 196.176C778.252 185.743 794.938 188.354 806.038 198.508C814.91 203.336 821.405 215.267 821.675 229.285C821.768 242.872 815.966 258.277 800.603 270.884C743.264 299.895 788.889 417.015 785.622 451.688C779.116 468.325 782.388 480.931 771.652 496.365C760.916 511.799 738.03 507.376 732.724 509.414C728.517 516.524 722.805 518.73 715.051 518.472C707.751 530.684 682.464 522.408 657.896 507.538C638.782 497.907 619.379 492.247 600.11 496.665C587.089 493.096 571.227 512.987 554.681 518.999C531.194 525.496 525.546 513.41 506.202 523.601C493.924 529.407 482.049 534.016 470.435 537.89C434.11 546.013 415.372 524.766 412.338 500.785C398.224 493.259 395.029 470.404 401.572 448.953C406.785 434.161 415.86 420.271 428.545 410.848C466.78 382.399 495.975 365.597 503.028 312.015C507.135 292.898 482.943 269.518 486.3 241.573C487.556 219.096 497.229 202.172 498.775 183.567C500.265 165.638 508.693 152.874 517.236 147.619Z" stroke="white" stroke-opacity="0.5" stroke-width="1.95066"/>
</g>
</svg>
