<svg width="49" height="48" viewBox="0 0 49 48" fill="none" xmlns="http://www.w3.org/2000/svg">
<rect x="0.5" width="48" height="48" rx="24" fill="#EEF3F9"/>
<path d="M23.2905 27.17C23.0905 27.17 22.9005 27.09 22.7605 26.95L20.3405 24.53C20.0505 24.24 20.0505 23.76 20.3405 23.47C20.6305 23.18 21.1105 23.18 21.4005 23.47L23.2905 25.36L27.5905 21.06C27.8805 20.77 28.3605 20.77 28.6505 21.06C28.9405 21.35 28.9405 21.83 28.6505 22.12L23.8205 26.95C23.6805 27.09 23.4905 27.17 23.2905 27.17Z" fill="#3871C1"/>
<path d="M24.5009 34.75C23.8709 34.75 23.2409 34.54 22.7509 34.12L21.1709 32.76C21.0109 32.62 20.6109 32.48 20.4009 32.48H18.6809C17.2009 32.48 16.0009 31.28 16.0009 29.8V28.09C16.0009 27.88 15.8609 27.49 15.7209 27.33L14.3709 25.74C13.5509 24.77 13.5509 23.24 14.3709 22.27L15.7209 20.68C15.8609 20.52 16.0009 20.13 16.0009 19.92V18.2C16.0009 16.72 17.2009 15.52 18.6809 15.52H20.4109C20.6209 15.52 21.0209 15.37 21.1809 15.24L22.7609 13.88C23.7409 13.04 25.2709 13.04 26.2509 13.88L27.8309 15.24C27.9909 15.38 28.3909 15.52 28.6009 15.52H30.3009C31.7809 15.52 32.9809 16.72 32.9809 18.2V19.9C32.9809 20.11 33.1309 20.51 33.2709 20.67L34.6309 22.25C35.4709 23.23 35.4709 24.76 34.6309 25.74L33.2709 27.32C33.1309 27.48 32.9809 27.88 32.9809 28.09V29.79C32.9809 31.27 31.7809 32.47 30.3009 32.47H28.6009C28.3909 32.47 27.9909 32.62 27.8309 32.75L26.2509 34.11C25.7609 34.54 25.1309 34.75 24.5009 34.75ZM18.6809 17.02C18.0309 17.02 17.5009 17.55 17.5009 18.2V19.91C17.5009 20.48 17.2309 21.21 16.8609 21.64L15.5109 23.23C15.1609 23.64 15.1609 24.35 15.5109 24.76L16.8609 26.35C17.2309 26.79 17.5009 27.51 17.5009 28.08V29.79C17.5009 30.44 18.0309 30.97 18.6809 30.97H20.4109C20.9909 30.97 21.7209 31.24 22.1609 31.62L23.7409 32.98C24.1509 33.33 24.8709 33.33 25.2809 32.98L26.8609 31.62C27.3009 31.25 28.0309 30.97 28.6109 30.97H30.3109C30.9609 30.97 31.4909 30.44 31.4909 29.79V28.09C31.4909 27.51 31.7609 26.78 32.1409 26.34L33.5009 24.76C33.8509 24.35 33.8509 23.63 33.5009 23.22L32.1409 21.64C31.7609 21.2 31.4909 20.47 31.4909 19.89V18.2C31.4909 17.55 30.9609 17.02 30.3109 17.02H28.6109C28.0309 17.02 27.3009 16.75 26.8609 16.37L25.2809 15.01C24.8709 14.66 24.1509 14.66 23.7409 15.01L22.1609 16.38C21.7209 16.75 20.9809 17.02 20.4109 17.02H18.6809Z" fill="#3871C1"/>
</svg>
