<svg width="49" height="48" viewBox="0 0 49 48" fill="none" xmlns="http://www.w3.org/2000/svg">
<rect x="0.5" width="48" height="48" rx="24" fill="#EEF3F9"/>
<path d="M30.79 34.74H19.21C16.47 34.74 14.25 32.51 14.25 29.77V22.36C14.25 21 15.09 19.29 16.17 18.45L21.56 14.25C23.18 12.99 25.77 12.93 27.45 14.11L33.63 18.44C34.82 19.27 35.75 21.05 35.75 22.5V29.78C35.75 32.51 33.53 34.74 30.79 34.74ZM22.48 15.43L17.09 19.63C16.38 20.19 15.75 21.46 15.75 22.36V29.77C15.75 31.68 17.3 33.24 19.21 33.24H30.79C32.7 33.24 34.25 31.69 34.25 29.78V22.5C34.25 21.54 33.56 20.21 32.77 19.67L26.59 15.34C25.45 14.54 23.57 14.58 22.48 15.43Z" fill="#3871C1"/>
<path d="M20.4995 29.2499C20.3095 29.2499 20.1195 29.1799 19.9695 29.0299C19.6795 28.7399 19.6795 28.2599 19.9695 27.9699L23.1695 24.7699C23.3295 24.6099 23.5395 24.5299 23.7695 24.5499C23.9895 24.5699 24.1895 24.6899 24.3195 24.8799L25.4095 26.5199L28.9595 22.9699C29.2495 22.6799 29.7295 22.6799 30.0195 22.9699C30.3095 23.2599 30.3095 23.7399 30.0195 24.0299L25.8195 28.2299C25.6595 28.3899 25.4495 28.4699 25.2195 28.4499C24.9995 28.4299 24.7995 28.3099 24.6695 28.1199L23.5795 26.4799L21.0295 29.0299C20.8795 29.1799 20.6895 29.2499 20.4995 29.2499Z" fill="#3871C1"/>
<path d="M29.5 26.25C29.09 26.25 28.75 25.91 28.75 25.5V24.25H27.5C27.09 24.25 26.75 23.91 26.75 23.5C26.75 23.09 27.09 22.75 27.5 22.75H29.5C29.91 22.75 30.25 23.09 30.25 23.5V25.5C30.25 25.91 29.91 26.25 29.5 26.25Z" fill="#3871C1"/>
</svg>
