<svg width="50" height="50" viewBox="0 0 50 50" fill="none" xmlns="http://www.w3.org/2000/svg">
<rect width="50" height="50" rx="8" fill="#F6F6F6"/>
<path d="M16.3916 34.9252C17.0796 35.4197 17.9056 35.6852 18.7527 35.6841C19.3194 35.6837 19.88 35.567 20.3998 35.3413L20.827 33.6997L21.6422 30.5573L21.8164 29.8827C21.7487 29.7361 21.7105 29.5775 21.704 29.4161C21.7027 29.2384 21.7493 29.0637 21.8389 28.9102C21.9195 28.7655 22.0335 28.642 22.1713 28.5501C22.3092 28.4582 22.4669 28.4005 22.6316 28.3818C22.7777 28.3705 22.9745 28.3762 24.987 28.3762C25.8816 28.3762 26.7398 28.022 27.374 27.391C28.0081 26.76 28.3667 25.9036 28.3711 25.009V23.8789L22.7271 24.4748L21.378 24.6155L19.832 24.7784C19.2555 24.8396 18.7248 25.1211 18.3509 25.5642C17.9769 26.0073 17.7886 26.5777 17.8252 27.1563L18.1568 32.5137C18.1766 32.8378 18.1261 33.1623 18.0087 33.4651C17.8913 33.7678 17.7098 34.0416 17.4766 34.2676C17.3141 34.4285 17.126 34.5615 16.9201 34.6611L16.3916 34.9252Z" fill="#E0925B"/>
<path d="M34.2236 34.2394L35.0555 36.4599C35.397 36.4971 35.7396 36.4003 36.0113 36.1901H36.0169L36.1184 36.1058C36.242 35.9892 36.3409 35.849 36.4095 35.6936C36.478 35.5381 36.5148 35.3706 36.5176 35.2007C36.5176 35.131 36.5119 35.0614 36.5007 34.9927C36.4529 34.7068 36.3086 34.4459 36.0917 34.2536C35.8748 34.0612 35.5985 33.9491 35.309 33.9359C35.127 33.9256 34.9449 33.9544 34.7749 34.0202L34.5781 34.0988L34.2236 34.2394Z" fill="#FED673"/>
<path d="M27.3644 39.8158C27.3658 40.1298 27.4113 40.442 27.4993 40.7434C27.6997 41.399 28.1067 41.9722 28.6596 42.3774C29.2125 42.7826 29.8817 42.9981 30.5672 42.9918C31.2527 42.9855 31.9177 42.7576 32.4631 42.3423C33.0084 41.9269 33.4048 41.3463 33.593 40.6872C33.6773 40.4045 33.719 40.1108 33.7167 39.8158C33.7177 39.5287 33.6779 39.2429 33.5987 38.967C33.4093 38.284 32.9969 37.6839 32.4271 37.2624C31.8573 36.8408 31.1629 36.622 30.4544 36.6408C29.7458 36.6595 29.0639 36.9148 28.5172 37.3658C27.9705 37.8169 27.5904 38.438 27.4375 39.13C27.39 39.3556 27.3655 39.5854 27.3644 39.8158Z" fill="#FED673"/>
<path d="M7.76853 39.6193C7.76802 40.0037 7.83855 40.3848 7.97657 40.7436C8.20433 41.3466 8.61035 41.8659 9.14059 42.2325C9.67084 42.599 10.3001 42.7954 10.9447 42.7954C11.5893 42.7954 12.2186 42.599 12.7489 42.2325C13.2791 41.8659 13.6851 41.3466 13.9129 40.7436C14.0509 40.3848 14.1214 40.0037 14.1209 39.6193C14.1231 39.4495 14.1081 39.28 14.0759 39.1133C13.9568 38.3685 13.5762 37.6907 13.0023 37.2013C12.4284 36.7119 11.6989 36.4431 10.9447 36.4431C10.1905 36.4431 9.46105 36.7119 8.88718 37.2013C8.31331 37.6907 7.93265 38.3685 7.81353 39.1133C7.78136 39.28 7.76629 39.4495 7.76853 39.6193Z" fill="#FED673"/>
<path d="M26.6064 39.6193C26.6064 40.136 26.7082 40.6477 26.9059 41.1251C27.1037 41.6026 27.3936 42.0364 27.759 42.4018C28.1244 42.7672 28.5582 43.057 29.0356 43.2548C29.513 43.4526 30.0247 43.5543 30.5415 43.5543C31.0582 43.5543 31.5699 43.4526 32.0474 43.2548C32.5248 43.057 32.9586 42.7672 33.324 42.4018C33.6894 42.0364 33.9793 41.6026 34.177 41.1251C34.3748 40.6477 34.4766 40.136 34.4766 39.6193C34.4766 39.0346 34.1617 38.821 33.8076 38.8829C33.7323 38.893 33.6608 38.922 33.5996 38.9671C33.5082 39.0267 33.4362 39.1116 33.3923 39.2114C33.3483 39.3112 33.3344 39.4217 33.3523 39.5293V39.6193C33.3523 40.3647 33.0561 41.0797 32.529 41.6068C32.0019 42.1339 31.2869 42.43 30.5415 42.43C29.796 42.43 29.0811 42.1339 28.554 41.6068C28.0268 41.0797 27.7307 40.3647 27.7307 39.6193C27.7316 39.5188 27.7047 39.42 27.6532 39.3337C27.6016 39.2475 27.5273 39.177 27.4384 39.1302C27.3573 39.0806 27.2637 39.0552 27.1686 39.0571C27.0196 39.0575 26.8769 39.1169 26.7715 39.2222C26.6662 39.3275 26.6068 39.4703 26.6064 39.6193Z" fill="#7C737D"/>
<path d="M7.00879 39.6191C7.00648 40.1374 7.10656 40.651 7.30328 41.1304C7.5 41.6099 7.78948 42.0457 8.15512 42.413C8.52075 42.7803 8.95532 43.0717 9.43389 43.2705C9.91246 43.4694 10.4256 43.5718 10.9438 43.5718C11.4621 43.5718 11.9752 43.4694 12.4538 43.2705C12.9323 43.0717 13.3669 42.7803 13.7325 42.413C14.0982 42.0457 14.3877 41.6099 14.5844 41.1304C14.7811 40.651 14.8812 40.1374 14.8789 39.6191C14.8785 39.4701 14.8192 39.3273 14.7139 39.2219C14.6085 39.1165 14.4658 39.0571 14.3168 39.0566C14.2331 39.0579 14.1507 39.0771 14.075 39.1128C13.9789 39.1577 13.8976 39.2293 13.8408 39.319C13.7841 39.4086 13.7542 39.5127 13.7547 39.6188C13.7544 40.0053 13.676 40.3877 13.5243 40.7431C13.3045 41.2445 12.9435 41.671 12.4852 41.9705C12.027 42.27 11.4914 42.4295 10.944 42.4295C10.3966 42.4295 9.86099 42.27 9.40275 41.9705C8.9445 41.671 8.58345 41.2445 8.36371 40.7431C8.21199 40.3877 8.1336 40.0053 8.13324 39.6188C8.13377 39.5127 8.10389 39.4086 8.04712 39.319C7.99035 39.2293 7.90908 39.1577 7.81293 39.1128C7.73728 39.0771 7.65487 39.0579 7.57121 39.0566C7.42215 39.057 7.2793 39.1164 7.1739 39.2218C7.0685 39.3272 7.00914 39.4701 7.00879 39.6191Z" fill="#7C737D"/>
<path d="M27.5 40.7433C27.7004 41.3988 28.1074 41.972 28.6603 42.3772C29.2133 42.7825 29.8824 42.998 30.5679 42.9917C31.2534 42.9853 31.9184 42.7575 32.4638 42.3421C33.0091 41.9268 33.4055 41.3462 33.5938 40.687C33.4387 40.7211 33.2803 40.7381 33.1216 40.7376C33.0805 40.7423 33.0392 40.7442 32.9979 40.7433H27.5Z" fill="#FED673"/>
<path d="M7.97578 40.7434C8.20354 41.3464 8.60956 41.8658 9.1398 42.2323C9.67004 42.5988 10.2993 42.7952 10.9439 42.7952C11.5885 42.7952 12.2178 42.5988 12.7481 42.2323C13.2783 41.8658 13.6844 41.3464 13.9121 40.7434H7.97578Z" fill="#FED673"/>
<path d="M26.7698 40.7435C27.0202 41.5812 27.5422 42.3117 28.2537 42.8198C28.9651 43.328 29.8254 43.5849 30.699 43.5501C31.5726 43.5153 32.4097 43.1908 33.0785 42.6277C33.7473 42.0645 34.2096 41.2948 34.3926 40.4399C34.1394 40.5594 33.8707 40.6428 33.5943 40.6876C33.4392 40.7217 33.2809 40.7387 33.1221 40.7382C32.9035 41.2405 32.5432 41.6681 32.0852 41.9687C31.6272 42.2692 31.0915 42.4296 30.5437 42.4302C29.9959 42.4308 29.4598 42.2716 29.0012 41.972C28.5425 41.6725 28.1812 41.2457 27.9616 40.7438L26.7698 40.7435Z" fill="#7C737D"/>
<path d="M7.17266 40.7434C7.41504 41.5555 7.91307 42.2678 8.59268 42.7742C9.27229 43.2806 10.0972 43.5541 10.9447 43.5541C11.7923 43.5541 12.6172 43.2806 13.2968 42.7742C13.9764 42.2678 14.4744 41.5555 14.7168 40.7434H13.525C13.3053 41.2448 12.9442 41.6713 12.486 41.9708C12.0277 42.2703 11.4922 42.4298 10.9447 42.4298C10.3973 42.4298 9.86173 42.2703 9.40349 41.9708C8.94525 41.6713 8.58419 41.2448 8.36445 40.7434H7.17266Z" fill="#7C737D"/>
<path d="M33.1218 40.7377C33.2805 40.7383 33.4389 40.7214 33.594 40.6874C33.8703 40.6427 34.139 40.5594 34.3923 40.4401C34.4489 40.1703 34.4772 39.8954 34.4766 39.6197C34.4766 39.0351 34.1617 38.8215 33.8076 38.8833C33.7323 38.8935 33.6607 38.9225 33.5996 38.9676C33.5082 39.0272 33.4362 39.112 33.3923 39.2119C33.3483 39.3117 33.3344 39.4222 33.3523 39.5297V39.6197C33.3518 40.0042 33.2734 40.3845 33.1218 40.7377Z" fill="#6C646D"/>
<path d="M27.4384 39.13C27.5273 39.1769 27.6016 39.2473 27.6532 39.3336C27.7047 39.4198 27.7316 39.5186 27.7307 39.6191C27.7311 40.0056 27.8095 40.388 27.9612 40.7434H32.9981C33.0394 40.7443 33.0807 40.7425 33.1218 40.7378C33.2735 40.3843 33.3519 40.0038 33.3523 39.6191V39.5291C33.3344 39.4215 33.3483 39.3111 33.3923 39.2112C33.4362 39.1114 33.5082 39.0265 33.5996 38.967C33.4103 38.284 32.9979 37.6839 32.4281 37.2624C31.8583 36.8408 31.1638 36.622 30.4553 36.6408C29.7468 36.6595 29.0649 36.9148 28.5182 37.3658C27.9715 37.8169 27.5914 38.438 27.4384 39.13Z" fill="#FEC845"/>
<path d="M26.6062 39.6192C26.6055 39.9999 26.6605 40.3786 26.7692 40.7435H27.9609C27.8092 40.388 27.7308 40.0056 27.7304 39.6192C27.7313 39.5187 27.7044 39.4199 27.6529 39.3336C27.6013 39.2474 27.527 39.1769 27.4381 39.1301C27.357 39.0805 27.2634 39.0552 27.1683 39.057C27.0193 39.0574 26.8766 39.1168 26.7713 39.2221C26.666 39.3275 26.6066 39.4702 26.6062 39.6192Z" fill="#6C646D"/>
<path d="M13.5241 40.7434H14.7159C14.8247 40.3786 14.8796 39.9998 14.8789 39.6191C14.8785 39.4701 14.8192 39.3273 14.7139 39.2219C14.6086 39.1165 14.4658 39.0571 14.3168 39.0566C14.2331 39.0579 14.1507 39.0771 14.0751 39.1128C13.9789 39.1577 13.8976 39.2293 13.8409 39.319C13.7841 39.4086 13.7542 39.5127 13.7548 39.6188C13.7544 40.0054 13.676 40.3879 13.5241 40.7434Z" fill="#6C646D"/>
<path d="M7.81391 39.113C7.91006 39.158 7.99133 39.2295 8.0481 39.3192C8.10486 39.4089 8.13475 39.5129 8.13422 39.619C8.13457 40.0055 8.21296 40.3879 8.36469 40.7433H13.5254C13.6771 40.3879 13.7555 40.0055 13.7559 39.619C13.7553 39.5129 13.7852 39.4089 13.842 39.3192C13.8987 39.2295 13.98 39.158 14.0762 39.113C13.957 38.3683 13.5764 37.6904 13.0025 37.201C12.4287 36.7117 11.6992 36.4429 10.945 36.4429C10.1908 36.4429 9.46127 36.7117 8.8874 37.201C8.31353 37.6904 7.93287 38.3683 7.81375 39.113H7.81391Z" fill="#FEC845"/>
<path d="M7.00852 39.6193C7.00785 40 7.06275 40.3788 7.17148 40.7436H8.36328C8.21156 40.3882 8.13317 40.0058 8.13281 39.6193C8.13334 39.5132 8.10346 39.4091 8.04669 39.3194C7.98992 39.2298 7.90866 39.1582 7.8125 39.1133C7.73685 39.0776 7.65444 39.0584 7.57078 39.0571C7.4218 39.0575 7.27904 39.1169 7.17368 39.2222C7.06833 39.3276 7.00895 39.4703 7.00852 39.6193Z" fill="#6C646D"/>
<path d="M16.3927 34.9253C17.0807 35.4197 17.9067 35.6852 18.7538 35.6842C19.3205 35.6837 19.8811 35.567 20.4009 35.3413L20.8281 33.6997C20.3979 34.1307 19.844 34.4169 19.2436 34.5187C18.6432 34.6204 18.026 34.5326 17.4777 34.2675C17.3152 34.4285 17.1271 34.5614 16.9212 34.661L16.3927 34.9253Z" fill="#DB7A35"/>
<path d="M7.0101 39.6191H32.9984C33.3593 39.6191 33.715 39.5321 34.0352 39.3654C34.3554 39.1988 34.6307 38.9574 34.8377 38.6618C35.0448 38.3662 35.1776 38.025 35.2248 37.6671C35.2721 37.3092 35.2323 36.9453 35.109 36.606L35.0558 36.4598L34.2239 34.2392L33.3975 32.03L32.9871 30.9285C32.3753 31.4584 31.5929 31.7498 30.7835 31.7492H24.836C24.1007 31.7501 23.3857 31.5091 22.801 31.0634C22.8291 31.4939 22.8045 31.9262 22.7278 32.3507C22.1432 35.4367 18.72 36.5894 16.3924 34.9254C15.8604 34.5525 15.4263 34.0568 15.1269 33.4803C14.8275 32.9038 14.6715 32.2636 14.6724 31.614C14.6724 31.2036 15.3638 24.3342 15.5606 22.1921C15.5831 21.9223 15.5996 21.7312 15.6055 21.6296H12.1314L11.0228 34.7645C11.0045 35.0027 10.9097 35.2287 10.7526 35.4087C10.5955 35.5887 10.3844 35.7131 10.1508 35.7635C9.26327 35.946 8.46598 36.4294 7.89372 37.1319C7.32146 37.8344 7.00933 38.713 7.0101 39.6191Z" fill="#00ADEF"/>
<path d="M12.1314 21.6304H15.6055C15.5999 21.7319 15.583 21.9227 15.5605 22.1929C15.5324 22.4851 15.4987 22.873 15.4537 23.3172H14.8803C14.7061 23.3163 14.5326 23.2956 14.3631 23.2553C14.1036 23.622 13.7598 23.9212 13.3608 24.1276C12.9617 24.334 12.5189 24.4416 12.0696 24.4415H11.8953L12.1314 21.6304Z" fill="#0587B9"/>
<path d="M13.7552 21.068C13.7554 21.2655 13.8077 21.4594 13.907 21.6301C13.9554 21.7152 14.016 21.7928 14.0866 21.8606C14.1897 21.9663 14.313 22.0501 14.4492 22.1071C14.5853 22.1641 14.7316 22.1931 14.8792 22.1923H21.2487C21.4395 22.6211 21.6632 23.0346 21.9177 23.429C22.1543 23.802 22.4253 24.152 22.7271 24.4746L28.3711 23.8787C28.3683 23.5028 28.3288 23.1282 28.253 22.76C27.6515 19.9099 24.942 17.2566 23.1937 15.8006C22.8564 15.5139 22.5584 15.2778 22.3109 15.0923C21.8096 15.5865 21.1905 15.9445 20.5123 16.1327C20.1902 16.4731 19.982 16.9053 19.9164 17.3694C19.7646 18.325 20.1244 19.3706 20.4954 19.9441H14.8795C14.5816 19.9449 14.2962 20.0636 14.0855 20.2742C13.8749 20.4848 13.7561 20.7701 13.7552 21.068Z" fill="#FED673"/>
<path d="M21.9177 23.4292C22.1543 23.8022 22.4253 24.1523 22.7271 24.4749L28.3711 23.8789C28.3683 23.5031 28.3288 23.1284 28.253 22.7603L21.9177 23.4292Z" fill="#FEC845"/>
<path d="M22.7268 32.3504C23.3751 32.6973 24.0997 32.877 24.8349 32.8732H30.7824C31.7199 32.8687 32.633 32.5741 33.3965 32.03L32.9861 30.9285C32.3743 31.4584 31.5918 31.7498 30.7824 31.7492H24.8349C24.0997 31.7501 23.3846 31.5091 22.7999 31.0634C22.828 31.4938 22.8035 31.926 22.7268 32.3504Z" fill="#0587B9"/>
<path d="M21.8165 29.8828C22.0971 30.4432 22.5281 30.9145 23.0612 31.2441C23.5943 31.5737 24.2085 31.7485 24.8353 31.7491H30.7828C31.4095 31.7483 32.0236 31.5733 32.5566 31.2437C33.0897 30.9142 33.5207 30.443 33.8015 29.8828C33.8811 29.7244 33.9188 29.5483 33.9111 29.3712C33.9035 29.1941 33.8507 29.0219 33.7577 28.871C33.6648 28.72 33.5349 28.5953 33.3802 28.5087C33.2255 28.4222 33.0513 28.3765 32.874 28.3762L22.6318 28.3818C22.4652 28.4005 22.3055 28.4591 22.1663 28.5528C22.0272 28.6464 21.9127 28.7723 21.8326 28.9196C21.7526 29.067 21.7093 29.2315 21.7065 29.3992C21.7037 29.5669 21.7414 29.7328 21.8165 29.8828Z" fill="#7C737D"/>
<path d="M30.6211 28.3762H37.367V22.3488C37.367 22.3074 37.3505 22.2676 37.3212 22.2383C37.2919 22.209 37.2521 22.1925 37.2107 22.1925H30.7773C30.7359 22.1925 30.6962 22.209 30.6669 22.2383C30.6376 22.2676 30.6211 22.3074 30.6211 22.3488V28.3762Z" fill="#E69B6C"/>
<path d="M30.6195 26.6896V28.3761H37.3652V23.3167C37.3644 23.0188 37.2456 22.7333 37.035 22.5226C36.8243 22.312 36.5389 22.1932 36.2409 22.1924C36.2409 23.3851 35.7671 24.529 34.9237 25.3724C34.0804 26.2158 32.9365 26.6896 31.7437 26.6896H30.6195Z" fill="#E28044"/>
<path d="M16.004 11.7925C16.0014 12.1699 16.0372 12.5466 16.1109 12.9168C16.3582 14.2097 17.0777 15.1935 18.2527 15.5645C18.6169 15.6761 18.996 15.7311 19.377 15.7276V11.7925H16.004Z" fill="#FCD7CA"/>
<path d="M8.69617 21.6303C8.69587 21.8518 8.7393 22.0713 8.82397 22.2761C8.90863 22.4808 9.03287 22.6669 9.18957 22.8236C9.34627 22.9802 9.53234 23.1044 9.73713 23.1891C9.94191 23.2737 10.1614 23.3171 10.383 23.3167H12.0691C12.5144 23.3137 12.9404 23.1347 13.2542 22.8188C13.568 22.5028 13.7441 22.0756 13.7441 21.6303C13.7441 21.185 13.568 20.7578 13.2542 20.4418C12.9404 20.1259 12.5144 19.9469 12.0691 19.9438H10.383C9.93585 19.9445 9.50723 20.1223 9.19104 20.4384C8.87485 20.7546 8.69689 21.1831 8.69617 21.6303Z" fill="#E6F3DB"/>
<path d="M8.94379 22.5072C9.09274 22.7555 9.30381 22.9608 9.55622 23.1027C9.80863 23.2447 10.0937 23.3184 10.3832 23.3167H12.0694C12.4372 23.3169 12.795 23.1968 13.0882 22.9747C13.3814 22.7526 13.5938 22.4406 13.6932 22.0865C13.7926 21.7324 13.7733 21.3554 13.6385 21.0132C13.5037 20.671 13.2606 20.3823 12.9464 20.1912C13.1026 20.4467 13.1879 20.7392 13.1934 21.0386C13.199 21.338 13.1247 21.6335 12.978 21.8946C12.8314 22.1557 12.6179 22.3731 12.3594 22.5242C12.1008 22.6754 11.8067 22.7549 11.5072 22.7545H9.82074C9.51108 22.7554 9.20733 22.6698 8.94379 22.5072Z" fill="#0DCEDE"/>
<path d="M39.6149 27.2518H41.0602C41.1357 27.2545 41.2109 27.242 41.2815 27.2149C41.352 27.1879 41.4164 27.1469 41.4707 27.0944C41.5251 27.0419 41.5683 26.9791 41.5978 26.9095C41.6274 26.84 41.6426 26.7652 41.6426 26.6897C41.6426 26.6142 41.6274 26.5394 41.5978 26.4699C41.5683 26.4003 41.5251 26.3374 41.4707 26.285C41.4164 26.2325 41.352 26.1915 41.2815 26.1645C41.2109 26.1374 41.1357 26.1249 41.0602 26.1275H39.6149C39.4692 26.1327 39.3313 26.1942 39.23 26.299C39.1288 26.4039 39.0723 26.544 39.0723 26.6897C39.0723 26.8354 39.1288 26.9755 39.23 27.0804C39.3313 27.1852 39.4692 27.2467 39.6149 27.2518Z" fill="#E69B6C"/>
<path d="M39.6136 25.0033H42.0227C42.1685 24.9984 42.3068 24.9371 42.4082 24.8322C42.5097 24.7273 42.5664 24.587 42.5664 24.4411C42.5664 24.2952 42.5097 24.1549 42.4082 24.05C42.3068 23.9451 42.1685 23.8838 42.0227 23.8789H39.6136C39.4677 23.8838 39.3295 23.9451 39.228 24.05C39.1266 24.1549 39.0698 24.2952 39.0698 24.4411C39.0698 24.587 39.1266 24.7273 39.228 24.8322C39.3295 24.9371 39.4677 24.9984 39.6136 25.0033Z" fill="#E69B6C"/>
<path d="M39.615 22.7545H42.9879C43.0634 22.7572 43.1387 22.7446 43.2092 22.7176C43.2798 22.6905 43.3441 22.6496 43.3985 22.5971C43.4528 22.5446 43.496 22.4818 43.5256 22.4122C43.5551 22.3427 43.5703 22.2679 43.5703 22.1924C43.5703 22.1168 43.5551 22.0421 43.5256 21.9725C43.496 21.903 43.4528 21.8401 43.3985 21.7877C43.3441 21.7352 43.2798 21.6942 43.2092 21.6672C43.1387 21.6401 43.0634 21.6276 42.9879 21.6302H39.615C39.4694 21.6354 39.3314 21.6969 39.2302 21.8017C39.129 21.9066 39.0724 22.0466 39.0724 22.1924C39.0724 22.3381 39.129 22.4782 39.2302 22.583C39.3314 22.6879 39.4694 22.7494 39.615 22.7545Z" fill="#E69B6C"/>
<path d="M20.512 16.1328C20.1899 16.4732 19.9817 16.9054 19.9161 17.3695H19.9329C20.0194 17.3695 20.1057 17.3638 20.1915 17.3526C20.4024 17.3198 20.6109 17.2728 20.8155 17.212C21.6779 16.9728 22.4653 16.5181 23.1034 15.8906C23.1316 15.8624 23.1653 15.8343 23.1934 15.8006C22.8561 15.5139 22.5581 15.2778 22.3105 15.0923C21.8093 15.5865 21.1902 15.9446 20.512 16.1328Z" fill="#FECD55"/>
<path d="M16.004 11.7925C16.0014 12.1699 16.0372 12.5466 16.1109 12.9168C16.3921 12.9168 16.6706 12.9722 16.9305 13.0798C17.1903 13.1874 17.4265 13.3452 17.6253 13.5441C17.8242 13.743 17.982 13.9791 18.0896 14.2389C18.1973 14.4988 18.2527 14.7773 18.2527 15.0586V15.5645C18.6169 15.6761 18.996 15.7311 19.377 15.7276V11.7925H16.004Z" fill="#FAC1AD"/>
<path d="M15.1773 11.7926H19.3766V15.6798C19.3763 15.7606 19.3933 15.8405 19.4266 15.9141C19.4599 15.9877 19.5086 16.0534 19.5694 16.1065C19.6303 16.1597 19.7019 16.1991 19.7793 16.2222C19.8567 16.2453 19.9382 16.2514 20.0183 16.2402C20.1849 16.2142 20.3498 16.1783 20.5122 16.1326C21.4699 15.861 22.3013 15.2607 22.8605 14.4371C23.4197 13.6135 23.6709 12.6192 23.57 11.6288C23.4595 10.5796 22.9593 9.60997 22.1684 8.91177C21.3774 8.21357 20.3532 7.83761 19.2984 7.85823C18.2435 7.87885 17.2348 8.29455 16.4717 9.02313C15.7087 9.75171 15.2468 10.7401 15.1774 11.7929L15.1773 11.7926Z" fill="#00ADEF"/>
<path d="M19.3881 15.0078C19.3825 15.0078 19.3825 15.0078 19.3769 15.0135V15.6767C19.3765 15.7576 19.3934 15.8375 19.4265 15.9113C19.4597 15.985 19.5082 16.0507 19.569 16.104C19.6297 16.1574 19.7012 16.197 19.7786 16.2204C19.8559 16.2437 19.9374 16.2501 20.0175 16.2392C20.1842 16.2123 20.3493 16.1766 20.5122 16.1324C21.1905 15.9445 21.8097 15.5865 22.311 15.0924C22.7615 14.6578 23.109 14.1278 23.3282 13.5414C23.5473 12.955 23.6325 12.3271 23.5775 11.7035C23.5226 11.0799 23.3288 10.4765 23.0105 9.93753C22.6921 9.39853 22.2572 8.93756 21.7377 8.58838C22.2973 9.40527 22.5491 10.3942 22.4482 11.3792C22.3473 12.3643 21.9004 13.2816 21.1867 13.9681C20.6854 14.4621 20.0664 14.8199 19.3881 15.0078Z" fill="#0587B9"/>
<path d="M25.5605 36.8083H30.0577V34.1538C30.0577 34.1124 30.0413 34.0726 30.012 34.0433C29.9827 34.014 29.9429 33.9976 29.9015 33.9976H25.7168C25.6754 33.9976 25.6356 34.014 25.6063 34.0433C25.577 34.0726 25.5605 34.1124 25.5605 34.1538V36.8083Z" fill="#E6F3DB"/>
<path d="M25.5614 36.2461V36.8086H30.0586V35.1218C30.058 34.9055 29.9952 34.694 29.8775 34.5125C29.7599 34.331 29.5925 34.1872 29.3952 34.0984C29.4632 34.2425 29.4979 34.4 29.4968 34.5593C29.4968 34.7808 29.4532 35.0001 29.3684 35.2047C29.2837 35.4093 29.1595 35.5952 29.0029 35.7518C28.8463 35.9084 28.6604 36.0326 28.4557 36.1174C28.2511 36.2021 28.0319 36.2457 27.8104 36.2457L25.5614 36.2461Z" fill="#0DCEDE"/>
<path d="M14.88 12.3548H19.3773C19.523 12.3496 19.6609 12.2881 19.7621 12.1833C19.8634 12.0784 19.9199 11.9384 19.9199 11.7926C19.9199 11.6469 19.8634 11.5068 19.7621 11.402C19.6609 11.2971 19.523 11.2356 19.3773 11.2305H14.88C14.7344 11.2356 14.5964 11.2971 14.4952 11.402C14.394 11.5068 14.3374 11.6469 14.3374 11.7926C14.3374 11.9384 14.394 12.0784 14.4952 12.1833C14.5964 12.2881 14.7344 12.3496 14.88 12.3548Z" fill="#FFE589"/>
<path d="M14.88 12.3548H19.3773C19.523 12.3496 19.6609 12.2881 19.7621 12.1833C19.8634 12.0784 19.9199 11.9384 19.9199 11.7926C19.9199 11.6469 19.8634 11.5068 19.7621 11.402C19.6609 11.2971 19.523 11.2356 19.3773 11.2305H14.88C14.7344 11.2356 14.5964 11.2971 14.4952 11.402C14.394 11.5068 14.3374 11.6469 14.3374 11.7926C14.3374 11.9384 14.394 12.0784 14.4952 12.1833C14.5964 12.2881 14.7344 12.3496 14.88 12.3548Z" fill="#FFE589"/>
<path d="M34.2241 34.2394L35.056 36.46C35.3975 36.4971 35.7401 36.4004 36.0117 36.1901C35.0841 36.1789 34.5782 34.0989 34.5782 34.0989L34.2241 34.2394Z" fill="#FEC845"/>
<path d="M10.4306 35.1443L11.4553 23.8715H10.3845C7.4167 23.7934 7.42272 19.4483 10.3845 19.3744C11.3465 19.3971 12.8859 19.1779 13.5967 19.9815C13.7533 19.7923 13.9496 19.6399 14.1716 19.535C14.3937 19.4301 14.636 19.3752 14.8816 19.3744H19.5816C19.2943 18.6294 19.1487 17.6979 19.4815 16.8395C19.397 16.8535 19.3104 16.8483 19.2281 16.8244C19.1459 16.8004 19.0701 16.7583 19.0063 16.7011C18.9425 16.644 18.8924 16.5732 18.8596 16.4941C18.8268 16.415 18.8121 16.3295 18.8168 16.244C16.909 16.0055 15.6506 14.5459 15.4687 12.3475H14.3196C13.5844 12.3444 13.5845 11.2261 14.3196 11.2232H14.6833C14.8797 10.1205 15.4577 9.12204 16.3161 8.40261C17.1745 7.68319 18.2586 7.28866 19.3787 7.2881C23.3169 7.23107 25.604 12.0017 23.1269 15.0206C25.3174 16.6901 28.894 19.999 28.9315 23.8112C28.932 23.8126 28.932 23.814 28.9315 23.8154C28.9315 23.8343 28.9348 23.8527 28.9348 23.8715V24.9958C28.9349 25.5198 28.8299 26.0386 28.6261 26.5213C28.4224 27.0041 28.1239 27.4411 27.7484 27.8066H30.0598V22.1851C30.0598 22.1112 30.0743 22.0381 30.1025 21.9698C30.1308 21.9015 30.1722 21.8395 30.2244 21.7872C30.2767 21.735 30.3387 21.6936 30.407 21.6653C30.4753 21.6371 30.5484 21.6226 30.6223 21.6226H37.3674C37.4413 21.6226 37.5145 21.6371 37.5827 21.6653C37.651 21.6936 37.713 21.735 37.7653 21.7872C37.8175 21.8395 37.859 21.9015 37.8872 21.9698C37.9155 22.0381 37.93 22.1112 37.9299 22.1851V27.8066H39.0543C39.7887 27.8097 39.7897 28.9279 39.0543 28.9309C38.0145 28.9319 35.4693 28.9303 34.4028 28.9309C34.6778 29.72 34.1643 30.5133 33.6412 31.0715L34.5517 33.4993C36.9247 32.6055 38.1851 36.1542 35.7737 36.9436C35.9538 38.0217 35.4196 39.1929 34.4712 39.7515C34.1968 44.5249 27.4244 44.8639 26.653 40.174H14.8369C14.1237 44.6361 7.76803 44.633 7.05655 40.174C6.97913 40.1796 6.90138 40.1693 6.82813 40.1436C6.75488 40.1179 6.6877 40.0774 6.63076 40.0246C6.57382 39.9719 6.52834 39.908 6.49715 39.8369C6.46595 39.7658 6.44971 39.6891 6.44943 39.6115C6.45087 38.5085 6.85701 37.4445 7.59082 36.6211C8.32464 35.7977 9.33511 35.2722 10.4306 35.1443ZM12.0705 20.4986H10.3846C8.90967 20.5237 8.90522 22.7208 10.3846 22.7472C10.3859 22.7479 12.0714 22.7464 12.0726 22.7476C13.5482 22.7188 13.5471 20.5248 12.0705 20.4986ZM18.8169 15.1099V12.3475H16.5976C16.7001 13.3737 17.1468 14.8394 18.8168 15.1099H18.8169ZM19.3794 8.4124C18.5578 8.41263 17.7603 8.69035 17.1164 9.20053C16.4724 9.71071 16.0196 10.4234 15.8314 11.2232H19.379C19.4528 11.2232 19.5259 11.2377 19.5941 11.2659C19.6623 11.2942 19.7243 11.3356 19.7765 11.3878C19.8287 11.44 19.8701 11.5019 19.8983 11.5702C19.9266 11.6384 19.9411 11.7115 19.9411 11.7853V15.677C24.3367 14.8985 23.8744 8.51881 19.379 8.4124H19.3794ZM22.3801 15.8631C22.3642 15.8473 22.3494 15.8306 22.3357 15.8129C21.9272 16.1355 21.4688 16.3891 20.9784 16.5636C20.1536 17.3714 20.3893 18.6172 20.8155 19.3744H22.1905C22.9249 19.3778 22.9264 20.4953 22.1905 20.4986H14.8826C14.7369 20.5038 14.5989 20.5653 14.4977 20.6701C14.3965 20.775 14.3399 20.9151 14.3399 21.0608C14.3399 21.2065 14.3965 21.3466 14.4977 21.4515C14.5989 21.5563 14.7369 21.6178 14.8826 21.6229C14.8836 21.6235 21.2538 21.6229 21.2561 21.6229H23.314C24.0472 21.6251 24.0504 22.7446 23.314 22.7472H22.1729C22.3995 23.149 22.6658 23.527 22.9679 23.8755L27.7783 23.3692C27.445 20.0485 23.9347 17.0402 22.3797 15.8631H22.3801ZM15.2479 31.3036C15.2 31.857 15.2847 32.4139 15.495 32.9281C15.7053 33.4423 16.0351 33.8989 16.4572 34.2601C17.1612 33.9807 17.6577 33.3117 17.6005 32.5394L17.2658 27.1819C17.2191 26.4581 17.4546 25.7444 17.9229 25.1906C18.3911 24.6367 19.0557 24.2858 19.7771 24.2114L21.65 24.0142C21.3671 23.6134 21.1183 23.1896 20.9062 22.7472H16.0635L15.2479 31.3036ZM27.8112 24.9958V24.4958L19.8947 25.3291C19.4619 25.3738 19.0631 25.5845 18.7822 25.9168C18.5012 26.2491 18.3599 26.6773 18.3878 27.1116L18.7226 32.4688C18.7522 32.9394 18.6626 33.4098 18.462 33.8366C18.2615 34.2633 17.9566 34.6326 17.5755 34.9102C19.864 35.8061 22.5185 33.7876 22.2592 31.3394C21.7272 30.8479 21.1589 30.1831 21.1439 29.4083C21.1478 29.0103 21.2981 28.6276 21.5661 28.3334C21.8341 28.0391 22.2011 27.8538 22.597 27.8129C22.7492 27.7978 24.793 27.8102 25.0005 27.8063C25.7456 27.8054 26.46 27.5091 26.9869 26.9822C27.5138 26.4553 27.8103 25.741 27.8112 24.9958ZM36.8057 22.7472H31.1841V27.8066H36.8057V22.7472ZM32.8706 28.9309C31.2087 28.9336 24.4712 28.9258 22.6915 28.9336C22.615 28.9424 22.5418 28.9696 22.4782 29.0128C22.4145 29.0561 22.3623 29.1141 22.3259 29.1819C22.2896 29.2497 22.2702 29.3253 22.2694 29.4023C22.2686 29.4792 22.2865 29.5552 22.3215 29.6237C22.5536 30.0922 22.9123 30.4862 23.3569 30.7612C23.8015 31.0362 24.3143 31.1811 24.8371 31.1795H30.7847C31.3072 31.1777 31.8189 31.0312 32.2631 30.7563C32.7074 30.4814 33.0668 30.0888 33.3015 29.6221C33.3381 29.549 33.3553 29.4677 33.3515 29.3861C33.3476 29.3044 33.3229 29.2252 33.2797 29.1558C33.2364 29.0864 33.1761 29.0294 33.1045 28.99C33.0329 28.9506 32.9523 28.9303 32.8706 28.9309ZM35.9487 35.0772C35.9297 34.9697 35.8863 34.8679 35.8218 34.7798C35.7573 34.6916 35.6735 34.6194 35.5767 34.5688C35.48 34.5181 35.3729 34.4902 35.2637 34.4874C35.1546 34.4846 35.0462 34.5068 34.9469 34.5524L35.4425 35.8751C35.6101 35.8274 35.7543 35.7198 35.8476 35.5726C35.9409 35.4255 35.9768 35.2491 35.9484 35.0772H35.9487ZM34.5779 36.7714L32.7092 31.7891C32.1231 32.1244 31.46 32.3018 30.7847 32.3039H24.8374C24.3365 32.3023 23.8404 32.2054 23.3758 32.0182C23.1811 35.4532 18.8672 37.4665 16.1094 35.4079C16.1016 35.4033 16.0938 35.3981 16.086 35.393C15.4228 34.926 14.8931 34.2937 14.5496 33.5589C14.2062 32.8241 14.0608 32.0122 14.1279 31.2038L14.934 22.7472C14.648 22.7536 14.3651 22.6866 14.1123 22.5528C13.9703 22.8633 13.7595 23.1375 13.4958 23.3545C13.2321 23.5715 12.9225 23.7257 12.5905 23.8054L11.5066 35.7278C11.4938 35.8674 11.4293 35.9973 11.3257 36.0918C11.2221 36.1864 11.0869 36.2388 10.9467 36.2389C10.1504 36.2402 9.38013 36.5231 8.77219 37.0374C8.16425 37.5518 7.75773 38.2645 7.62451 39.0497H32.9985C34.1403 39.086 35.0127 37.8275 34.5776 36.7714H34.5779ZM30.5435 42.4226C31.1941 42.4215 31.8242 42.1951 32.3267 41.7818C32.8291 41.3684 33.1728 40.7938 33.2993 40.1556C33.1995 40.1671 33.0992 40.1732 32.9988 40.174H27.7893C27.9197 40.8083 28.2648 41.3783 28.7664 41.7879C29.268 42.1975 29.8956 42.4217 30.5432 42.4226H30.5435ZM10.947 42.4226C11.5946 42.4217 12.2222 42.1975 12.7238 41.7879C13.2254 41.3783 13.5705 40.8083 13.7009 40.174H8.19311C8.3235 40.8083 8.66856 41.3782 9.17013 41.7878C9.67171 42.1974 10.2991 42.4216 10.9467 42.4226H10.947Z" fill="black"/>
<path d="M39.6166 26.1201H41.0619C41.7967 26.1231 41.7974 27.2415 41.0619 27.2445H39.6166C38.8819 27.2415 38.8812 26.1231 39.6166 26.1201Z" fill="black"/>
<path d="M39.6157 23.8716H42.0249C42.7593 23.8745 42.7606 24.9929 42.0249 24.9959H39.6157C38.8813 24.993 38.88 23.8746 39.6157 23.8716Z" fill="black"/>
<path d="M42.9898 22.7471H39.6168C38.8825 22.7443 38.881 21.6258 39.6168 21.6228H42.9898C43.7239 21.6256 43.7257 22.7441 42.9898 22.7471Z" fill="black"/>
<path d="M30.0589 37.3632H25.5618C25.4879 37.3633 25.4148 37.3488 25.3466 37.3206C25.2783 37.2923 25.2163 37.2509 25.1641 37.1987C25.1118 37.1465 25.0704 37.0846 25.0421 37.0163C25.0138 36.9481 24.9993 36.875 24.9993 36.8011V35.1146C24.9998 34.6675 25.1777 34.2388 25.4939 33.9226C25.8101 33.6064 26.2389 33.4286 26.686 33.4282H28.9346C29.3817 33.4287 29.8104 33.6065 30.1266 33.9227C30.4428 34.2388 30.6206 34.6675 30.6211 35.1146V36.8011C30.6211 36.8749 30.6066 36.948 30.5783 37.0163C30.5501 37.0845 30.5087 37.1464 30.4565 37.1986C30.4042 37.2508 30.3423 37.2922 30.2741 37.3205C30.2058 37.3487 30.1327 37.3632 30.0589 37.3632ZM29.4968 35.1146C29.4967 34.9655 29.4374 34.8225 29.3319 34.7171C29.2264 34.6117 29.0834 34.5525 28.9343 34.5525H26.686C26.5369 34.5525 26.3939 34.6117 26.2884 34.7171C26.1829 34.8225 26.1236 34.9655 26.1235 35.1146V36.2389H29.4968V35.1146Z" fill="black"/>
</svg>
